STARTFONT 2.1
COMMENT
COMMENT Converted from OpenType font "FreeSansBoldOblique.ttf" by "otf2bdf 3.0".
COMMENT
FONT -FreeType-FreeSans-Bold-I-Normal--50-120-300-300-P-301-ISO10646-1
SIZE 12 300 300
FONTBOUNDINGBOX 124 70 -45 -16
STARTPROPERTIES 19
FOUNDRY "FreeType"
FAMILY_NAME "FreeSans"
WEIGHT_NAME "Bold"
SLANT "I"
SETWIDTH_NAME "Normal"
ADD_STYLE_NAME ""
PIXEL_SIZE 50
POINT_SIZE 120
RESOLUTION_X 300
RESOLUTION_Y 300
SPACING "P"
AVERAGE_WIDTH 301
CHARSET_REGISTRY "ISO10646"
CHARSET_ENCODING "1"
FONT_ASCENT 45
FONT_DESCENT 10
COPYRIGHT "Copyright 2002, 2003, 2005, 2008, 2009, 2010, 2012 GNU Freefont contributors."
_OTF_FONTFILE "FreeSansBoldOblique.ttf"
_OTF_PSNAME "FreeSansBoldOblique"
ENDPROPERTIES
CHARS 2380
STARTCHAR 0020
ENCODING 32
SWIDTH 280 0
DWIDTH 14 0
BBX 0 0 0 0
BITMAP
ENDCHAR
STARTCHAR 0021
ENCODING 33
SWIDTH 340 0
DWIDTH 17 0
BBX 15 36 6 1
BITMAP
00FE
01FE
01FE
01FC
01FC
03FC
03FC
03FC
03F8
03F8
07F8
07F0
07F0
07F0
07E0
07E0
07E0
07C0
07C0
07C0
0780
0780
0780
0F00
0F00
0F00
0000
0000
0000
7F80
7F80
7F00
7F00
7F00
FF00
FF00
ENDCHAR
STARTCHAR 0022
ENCODING 34
SWIDTH 480 0
DWIDTH 24 0
BBX 19 13 9 23
BITMAP
7E07E0
7E07E0
7E07E0
7E07E0
FE0FE0
FC0FC0
FC0FC0
FC0FC0
F80F80
F80F80
F00F00
F00F00
600600
ENDCHAR
STARTCHAR 0023
ENCODING 35
SWIDTH 560 0
DWIDTH 28 0
BBX 31 35 2 -1
BITMAP
0003F07C
0003E0FC
0007E0F8
0007C1F8
000FC1F0
000F83F0
000F83E0
001F03E0
07FFFFFE
07FFFFFE
07FFFFFC
0FFFFFFC
0FFFFFFC
007C1F00
00FC1F00
00F83F00
01F83E00
01F07E00
03F07C00
03E0FC00
7FFFFFC0
7FFFFFC0
FFFFFFC0
FFFFFFC0
FFFFFFC0
0F83E000
1F03E000
1F07C000
3F07C000
3E0FC000
3E0F8000
7C1F8000
7C1F0000
FC1F0000
F83F0000
ENDCHAR
STARTCHAR 0024
ENCODING 36
SWIDTH 560 0
DWIDTH 28 0
BBX 29 44 2 -6
BITMAP
00003800
00003800
00003800
0007FF80
001FFFE0
007FFFF0
00FFFFF8
01FFFFF8
01FCF3F8
03F8F1F8
03F0E1F8
07F0E1F8
07F0E1F8
07F1E000
07F1C000
07F9C000
07FDC000
03FFC000
03FFF000
01FFFC00
00FFFF00
007FFF80
000FFFC0
0007FFC0
00077FC0
00073FE0
00071FE0
000F1FC0
FF0E1FC0
FF0E1FC0
FF0E3FC0
FF0E3F80
FF9E7F80
FFDDFF00
7FFFFE00
3FFFFC00
1FFFF800
0FFFE000
01FF0000
00380000
00380000
00780000
00780000
00700000
ENDCHAR
STARTCHAR 0025
ENCODING 37
SWIDTH 880 0
DWIDTH 44 0
BBX 39 36 6 -1
BITMAP
01FE0001E0
07FF0003C0
0FFF800780
1FFFC00700
3FFFE00F00
7F0FE01E00
7E07E03C00
7C03E03800
F803E07800
F803E0F000
F807C1E000
FC0FC3C000
FE3F83C000
7FFF878000
7FFF0F0000
3FFE1E0000
1FF81E0000
07E03C0000
0000780FC0
0000F03FF0
0000F0FFF8
0001E1FFFC
0003C3FFFC
000783F8FE
000707E07E
000F07C03E
001E0F803E
003C0F803E
00380F807C
00780FC0FC
00F00FE3F8
01E007FFF8
03C007FFF0
03C003FFE0
078001FF80
0F00007E00
ENDCHAR
STARTCHAR 0026
ENCODING 38
SWIDTH 720 0
DWIDTH 36 0
BBX 32 37 4 0
BITMAP
0001FF00
0007FFC0
001FFFC0
003FFFE0
003FFFE0
007F87E0
00FF07E0
00FF07E0
00FF07E0
00FF0FC0
00FF1FC0
00FFBF80
007FFF00
007FFE00
003FFC00
001FF000
007FF000
01FFF03F
03FFF83E
0FFFF87E
1FF3FC7E
3FE1FCFC
3F81FEFC
7F00FFF8
7F00FFF8
FF007FF0
FF007FE0
FF003FC0
FF003FC0
FF007FE0
FF81FFE0
7FFFFFF0
7FFFFFF0
3FFFF7F8
1FFFE3FC
0FFF83FC
03FC0000
ENDCHAR
STARTCHAR 0027
ENCODING 39
SWIDTH 240 0
DWIDTH 12 0
BBX 7 13 9 23
BITMAP
7E
7E
7E
7E
FE
FC
FC
FC
F8
F8
F0
F0
60
ENDCHAR
STARTCHAR 0028
ENCODING 40
SWIDTH 340 0
DWIDTH 17 0
BBX 18 46 4 -10
BITMAP
0007C0
000FC0
000F80
001F00
003F00
007E00
007C00
00FC00
01F800
01F000
03F000
07E000
07E000
0FC000
0FC000
1F8000
1F8000
3F0000
3F0000
3F0000
7E0000
7E0000
7E0000
7E0000
FC0000
FC0000
FC0000
FC0000
FC0000
FC0000
FC0000
FC0000
FC0000
FC0000
FC0000
FC0000
7C0000
7E0000
7E0000
7E0000
3E0000
3E0000
3F0000
1F0000
1F0000
1F8000
ENDCHAR
STARTCHAR 0029
ENCODING 41
SWIDTH 340 0
DWIDTH 17 0
BBX 18 46 0 -10
BITMAP
007E00
003E00
003E00
003F00
001F00
001F00
001F80
001F80
001F80
000F80
000FC0
000FC0
000FC0
000FC0
000FC0
000FC0
000FC0
000FC0
000FC0
000FC0
000FC0
001F80
001F80
001F80
001F80
001F80
003F00
003F00
003F00
007E00
007E00
00FC00
00FC00
01F800
01F800
03F000
03E000
07E000
0FC000
0F8000
1F8000
3F0000
3E0000
7C0000
FC0000
F80000
ENDCHAR
STARTCHAR 002A
ENCODING 42
SWIDTH 380 0
DWIDTH 19 0
BBX 17 16 7 20
BITMAP
00F000
00F000
00E000
00E000
31E100
7FEF80
7FFF80
FFFF80
1FFC00
07E000
0FF000
1FF000
3EF800
7C7800
387800
102000
ENDCHAR
STARTCHAR 002B
ENCODING 43
SWIDTH 580 0
DWIDTH 29 0
BBX 26 24 4 0
BITMAP
000FC000
000FC000
000FC000
000FC000
000FC000
001F8000
001F8000
001F8000
001F8000
7FFFFFC0
7FFFFFC0
7FFFFF80
7FFFFF80
7FFFFF80
FFFFFF80
007E0000
007E0000
007E0000
007E0000
007C0000
00FC0000
00FC0000
00FC0000
00FC0000
ENDCHAR
STARTCHAR 002C
ENCODING 44
SWIDTH 280 0
DWIDTH 14 0
BBX 11 16 1 -9
BITMAP
1FE0
1FE0
1FC0
1FC0
3FC0
3FC0
3FC0
0380
0380
0780
0700
0F00
1E00
7C00
F800
C000
ENDCHAR
STARTCHAR 002D
ENCODING 45
SWIDTH 340 0
DWIDTH 17 0
BBX 15 6 4 10
BITMAP
7FFE
7FFE
7FFC
7FFC
FFFC
FFFC
ENDCHAR
STARTCHAR 002E
ENCODING 46
SWIDTH 280 0
DWIDTH 14 0
BBX 9 7 3 0
BITMAP
7F80
7F80
7F00
7F00
7F00
FF00
FF00
ENDCHAR
STARTCHAR 002F
ENCODING 47
SWIDTH 280 0
DWIDTH 14 0
BBX 21 36 0 0
BITMAP
000038
000078
000070
0000F0
0000E0
0001E0
0001C0
0003C0
000380
000780
000700
000F00
000E00
001E00
001C00
003C00
003800
007800
007000
00F000
00E000
01E000
01C000
03C000
038000
078000
070000
0F0000
0E0000
1E0000
1C0000
3C0000
380000
780000
700000
F00000
ENDCHAR
STARTCHAR 0030
ENCODING 48
SWIDTH 560 0
DWIDTH 28 0
BBX 28 37 4 0
BITMAP
000FFC00
003FFF00
007FFF80
00FFFFC0
01FFFFE0
03FC3FE0
03F81FE0
07F00FE0
0FE00FF0
0FE00FF0
1FE00FF0
1FC00FE0
1FC00FE0
3FC00FE0
3F801FE0
3F801FE0
7F801FE0
7F801FE0
7F801FC0
7F001FC0
7F003FC0
FF003FC0
FF003F80
FF003F80
FF007F80
FF007F00
FF007F00
FF00FE00
FF01FE00
FF01FC00
FFC7FC00
7FFFF800
7FFFF000
3FFFE000
1FFFC000
0FFF0000
03FC0000
ENDCHAR
STARTCHAR 0031
ENCODING 49
SWIDTH 560 0
DWIDTH 28 0
BBX 17 35 9 0
BITMAP
000F80
000F80
001F80
003F80
00FF00
03FF00
FFFF00
FFFF00
FFFF00
FFFE00
FFFE00
00FE00
00FE00
01FC00
01FC00
01FC00
01FC00
01FC00
03F800
03F800
03F800
03F800
03F800
07F000
07F000
07F000
07F000
0FF000
0FE000
0FE000
0FE000
0FE000
1FC000
1FC000
1FC000
ENDCHAR
STARTCHAR 0032
ENCODING 50
SWIDTH 560 0
DWIDTH 28 0
BBX 30 36 2 1
BITMAP
0007FF00
001FFFC0
003FFFE0
007FFFF0
00FFFFF8
01FF0FF8
01FC07F8
03F803FC
03F803FC
03F003F8
07F003F8
07F003F8
000007F8
000007F0
00000FF0
00000FE0
00001FE0
00003FC0
0000FF80
0001FF00
0007FC00
000FF800
003FE000
00FFC000
01FF0000
03FE0000
07F80000
0FF00000
1FE00000
3FC00000
3FFFFF80
7FFFFF00
7FFFFF00
FFFFFF00
FFFFFF00
FFFFFF00
ENDCHAR
STARTCHAR 0033
ENCODING 51
SWIDTH 560 0
DWIDTH 28 0
BBX 28 37 3 0
BITMAP
000FFE00
003FFF80
00FFFFC0
01FFFFE0
01FFFFE0
03FC3FE0
07F81FF0
07F00FF0
07E00FE0
0FE00FE0
0FE00FE0
00001FE0
00001FC0
00007F80
0001FF00
000FFE00
000FFC00
000FFE00
001FFF00
001FFF80
0000FF80
00007F80
00003FC0
00003FC0
00003F80
00003F80
FF003F80
FF007F80
FF00FF80
FF01FF00
FFC7FE00
7FFFFE00
7FFFFC00
3FFFF800
1FFFF000
0FFFC000
03FE0000
ENDCHAR
STARTCHAR 0034
ENCODING 52
SWIDTH 560 0
DWIDTH 28 0
BBX 27 35 3 0
BITMAP
00001FE0
00003FE0
00007FE0
0000FFC0
0001FFC0
0003FFC0
0003DFC0
0007FF80
000FBF80
001F3F80
003E3F80
007C3F80
00787F00
00F87F00
01F07F00
03E07F00
07C0FE00
0F80FE00
1F80FE00
1F00FE00
3E00FE00
7FFFFFC0
7FFFFFC0
7FFFFFC0
FFFFFF80
FFFFFF80
FFFFFF80
0003F800
0003F800
0003F800
0007F000
0007F000
0007F000
0007F000
0007F000
ENDCHAR
STARTCHAR 0035
ENCODING 53
SWIDTH 560 0
DWIDTH 28 0
BBX 29 36 3 -1
BITMAP
003FFFF8
003FFFF8
007FFFF8
007FFFF0
00FFFFF0
00FFFFF0
00F80000
01F00000
01F00000
01F00000
03E00000
03E1C000
07EFF800
07FFFE00
07FFFF00
0FFFFF00
0FFFFF80
0FF0FF80
1FC07F80
1F803FC0
00003FC0
00003F80
00003F80
00003F80
00003F80
00007F80
FF007F00
FF00FF00
FF01FE00
FFC7FE00
FFFFFC00
7FFFF800
3FFFF000
1FFFE000
0FFF8000
03FC0000
ENDCHAR
STARTCHAR 0036
ENCODING 54
SWIDTH 560 0
DWIDTH 28 0
BBX 28 37 4 0
BITMAP
0007FF00
001FFF80
003FFFC0
00FFFFE0
01FFFFE0
01FE1FF0
03F80FF0
07F007F0
07E00000
0FE00000
0FC00000
1FC00000
1FC1E000
3F8FFC00
3FBFFE00
3FFFFF00
3FFFFF80
7FFFFF80
7FE0FF80
7FC07F80
7F803FC0
FF003FC0
FE003F80
FE003F80
FE003F80
FE007F80
FE007F00
FE00FF00
FE00FE00
FF01FE00
FF87FC00
7FFFFC00
7FFFF800
3FFFF000
1FFFC000
0FFF8000
01FC0000
ENDCHAR
STARTCHAR 0037
ENCODING 55
SWIDTH 560 0
DWIDTH 28 0
BBX 27 35 7 0
BITMAP
3FFFFFE0
3FFFFFE0
7FFFFFC0
7FFFFFC0
7FFFFFC0
7FFFFFC0
00003F80
00007F00
0000FE00
0001FC00
0003F800
0007F000
000FE000
001FC000
003F8000
003F0000
007F0000
00FE0000
01FC0000
01FC0000
03F80000
07F00000
07F00000
0FE00000
0FE00000
1FC00000
1FC00000
3F800000
3F800000
3F000000
7F000000
7F000000
FE000000
FE000000
FE000000
ENDCHAR
STARTCHAR 0038
ENCODING 56
SWIDTH 560 0
DWIDTH 28 0
BBX 28 37 3 0
BITMAP
0007FF00
001FFFC0
007FFFE0
00FFFFE0
01FFFFF0
03FE1FF0
03F807F0
07F003F0
07E003F0
07E003F0
07E003F0
07E007E0
07F00FC0
03FC7FC0
01FFFF00
00FFFE00
01FFFE00
03FFFF00
0FFFFF80
1FF07FC0
3FC03FC0
3F801FC0
7F801FE0
7F001FE0
FF001FC0
FF001FC0
FF003FC0
FF003FC0
FF007F80
FF80FF80
FFC3FF00
7FFFFE00
7FFFFC00
3FFFF800
1FFFF000
0FFFC000
01FE0000
ENDCHAR
STARTCHAR 0039
ENCODING 57
SWIDTH 560 0
DWIDTH 28 0
BBX 27 37 3 0
BITMAP
0007FC00
001FFF00
007FFF80
00FFFFC0
01FFFFC0
03FE3FE0
03FC0FE0
07F807E0
0FF007E0
0FE007E0
0FE007E0
1FE007E0
1FE007E0
1FE00FE0
1FE00FE0
1FE00FE0
1FE01FE0
1FE03FE0
1FF07FC0
0FFFFFC0
0FFFFFC0
07FFFFC0
03FFDF80
01FF3F80
003C3F80
00003F00
00007F00
00007E00
FF00FE00
FF01FC00
FFC7FC00
FFFFF800
7FFFF000
7FFFE000
3FFFC000
0FFF0000
03FC0000
ENDCHAR
STARTCHAR 003A
ENCODING 58
SWIDTH 340 0
DWIDTH 17 0
BBX 13 26 5 0
BITMAP
07F8
07F8
07F0
07F0
07F0
0FF0
0FF0
0000
0000
0000
0000
0000
0000
0000
0000
0000
0000
0000
0000
7F80
7F80
7F00
7F00
7F00
FF00
FF00
ENDCHAR
STARTCHAR 003B
ENCODING 59
SWIDTH 340 0
DWIDTH 17 0
BBX 15 35 3 -9
BITMAP
01FE
01FE
01FC
01FC
01FC
03FC
03FC
0000
0000
0000
0000
0000
0000
0000
0000
0000
0000
0000
0000
1FE0
1FE0
1FC0
1FC0
3FC0
3FC0
3FC0
0380
0380
0780
0700
0F00
1E00
7C00
F800
C000
ENDCHAR
STARTCHAR 003C
ENCODING 60
SWIDTH 580 0
DWIDTH 29 0
BBX 27 23 4 1
BITMAP
000000E0
000007E0
00003FE0
0001FFE0
000FFFC0
007FFFC0
01FFFF00
0FFFF800
7FFFC000
7FFE0000
7FF00000
FF800000
FFF00000
FFFE0000
FFFF8000
1FFFF000
07FFFE00
00FFFF00
003FFE00
000FFE00
0001FE00
00007E00
00000E00
ENDCHAR
STARTCHAR 003D
ENCODING 61
SWIDTH 580 0
DWIDTH 29 0
BBX 28 18 3 3
BITMAP
0FFFFFF0
1FFFFFF0
1FFFFFF0
1FFFFFE0
1FFFFFE0
1FFFFFE0
00000000
00000000
00000000
00000000
00000000
00000000
7FFFFF80
7FFFFF80
7FFFFF80
7FFFFF80
FFFFFF80
FFFFFF00
ENDCHAR
STARTCHAR 003E
ENCODING 62
SWIDTH 580 0
DWIDTH 29 0
BBX 27 23 2 0
BITMAP
0E000000
0FC00000
0FF00000
0FFE0000
0FFF8000
1FFFF000
0FFFFC00
01FFFF00
003FFFE0
000FFFE0
0001FFE0
00003FE0
0001FFC0
000FFFC0
007FFFC0
03FFFE00
1FFFF000
7FFFC000
7FFE0000
FFF00000
FF800000
FC000000
E0000000
ENDCHAR
STARTCHAR 003F
ENCODING 63
SWIDTH 620 0
DWIDTH 31 0
BBX 25 37 9 0
BITMAP
007FE000
01FFF800
07FFFC00
0FFFFE00
1FFFFE00
3FFFFF00
3FE1FF00
7F80FF00
7F007F80
FE007F80
FE007F00
FE007F00
00007F00
0000FF00
0000FE00
0001FE00
0007FC00
000FF800
001FF000
003FC000
007F8000
00FE0000
01FC0000
01F80000
03F80000
03F00000
03F00000
00000000
00000000
00000000
07F00000
0FF00000
0FF00000
0FE00000
0FE00000
0FE00000
1FE00000
ENDCHAR
STARTCHAR 0040
ENCODING 64
SWIDTH 980 0
DWIDTH 49 0
BBX 48 44 4 -7
BITMAP
000000FFF000
00000FFFFE00
00003FFFFF80
0000FFFFFFE0
0003FF007FF0
0007F8000FF8
001FE00007F8
003F800001FC
007F000000FE
00FE0000007E
01F80000007E
03F00038003E
07E003FE7C3F
07E00FFF781F
0FC03FFFF81F
1F807F0FF01F
1F00FC07F01F
3F01F807E01F
3E01F003E01F
3E03E007C01E
7C07C007C03E
7C07C007803E
7C0F800F807C
FC0F800F007C
F80F801F00F8
F81F001E01F8
F81F003E03F0
F81F807E07E0
F81F81FE0FC0
FC1FC7FF3F80
FC0FFFFFFF00
FC0FFFBFFE00
7E07FE1FF800
7E01F807E000
7F0000000000
3F8000000000
3FC000000000
1FE000000000
0FF8000E0000
07FF00FE0000
03FFFFFE0000
00FFFFFE0000
003FFFF80000
0007FF800000
ENDCHAR
STARTCHAR 0041
ENCODING 65
SWIDTH 720 0
DWIDTH 36 0
BBX 33 36 2 0
BITMAP
00001FF000
00001FF000
00003FF800
00003FF800
00007FF800
00007FF800
0000FFF800
0001FFF800
0001FFF800
0003FBFC00
0003FBFC00
0007F3FC00
0007F3FC00
000FE3FC00
001FC1FC00
001FC1FC00
003F81FC00
003F81FE00
007F01FE00
007F01FE00
00FE01FE00
01FE00FE00
01FC00FE00
03FFFFFE00
03FFFFFF00
07FFFFFF00
07FFFFFF00
0FFFFFFF00
0FFFFFFF00
1FE0007F00
3FC0007F00
3FC0007F80
7F80007F80
7F00007F80
FF00007F80
FE00007F80
ENDCHAR
STARTCHAR 0042
ENCODING 66
SWIDTH 720 0
DWIDTH 36 0
BBX 34 36 4 0
BITMAP
00FFFFF000
00FFFFFC00
01FFFFFE00
01FFFFFF00
01FFFFFF80
01FFFFFF80
03FC00FF80
03FC003FC0
03FC003FC0
03F8003F80
03F8003F80
07F8007F80
07F8007F00
07F003FE00
07FFFFFC00
07FFFFF800
0FFFFFF000
0FFFFFF800
0FFFFFFC00
0FFFFFFE00
1FE003FE00
1FE001FE00
1FC000FF00
1FC000FF00
1FC000FE00
3FC000FE00
3FC001FE00
3F8001FE00
3F8003FC00
7F801FFC00
7FFFFFF800
7FFFFFF000
7FFFFFE000
7FFFFFC000
FFFFFF0000
FFFFF80000
ENDCHAR
STARTCHAR 0043
ENCODING 67
SWIDTH 720 0
DWIDTH 36 0
BBX 35 37 5 0
BITMAP
0001FFE000
0007FFFC00
001FFFFE00
007FFFFF00
00FFFFFF80
01FFFFFFC0
03FF00FFC0
07FC003FC0
07F8003FC0
0FF0001FE0
1FE0001FE0
1FE0001FC0
3FC0000000
3FC0000000
3F80000000
7F80000000
7F80000000
7F00000000
7F00000000
FF00000000
FF00000000
FF00000000
FF00000000
FF00000000
FF0000FF00
FF0000FE00
FF0001FE00
FF0003FC00
7F8007FC00
7FC00FF800
7FF87FF800
3FFFFFF000
1FFFFFE000
0FFFFF8000
07FFFF0000
03FFFC0000
007FE00000
ENDCHAR
STARTCHAR 0044
ENCODING 68
SWIDTH 720 0
DWIDTH 36 0
BBX 35 36 4 0
BITMAP
01FFFFE000
01FFFFF800
01FFFFFE00
01FFFFFF00
01FFFFFF80
03FFFFFF80
03FC03FFC0
03FC007FC0
03F8003FC0
03F8003FC0
07F8001FC0
07F8001FE0
07F0001FE0
07F0001FE0
0FF0001FC0
0FF0001FC0
0FF0001FC0
0FE0001FC0
0FE0003FC0
1FE0003FC0
1FE0003F80
1FC0007F80
1FC0007F80
1FC0007F00
3FC000FF00
3FC000FE00
3F8001FE00
3F8003FC00
7F800FFC00
7F807FF800
7FFFFFF000
7FFFFFE000
7FFFFFC000
FFFFFF0000
FFFFFC0000
FFFFE00000
ENDCHAR
STARTCHAR 0045
ENCODING 69
SWIDTH 660 0
DWIDTH 33 0
BBX 34 36 4 0
BITMAP
00FFFFFFC0
01FFFFFFC0
01FFFFFFC0
01FFFFFF80
01FFFFFF80
01FFFFFF80
03FC000000
03FC000000
03F8000000
03F8000000
07F8000000
07F8000000
07F0000000
07F0000000
07FFFFFC00
0FFFFFF800
0FFFFFF800
0FFFFFF800
0FFFFFF800
1FFFFFF000
1FE0000000
1FE0000000
1FC0000000
1FC0000000
3FC0000000
3FC0000000
3F80000000
3F80000000
3F80000000
7F80000000
7FFFFFF000
7FFFFFF000
7FFFFFF000
FFFFFFF000
FFFFFFE000
FFFFFFE000
ENDCHAR
STARTCHAR 0046
ENCODING 70
SWIDTH 620 0
DWIDTH 31 0
BBX 33 36 4 0
BITMAP
01FFFFFF80
01FFFFFF80
01FFFFFF80
01FFFFFF00
03FFFFFF00
03FFFFFF00
03FC000000
03F8000000
03F8000000
07F8000000
07F8000000
07F0000000
07F0000000
07F0000000
0FFFFFF000
0FFFFFF000
0FFFFFE000
0FFFFFE000
1FFFFFE000
1FFFFFE000
1FE0000000
1FC0000000
1FC0000000
3FC0000000
3FC0000000
3F80000000
3F80000000
3F80000000
7F80000000
7F80000000
7F00000000
7F00000000
FF00000000
FF00000000
FF00000000
FE00000000
ENDCHAR
STARTCHAR 0047
ENCODING 71
SWIDTH 780 0
DWIDTH 39 0
BBX 36 37 5 0
BITMAP
0000FFF000
0007FFFC00
001FFFFF00
003FFFFF80
00FFFFFFC0
01FFFFFFC0
03FF007FE0
03FC001FE0
07F8000FE0
0FF0000FF0
0FE00007F0
1FE0000000
1FC0000000
3FC0000000
3F80000000
7F80000000
7F00000000
7F000FFFE0
7F000FFFC0
FF001FFFC0
FF001FFFC0
FF001FFFC0
FF001FFFC0
FF00001F80
FF00003F80
FF00003F80
FF80007F80
FF8000FF00
7FC001FF00
7FE003FF00
3FFC1FFF00
3FFFFFFF00
1FFFFFBE00
0FFFFF3E00
07FFFE3E00
01FFF83E00
003FE00000
ENDCHAR
STARTCHAR 0048
ENCODING 72
SWIDTH 720 0
DWIDTH 36 0
BBX 36 36 4 0
BITMAP
01FE0007F0
01FC0007F0
01FC0007F0
03FC000FF0
03FC000FF0
03F8000FE0
03F8000FE0
03F8001FE0
07F8001FE0
07F8001FE0
07F0001FC0
07F0001FC0
0FF0003FC0
0FF0003FC0
0FFFFFFF80
0FFFFFFF80
0FFFFFFF80
1FFFFFFF80
1FFFFFFF80
1FFFFFFF00
1FC0007F00
1FC000FF00
3FC000FF00
3FC000FF00
3F8000FE00
3F8000FE00
7F8001FE00
7F8001FE00
7F0001FC00
7F0001FC00
7F0001FC00
FF0003FC00
FF0003FC00
FE0003F800
FE0003F800
FE0007F800
ENDCHAR
STARTCHAR 0049
ENCODING 73
SWIDTH 280 0
DWIDTH 14 0
BBX 15 36 3 0
BITMAP
00FE
01FE
01FE
01FE
01FC
01FC
03FC
03FC
03F8
03F8
03F8
07F8
07F8
07F0
07F0
0FF0
0FF0
0FE0
0FE0
0FE0
1FE0
1FE0
1FC0
1FC0
3FC0
3FC0
3FC0
3F80
3F80
7F80
7F80
7F00
7F00
7F00
FF00
FF00
ENDCHAR
STARTCHAR 004A
ENCODING 74
SWIDTH 560 0
DWIDTH 28 0
BBX 29 37 3 -1
BITMAP
000007F8
000007F8
000007F0
000007F0
000007F0
00000FF0
00000FF0
00000FE0
00000FE0
00000FE0
00001FE0
00001FE0
00001FC0
00001FC0
00003FC0
00003FC0
00003FC0
00003F80
00003F80
00007F80
00007F80
00007F00
00007F00
7F007F00
7F00FF00
FF00FF00
FF00FE00
FF00FE00
FF01FE00
FF03FC00
FF87FC00
FFFFF800
7FFFF800
7FFFF000
3FFFE000
1FFF8000
07FC0000
ENDCHAR
STARTCHAR 004B
ENCODING 75
SWIDTH 720 0
DWIDTH 36 0
BBX 38 36 4 0
BITMAP
01FE0007FC
01FE000FF0
01FC003FE0
01FC007FC0
03FC00FF80
03FC01FF00
03FC03FE00
03F807FC00
03F80FF000
07F81FE000
07F87FC000
07F0FF8000
07F1FF0000
07F3FE0000
0FF7FC0000
0FFFF00000
0FFFF80000
0FFFF80000
1FFFFC0000
1FFFFC0000
1FFFFE0000
1FF9FE0000
1FF1FF0000
3FE0FF8000
3FC0FF8000
3F807FC000
3F803FC000
3F803FE000
7F801FE000
7F801FF000
7F000FF800
7F000FF800
FF0007FC00
FF0003FC00
FF0003FE00
FE0001FF00
ENDCHAR
STARTCHAR 004C
ENCODING 76
SWIDTH 620 0
DWIDTH 31 0
BBX 26 36 4 0
BITMAP
00FE0000
01FE0000
01FE0000
01FE0000
01FC0000
01FC0000
03FC0000
03FC0000
03F80000
03F80000
03F80000
07F80000
07F80000
07F00000
07F00000
0FF00000
0FF00000
0FE00000
0FE00000
0FE00000
1FE00000
1FE00000
1FC00000
1FC00000
3FC00000
3FC00000
3FC00000
3F800000
3F800000
7F800000
7FFFFFC0
7FFFFFC0
7FFFFFC0
7FFFFF80
FFFFFF80
FFFFFF80
ENDCHAR
STARTCHAR 004D
ENCODING 77
SWIDTH 840 0
DWIDTH 42 0
BBX 43 36 3 0
BITMAP
00FFE000FFE0
00FFE000FFE0
01FFE001FFE0
01FFE001FFE0
01FFE003FFE0
01FFE003FFC0
01FFE007FFC0
03FBE007DFC0
03FBE00FDFC0
03FBE00FFF80
03FBE00FBF80
03FBE01FBF80
07F3E01F3F80
07F3E03F3F80
07F3E03E7F00
07F3E07E7F00
0FF3E07C7F00
0FE3E0FC7F00
0FE3E0FC7F00
0FE3E1F8FE00
0FE3E1F8FE00
1FE3E3F0FE00
1FC3E3F0FE00
1FC3E7E1FC00
1FC3E7E1FC00
1FC3F7C1FC00
3F83FFC1FC00
3F83FF81FC00
3F83FF83F800
3F83FF83F800
7F83FF03F800
7F03FF03F800
7F03FE07F000
7F03FE07F000
7F03FC07F000
FF03FC07F000
ENDCHAR
STARTCHAR 004E
ENCODING 78
SWIDTH 720 0
DWIDTH 36 0
BBX 37 36 4 0
BITMAP
01FE0003F8
01FE0007F0
01FF0007F0
03FF0007F0
03FF0007F0
03FF8007F0
03FF800FE0
03FFC00FE0
07FFC00FE0
07FFC00FE0
07FFE01FC0
07F7E01FC0
0FE7E01FC0
0FE7F01FC0
0FE3F01FC0
0FE3F83F80
0FE3F83F80
1FC1F83F80
1FC1FC3F80
1FC0FC3F80
1FC0FC7F00
1FC0FE7F00
3F807E7F00
3F807F7F00
3F807FFF00
3F803FFE00
7F003FFE00
7F001FFE00
7F001FFE00
7F001FFC00
7F000FFC00
FE000FFC00
FE000FFC00
FE0007FC00
FE0007F800
FE0007F800
ENDCHAR
STARTCHAR 004F
ENCODING 79
SWIDTH 780 0
DWIDTH 39 0
BBX 37 37 5 0
BITMAP
0001FFF000
0007FFFC00
001FFFFF00
003FFFFF80
00FFFFFFC0
01FFFFFFC0
03FF807FE0
03FE003FF0
07F8001FF0
0FF0000FF0
0FE0000FF0
1FE00007F0
1FC00007F8
3FC00007F8
3F800007F8
7F800007F0
7F000007F0
7F000007F0
FF00000FF0
FF00000FF0
FF00000FF0
FF00000FE0
FF00001FE0
FF00001FC0
FF00003FC0
FF00003F80
FF00007F80
7F8000FF00
7FC001FE00
7FE007FE00
3FFC3FFC00
3FFFFFF800
1FFFFFF000
0FFFFFC000
07FFFF8000
01FFFE0000
003FE00000
ENDCHAR
STARTCHAR 0050
ENCODING 80
SWIDTH 660 0
DWIDTH 33 0
BBX 34 36 4 0
BITMAP
01FFFFE000
01FFFFFC00
01FFFFFE00
01FFFFFF00
01FFFFFF80
03FFFFFF80
03FC01FF80
03F8007F80
03F8003FC0
07F8003FC0
07F8003F80
07F8003F80
07F0003F80
07F0007F80
0FF0007F00
0FF000FF00
0FF003FE00
0FFFFFFE00
0FFFFFFC00
1FFFFFF800
1FFFFFF000
1FFFFFC000
1FFFFF0000
3FC0000000
3FC0000000
3FC0000000
3F80000000
3F80000000
7F80000000
7F80000000
7F00000000
7F00000000
7F00000000
FF00000000
FF00000000
FE00000000
ENDCHAR
STARTCHAR 0051
ENCODING 81
SWIDTH 780 0
DWIDTH 39 0
BBX 37 38 5 -2
BITMAP
0001FFF000
0007FFFC00
001FFFFF00
003FFFFF80
00FFFFFFC0
01FFFFFFC0
03FF807FE0
03FE003FE0
07F8001FF0
0FF0000FF0
0FE0000FF0
1FE00007F0
1FC00007F8
3FC00007F8
3F800007F8
7F800007F0
7F000007F0
7F000007F0
FF00000FF0
FF00000FF0
FF00000FE0
FF00000FE0
FF00041FE0
FF000E1FC0
FF001F3FC0
FF003FFF80
FF007FFF80
7F803FFF00
7FC01FFE00
7FE00FFE00
3FF83FFC00
3FFFFFFC00
1FFFFFFE00
0FFFFFFF00
07FFFFFF00
01FFFC7E00
003FE03C00
0000001800
ENDCHAR
STARTCHAR 0052
ENCODING 82
SWIDTH 720 0
DWIDTH 36 0
BBX 36 36 4 0
BITMAP
00FFFFFC00
01FFFFFF00
01FFFFFFC0
01FFFFFFC0
01FFFFFFE0
01FFFFFFE0
03FC007FE0
03FC001FF0
03F8000FF0
03F8000FE0
07F8000FE0
07F8000FE0
07F8001FC0
07F0001FC0
07F0003F80
0FF000FF00
0FFFFFFE00
0FFFFFFC00
0FFFFFF000
0FFFFFF000
1FFFFFFC00
1FFFFFFE00
1FC003FE00
1FC000FF00
3FC000FE00
3FC000FE00
3FC000FE00
3F8001FE00
3F8001FE00
7F8001FC00
7F8001FC00
7F0003FC00
7F0003FC00
7F0003FC00
FF0003FC00
FF0003FC00
ENDCHAR
STARTCHAR 0053
ENCODING 83
SWIDTH 660 0
DWIDTH 33 0
BBX 33 37 4 0
BITMAP
0007FFE000
001FFFF800
007FFFFC00
00FFFFFE00
01FFFFFF00
03FFFFFF00
03FE01FF00
07F800FF80
07F0007F80
0FF0007F00
0FF0007F00
0FF0000000
0FF0000000
0FFC000000
0FFFC00000
07FFFE0000
07FFFFC000
03FFFFF000
00FFFFF800
003FFFFC00
0001FFFC00
00001FFC00
000003FE00
000001FE00
000001FC00
FF0001FC00
FF0001FC00
FF0003FC00
FF0003F800
FF800FF800
7FF07FF000
7FFFFFF000
3FFFFFE000
1FFFFFC000
0FFFFF0000
07FFFC0000
00FFE00000
ENDCHAR
STARTCHAR 0054
ENCODING 84
SWIDTH 620 0
DWIDTH 31 0
BBX 31 36 7 0
BITMAP
7FFFFFFE
7FFFFFFC
7FFFFFFC
7FFFFFFC
FFFFFFFC
FFFFFFF8
001FE000
001FC000
001FC000
001FC000
003FC000
003FC000
003F8000
003F8000
007F8000
007F8000
007F0000
007F0000
007F0000
00FF0000
00FF0000
00FE0000
00FE0000
01FE0000
01FE0000
01FE0000
01FC0000
01FC0000
03FC0000
03FC0000
03F80000
03F80000
07F80000
07F80000
07F80000
07F00000
ENDCHAR
STARTCHAR 0055
ENCODING 85
SWIDTH 720 0
DWIDTH 36 0
BBX 34 37 6 -1
BITMAP
07F8001FC0
07F8001FC0
07F8003FC0
07F0003FC0
07F0003F80
0FF0003F80
0FF0003F80
0FE0007F80
0FE0007F80
0FE0007F00
1FE0007F00
1FE000FF00
1FC000FF00
1FC000FF00
3FC000FE00
3FC000FE00
3FC001FE00
3F8001FE00
3F8001FC00
7F8001FC00
7F8001FC00
7F0003FC00
7F0003FC00
7F0003F800
FF0003F800
FF0007F800
FF0007F800
FF0007F000
FF000FF000
FF801FE000
FFE0FFE000
7FFFFFC000
7FFFFF8000
3FFFFF0000
1FFFFC0000
07FFF00000
00FF800000
ENDCHAR
STARTCHAR 0056
ENCODING 86
SWIDTH 660 0
DWIDTH 33 0
BBX 31 36 9 0
BITMAP
FF0001FE
FF0001FC
FF0003FC
FF0003F8
7F0007F8
7F0007F0
7F000FE0
7F000FE0
7F001FC0
7F001FC0
7F003F80
7F003F80
3F807F00
3F807F00
3F80FE00
3F80FC00
3F81FC00
3F81F800
3F83F800
1F83F000
1F87F000
1F87E000
1F8FE000
1F8FC000
1FDF8000
1FDF8000
1FFF0000
0FFF0000
0FFE0000
0FFE0000
0FFC0000
0FFC0000
0FF80000
0FF00000
0FF00000
07E00000
ENDCHAR
STARTCHAR 0057
ENCODING 87
SWIDTH 940 0
DWIDTH 47 0
BBX 46 36 8 0
BITMAP
FF001FF003FC
FF001FF003FC
FF003FF003F8
FF003FF007F8
FF007FF007F0
FF007FF00FF0
FF007FF00FE0
7F00FFF00FE0
7F00FFF01FC0
7F01FBF01FC0
7F01FBF03F80
7F03F3F03F80
7E03F3F07F00
7E07F3E07F00
7E07E3E07E00
7E07E3E0FE00
7E0FC3E0FC00
7E0FC3E1FC00
7E1F83E1F800
7E1F83E1F800
7E3F03E3F000
7E3F03E3F000
3E7E03E7E000
3E7E03E7E000
3EFC03EFC000
3EFC03EFC000
3EF803EF8000
3FF803FF8000
3FF803FF0000
3FF003FF0000
3FF003FE0000
3FE003FE0000
3FE003FC0000
3FC003FC0000
3FC003FC0000
3F8003F80000
ENDCHAR
STARTCHAR 0058
ENCODING 88
SWIDTH 660 0
DWIDTH 33 0
BBX 38 36 2 0
BITMAP
00FF0007FC
00FF800FF8
00FF801FF0
007F801FE0
007FC03FC0
003FC07F80
003FC0FF80
003FE1FF00
001FE1FE00
001FE3FC00
000FF7F800
000FFFF000
000FFFE000
0007FFE000
0007FFC000
0003FF8000
0003FF0000
0003FE0000
0003FE0000
0007FF0000
000FFF0000
001FFF8000
001FFF8000
003FFF8000
007FBFC000
00FF3FC000
01FE3FE000
03FC1FE000
07FC1FF000
07F81FF000
0FF00FF000
1FE00FF800
3FE007F800
7FC007FC00
FF8007FC00
FF0003FE00
ENDCHAR
STARTCHAR 0059
ENCODING 89
SWIDTH 660 0
DWIDTH 33 0
BBX 31 36 9 0
BITMAP
FF8001FE
7F8003FC
7F8007F8
7F8007F8
3FC00FF0
3FC01FE0
3FC01FE0
1FC03FC0
1FE07F80
1FE07F00
1FE0FF00
0FE1FE00
0FF1FC00
0FF3F800
07F7F800
07FFF000
07FFE000
03FFC000
03FFC000
03FF8000
01FF0000
01FF0000
01FE0000
01FE0000
01FC0000
01FC0000
03FC0000
03FC0000
03FC0000
03F80000
03F80000
07F80000
07F80000
07F00000
07F00000
07F00000
ENDCHAR
STARTCHAR 005A
ENCODING 90
SWIDTH 620 0
DWIDTH 31 0
BBX 35 36 2 0
BITMAP
01FFFFFFE0
01FFFFFFC0
01FFFFFFC0
03FFFFFFC0
03FFFFFFC0
03FFFFFF80
000000FF80
000001FF00
000003FE00
000007FC00
00000FF800
00001FF000
00003FE000
00007FC000
0000FF8000
0001FF0000
0003FE0000
0007FC0000
000FF80000
001FF00000
003FE00000
007FC00000
00FF800000
01FF000000
03FE000000
07FC000000
0FF8000000
1FF0000000
3FE0000000
7FC0000000
7FFFFFF000
FFFFFFF000
FFFFFFF000
FFFFFFE000
FFFFFFE000
FFFFFFE000
ENDCHAR
STARTCHAR 005B
ENCODING 91
SWIDTH 340 0
DWIDTH 17 0
BBX 22 46 1 -10
BITMAP
003FFC
003FFC
003FFC
007FF8
007FF8
007E00
007E00
00FE00
00FE00
00FC00
00FC00
00FC00
01FC00
01FC00
01F800
01F800
01F800
03F800
03F800
03F000
03F000
07F000
07F000
07E000
07E000
07E000
0FE000
0FE000
0FC000
0FC000
1FC000
1FC000
1F8000
1F8000
1F8000
3F8000
3F8000
3F0000
3F0000
3F0000
7F0000
7FF800
7FF800
7FF800
FFF800
FFF000
ENDCHAR
STARTCHAR 005C
ENCODING 92
SWIDTH 280 0
DWIDTH 14 0
BBX 7 39 7 -1
BITMAP
80
E0
F0
F0
F0
70
70
70
70
78
78
78
78
78
78
38
38
38
38
3C
3C
3C
3C
3C
3C
1C
1C
1C
1C
1E
1E
1E
1E
1E
1E
0E
0E
0E
0E
ENDCHAR
STARTCHAR 005D
ENCODING 93
SWIDTH 340 0
DWIDTH 17 0
BBX 22 46 -1 -10
BITMAP
003FFC
007FFC
007FF8
007FF8
007FF8
0003F8
0003F0
0003F0
0003F0
0007F0
0007F0
0007E0
0007E0
0007E0
000FE0
000FE0
000FC0
000FC0
001FC0
001FC0
001F80
001F80
001F80
003F80
003F80
003F00
003F00
007F00
007F00
007E00
007E00
007E00
00FE00
00FE00
00FC00
00FC00
00FC00
01FC00
01FC00
01F800
01F800
7FF800
7FF800
FFF000
FFF000
FFF000
ENDCHAR
STARTCHAR 005E
ENCODING 94
SWIDTH 580 0
DWIDTH 29 0
BBX 22 21 7 14
BITMAP
000FC0
001FC0
003FC0
003FE0
007FE0
007FE0
00FFE0
01FBE0
01F3F0
03F3F0
03E3F0
07C3F0
0FC1F0
0F81F0
1F81F8
1F01F8
3F01F8
7E00F8
7C00F8
FC00FC
F800FC
ENDCHAR
STARTCHAR 005F
ENCODING 95
SWIDTH 560 0
DWIDTH 28 0
BBX 30 4 -3 -10
BITMAP
FFFFFFFC
FFFFFFFC
FFFFFFFC
FFFFFFFC
ENDCHAR
STARTCHAR 0060
ENCODING 96
SWIDTH 340 0
DWIDTH 17 0
BBX 7 8 9 30
BITMAP
F8
7C
7C
3C
3E
1E
0E
0E
ENDCHAR
STARTCHAR 0061
ENCODING 97
SWIDTH 560 0
DWIDTH 28 0
BBX 27 28 3 0
BITMAP
003FFE00
00FFFF00
01FFFF80
03FFFFC0
07FFFFC0
07F87FE0
0FE01FC0
0FC01FC0
00001FC0
00003FC0
0001FF80
007FFF80
03FFFF80
0FFFFF80
1FFFBF00
3FF07F00
3F807F00
7F007F00
7F00FF00
FF00FE00
FF01FE00
FF03FE00
FFFFFE00
FFFFFE00
7FFFFE00
7FFDFE00
1FF1FF00
0FC00000
ENDCHAR
STARTCHAR 0062
ENCODING 98
SWIDTH 620 0
DWIDTH 31 0
BBX 30 37 3 -1
BITMAP
00FE0000
01FC0000
01FC0000
01FC0000
01FC0000
01FC0000
03F80000
03F80000
03F80000
03F8FF80
07F3FFC0
07F7FFE0
07FFFFF0
07FFFFF0
07FF1FF8
0FFC07F8
0FF807F8
0FF003F8
0FE003FC
1FE003FC
1FC003F8
1FC003F8
1FC003F8
1FC003F8
3FC007F8
3FC007F0
3FC00FF0
3FC00FF0
3FC01FE0
7FE03FC0
7FE07FC0
7FFFFF80
7FFFFF00
FEFFFE00
FEFFFC00
FE7FF000
001FC000
ENDCHAR
STARTCHAR 0063
ENCODING 99
SWIDTH 560 0
DWIDTH 28 0
BBX 27 28 4 0
BITMAP
001FF800
00FFFE00
01FFFF00
03FFFF80
07FFFFC0
0FF87FC0
1FE03FC0
1FC01FE0
3FC01FC0
3F800000
7F800000
7F000000
7F000000
7F000000
FF000000
FF000000
FF000000
FF000000
FF007F80
FF007F00
FF00FF00
7F81FE00
7FFFFC00
7FFFFC00
3FFFF800
1FFFE000
0FFFC000
01FE0000
ENDCHAR
STARTCHAR 0064
ENCODING 100
SWIDTH 620 0
DWIDTH 31 0
BBX 31 37 4 -1
BITMAP
000000FE
000000FE
000001FC
000001FC
000001FC
000001FC
000001FC
000003F8
000003F8
003FE3F8
00FFF3F8
01FFFBF8
03FFFFF0
07FFFFF0
0FFC7FF0
1FF03FF0
1FE01FE0
3FC00FE0
3F800FE0
7F800FE0
7F000FE0
7F000FC0
FF000FC0
FF001FC0
FF001FC0
FF001FC0
FF003F80
FF003F80
FF007F80
FF00FF80
FF81FF00
7FFFFF00
7FFFFF00
3FFFFF00
1FFF7F00
0FFCFE00
03F00000
ENDCHAR
STARTCHAR 0065
ENCODING 101
SWIDTH 560 0
DWIDTH 28 0
BBX 27 28 3 0
BITMAP
003FF800
00FFFE00
01FFFF00
03FFFF80
07FFFF80
0FF87FC0
1FE03FC0
1FC01FC0
3FC01FC0
3F801FE0
7F801FE0
7FFFFFC0
7FFFFFC0
7FFFFFC0
FFFFFFC0
FFFFFFC0
FF000000
FF000000
FF000000
FF007F00
FF007F00
7F81FE00
7FFFFC00
3FFFFC00
3FFFF800
1FFFE000
07FFC000
01FE0000
ENDCHAR
STARTCHAR 0066
ENCODING 102
SWIDTH 340 0
DWIDTH 17 0
BBX 18 36 5 0
BITMAP
001FC0
007FC0
00FFC0
01FFC0
03FF80
03FC00
03F800
03F800
07F000
7FFF00
7FFF00
7FFF00
7FFF00
FFFE00
0FE000
0FE000
0FE000
1FC000
1FC000
1FC000
1FC000
1FC000
3F8000
3F8000
3F8000
3F8000
7F8000
7F0000
7F0000
7F0000
7F0000
FE0000
FE0000
FE0000
FE0000
FE0000
ENDCHAR
STARTCHAR 0067
ENCODING 103
SWIDTH 620 0
DWIDTH 31 0
BBX 31 38 2 -10
BITMAP
000FF0FE
003FFCFC
007FFCFC
00FFFFFC
01FFFFFC
03FF1FFC
07FC0FF8
07F807F8
0FF003F8
0FE003F8
1FE003F8
1FE003F0
1FC003F0
1FC003F0
3FC003F0
3FC007E0
3FC007E0
3FC00FE0
3FC00FE0
3FC01FE0
3FC03FC0
3FE07FC0
1FFFFFC0
1FFFFFC0
0FFFFFC0
07FF9F80
03FF3F80
00FC3F80
00003F80
00003F00
FE007F00
FE00FE00
FF01FE00
FFFFFC00
FFFFF800
7FFFF000
3FFFC000
07FE0000
ENDCHAR
STARTCHAR 0068
ENCODING 104
SWIDTH 620 0
DWIDTH 31 0
BBX 29 36 3 0
BITMAP
00FE0000
00FE0000
00FE0000
01FC0000
01FC0000
01FC0000
01FC0000
03F80000
03F80000
03F87F80
03F9FFE0
03FBFFF0
07F7FFF0
07FFFFF0
07FF1FF8
07FC0FF8
07F807F0
0FF007F0
0FE007F0
0FE007F0
0FE007F0
1FC00FE0
1FC00FE0
1FC00FE0
1FC00FE0
1FC00FE0
3F801FC0
3F801FC0
3F801FC0
3F801FC0
3F801FC0
7F003F80
7F003F80
7F003F80
7F003F80
FE007F00
ENDCHAR
STARTCHAR 0069
ENCODING 105
SWIDTH 280 0
DWIDTH 14 0
BBX 15 36 3 0
BITMAP
00FE
01FC
01FC
01FC
01FC
01FC
0000
0000
0000
03F8
07F8
07F0
07F0
07F0
07F0
0FE0
0FE0
0FE0
0FE0
0FE0
1FC0
1FC0
1FC0
1FC0
3F80
3F80
3F80
3F80
3F80
7F00
7F00
7F00
7F00
7F00
FE00
FE00
ENDCHAR
STARTCHAR 006A
ENCODING 106
SWIDTH 280 0
DWIDTH 14 0
BBX 20 47 -2 -11
BITMAP
0007F0
0007F0
0007F0
000FF0
000FE0
000FE0
000000
000000
000000
001FC0
001FC0
001FC0
001FC0
003F80
003F80
003F80
003F80
003F80
007F00
007F00
007F00
007F00
00FE00
00FE00
00FE00
00FE00
00FE00
01FC00
01FC00
01FC00
01FC00
01FC00
03F800
03F800
03F800
03F800
07F800
07F000
07F000
07F000
0FF000
7FE000
7FE000
7FE000
FFC000
FF8000
FC0000
ENDCHAR
STARTCHAR 006B
ENCODING 107
SWIDTH 560 0
DWIDTH 28 0
BBX 29 36 3 0
BITMAP
00FE0000
01FC0000
01FC0000
01FC0000
01FC0000
01FC0000
03F80000
03F80000
03F80000
03F807F8
07F00FF0
07F01FE0
07F03FC0
07F07F00
07F0FE00
0FE1FC00
0FE3F800
0FE7F000
0FEFE000
1FFFC000
1FFFC000
1FFFE000
1FFFE000
1FFFF000
3FFFF000
3FE7F000
3FC7F800
3F87F800
3F83FC00
7F03FC00
7F03FC00
7F01FE00
7F01FE00
FF01FE00
FE00FF00
FE00FF00
ENDCHAR
STARTCHAR 006C
ENCODING 108
SWIDTH 280 0
DWIDTH 14 0
BBX 15 36 3 0
BITMAP
00FE
01FC
01FC
01FC
01FC
01FC
03F8
03F8
03F8
03F8
07F8
07F0
07F0
07F0
07F0
0FE0
0FE0
0FE0
0FE0
0FE0
1FC0
1FC0
1FC0
1FC0
3F80
3F80
3F80
3F80
3F80
7F00
7F00
7F00
7F00
7F00
FE00
FE00
ENDCHAR
STARTCHAR 006D
ENCODING 109
SWIDTH 880 0
DWIDTH 44 0
BBX 43 27 3 1
BITMAP
03F8FF01FF00
07F1FF87FF80
07F7FFCFFFC0
07FFFFDFFFC0
07FFFFFFFFC0
07FE3FFC3FE0
0FF81FF01FE0
0FF01FE01FC0
0FE01FE01FC0
0FE01FC01FC0
1FE01FC01FC0
1FC01FC01FC0
1FC01FC03F80
1FC01FC03F80
1FC03F803F80
3F803F803F80
3F803F803F80
3F803F807F00
3F807F007F00
3F807F007F00
7F007F007F00
7F007F00FE00
7F007F00FE00
7F00FE00FE00
7F00FE00FE00
FE00FE00FE00
FE00FE01FC00
ENDCHAR
STARTCHAR 006E
ENCODING 110
SWIDTH 620 0
DWIDTH 31 0
BBX 29 27 3 1
BITMAP
03F8FF80
03F9FFE0
07F3FFF0
07F7FFF0
07FFFFF0
07FF1FF8
07F80FF8
0FF007F0
0FF007F0
0FE007F0
0FE007F0
1FC007F0
1FC00FE0
1FC00FE0
1FC00FE0
1FC00FE0
3F800FE0
3F801FC0
3F801FC0
3F801FC0
3F801FC0
7F001FC0
7F003F80
7F003F80
7F003F80
FE003F80
FE007F00
ENDCHAR
STARTCHAR 006F
ENCODING 111
SWIDTH 620 0
DWIDTH 31 0
BBX 29 28 4 0
BITMAP
001FFE00
007FFF80
01FFFFC0
03FFFFE0
07FFFFE0
0FFC3FF0
1FF01FF0
1FE00FF0
3FC007F0
3F8007F8
7F8007F8
7F0007F0
7F0007F0
FF0007F0
FF000FF0
FF000FF0
FF000FE0
FF001FE0
FF001FE0
FF003FC0
FF807F80
7FC0FF80
7FFFFF00
7FFFFE00
3FFFFC00
1FFFF000
07FFE000
01FF0000
ENDCHAR
STARTCHAR 0070
ENCODING 112
SWIDTH 620 0
DWIDTH 31 0
BBX 32 38 1 -10
BITMAP
01FC3FE0
01FCFFF0
01FDFFF8
01FFFFFC
01FFFFFC
03FFC7FE
03FF01FE
03FE01FE
03FC00FE
03F800FF
07F800FF
07F800FE
07F000FE
07F000FE
07F000FE
0FF001FE
0FF001FE
0FF003FC
0FF003FC
1FF007F8
1FF80FF8
1FF81FF0
1FFFFFE0
1FFFFFC0
3FBFFF80
3FBFFF00
3F9FFE00
3F87F000
3F800000
7F000000
7F000000
7F000000
7F000000
FF000000
FE000000
FE000000
FE000000
FE000000
ENDCHAR
STARTCHAR 0071
ENCODING 113
SWIDTH 620 0
DWIDTH 31 0
BBX 29 38 4 -10
BITMAP
003FC3F8
00FFF3F8
01FFF7F0
03FFFFF0
07FFFFF0
0FFC7FF0
1FF01FF0
1FE01FE0
3FC00FE0
3F800FE0
7F800FE0
7F000FE0
7F000FC0
FF000FC0
FF000FC0
FF001FC0
FF001F80
FF003F80
FF003F80
FF007F80
FF80FF80
FF81FF00
7FFFFF00
7FFFFF00
3FFF7F00
1FFE7F00
0FFCFE00
03F0FE00
0000FE00
0000FE00
0001FE00
0001FC00
0001FC00
0001FC00
0001FC00
0003F800
0003F800
0003F800
ENDCHAR
STARTCHAR 0072
ENCODING 114
SWIDTH 380 0
DWIDTH 19 0
BBX 21 27 3 1
BITMAP
03F878
03F9F8
07F3F8
07F7F8
07FFF0
07FFF0
07FFB0
0FF800
0FF000
0FE000
0FE000
1FE000
1FC000
1FC000
1FC000
1FC000
3F8000
3F8000
3F8000
3F8000
3F8000
7F0000
7F0000
7F0000
7F0000
FE0000
FE0000
ENDCHAR
STARTCHAR 0073
ENCODING 115
SWIDTH 560 0
DWIDTH 28 0
BBX 27 28 4 0
BITMAP
007FFC00
01FFFF00
03FFFF80
07FFFFC0
0FFFFFC0
1FF07FC0
1FC01FE0
3FC01FE0
3FC01FC0
3FE00000
3FFC0000
3FFFC000
1FFFF000
0FFFFC00
07FFFE00
01FFFF00
001FFF00
0003FF80
0000FF80
FE007F00
FE007F00
FF00FF00
FFFFFE00
7FFFFE00
7FFFFC00
3FFFF000
0FFFE000
03FF0000
ENDCHAR
STARTCHAR 0074
ENCODING 116
SWIDTH 340 0
DWIDTH 17 0
BBX 16 35 5 -1
BITMAP
03F8
03F8
03F8
03F8
07F0
07F0
07F0
7FFF
7FFF
7FFE
7FFE
FFFE
0FE0
0FE0
1FC0
1FC0
1FC0
1FC0
3F80
3F80
3F80
3F80
3F80
7F00
7F00
7F00
7F00
7F00
FF00
FF00
FFE0
FFE0
FFE0
7FC0
1FC0
ENDCHAR
STARTCHAR 0075
ENCODING 117
SWIDTH 620 0
DWIDTH 31 0
BBX 29 28 4 -1
BITMAP
0FE003F8
0FE007F0
0FE007F0
0FE007F0
1FC007F0
1FC007F0
1FC00FE0
1FC00FE0
3F800FE0
3F800FE0
3F800FE0
3F801FC0
3F801FC0
7F001FC0
7F001FC0
7F003FC0
7F003F80
7F003F80
FF007F80
FF007F80
FF00FF00
FF81FF00
FFFFFF00
FFFFFF00
7FFF7F00
7FFEFE00
3FF8FE00
0FE00000
ENDCHAR
STARTCHAR 0076
ENCODING 118
SWIDTH 560 0
DWIDTH 28 0
BBX 25 27 7 0
BITMAP
FE003F80
FE007F80
FE007F00
FE00FF00
FE00FE00
FE01FC00
FE01FC00
FE03F800
7E03F800
7F07F000
7F07F000
7F0FE000
7F0FE000
7F1FC000
7F1F8000
3F3F8000
3F3F0000
3F7F0000
3F7E0000
3FFE0000
3FFC0000
3FFC0000
1FF80000
1FF00000
1FF00000
1FE00000
1FE00000
ENDCHAR
STARTCHAR 0077
ENCODING 119
SWIDTH 780 0
DWIDTH 39 0
BBX 38 27 6 0
BITMAP
FF00FE01FC
FF01FE01FC
FF01FE03F8
FF03FE03F8
FF03FE07F0
FF07FE07F0
FF07FE0FE0
7F07FE0FE0
7F0FFE0FC0
7F0FBE1FC0
7F1FBE1F80
7F1F3E3F80
7F1F3E3F00
7F3E3E7F00
7F3E3E7E00
7F7C3EFE00
7F7C3EFC00
7FFC3EFC00
7FF83FF800
7FF83FF800
7FF03FF000
3FF03FF000
3FE03FE000
3FE03FE000
3FC03FC000
3FC03FC000
3FC03F8000
ENDCHAR
STARTCHAR 0078
ENCODING 120
SWIDTH 560 0
DWIDTH 28 0
BBX 31 27 1 0
BITMAP
03FC01FE
01FE03FC
01FE07F8
01FE0FF0
00FF0FE0
00FF1FE0
007F3FC0
007FFF80
007FFF00
003FFE00
003FFC00
001FF800
001FF000
001FF000
003FF000
003FF800
007FF800
00FFF800
01FFFC00
03FDFC00
07F9FE00
0FF1FE00
0FF0FF00
1FE0FF00
3FC0FF80
7F807F80
FF807F80
ENDCHAR
STARTCHAR 0079
ENCODING 121
SWIDTH 560 0
DWIDTH 28 0
BBX 30 38 2 -11
BITMAP
0FF001FC
0FF001FC
07F003F8
07F003F8
07F007F0
07F007F0
07F80FE0
07F80FC0
07F81FC0
03F81F80
03F83F80
03F83F00
03F87F00
03F87E00
03F8FE00
03F8FC00
01F9F800
01FDF800
01FFF000
01FFF000
01FFE000
01FFE000
01FFC000
01FF8000
00FF8000
00FF0000
00FF0000
00FE0000
00FE0000
00FC0000
01FC0000
03F80000
7FF00000
7FF00000
7FE00000
FFC00000
FF800000
FC000000
ENDCHAR
STARTCHAR 007A
ENCODING 122
SWIDTH 500 0
DWIDTH 25 0
BBX 28 27 1 0
BITMAP
01FFFFF0
03FFFFE0
03FFFFE0
03FFFFE0
03FFFFE0
03FFFFE0
00007FC0
0000FF80
0001FF00
0003FC00
0007F800
000FF000
001FE000
003FC000
007F8000
01FF0000
03FE0000
07FC0000
0FF80000
1FF00000
3FE00000
7FFFFF00
7FFFFE00
7FFFFE00
7FFFFE00
FFFFFE00
FFFFFE00
ENDCHAR
STARTCHAR 007B
ENCODING 123
SWIDTH 380 0
DWIDTH 19 0
BBX 19 46 4 -10
BITMAP
0007E0
001FE0
003FE0
007FE0
007FE0
00FE00
00FC00
00FC00
00F800
01F800
01F800
01F800
01F800
01F000
03F000
03F000
03F000
03F000
07E000
07E000
7FC000
7F8000
7E0000
FF8000
FFC000
0FC000
0FC000
0F8000
1F8000
1F8000
1F8000
1F8000
1F0000
3F0000
3F0000
3F0000
3E0000
3E0000
7E0000
7E0000
7F0000
7FE000
7FC000
3FC000
3FC000
0FC000
ENDCHAR
STARTCHAR 007C
ENCODING 124
SWIDTH 280 0
DWIDTH 14 0
BBX 14 46 3 -10
BITMAP
003C
003C
0078
0078
0078
0078
0078
00F0
00F0
00F0
00F0
01E0
01E0
01E0
01E0
01E0
03C0
03C0
03C0
03C0
03C0
0780
0780
0780
0780
0F00
0F00
0F00
0F00
0F00
1E00
1E00
1E00
1E00
1E00
3C00
3C00
3C00
3C00
7C00
7800
7800
7800
7800
F000
F000
ENDCHAR
STARTCHAR 007D
ENCODING 125
SWIDTH 380 0
DWIDTH 19 0
BBX 19 46 2 -10
BITMAP
007E00
007F80
007F80
007FC0
00FFC0
001FC0
000FC0
000FC0
000F80
000F80
001F80
001F80
001F80
001F00
003F00
003F00
003F00
003F00
003E00
007E00
007E00
007FE0
003FE0
000FC0
003FC0
007FC0
00FC00
00FC00
01F800
01F800
01F800
01F800
01F000
03F000
03F000
03F000
03F000
03E000
07E000
07E000
0FE000
FFC000
FFC000
FF8000
FF0000
FC0000
ENDCHAR
STARTCHAR 007E
ENCODING 126
SWIDTH 580 0
DWIDTH 29 0
BBX 24 9 5 7
BITMAP
07C000
1FF000
3FF80F
7FFC0F
787E1E
F03FFE
F01FFC
000FF8
0003E0
ENDCHAR
STARTCHAR 00A0
ENCODING 160
SWIDTH 280 0
DWIDTH 14 0
BBX 0 0 0 0
BITMAP
ENDCHAR
STARTCHAR 00A1
ENCODING 161
SWIDTH 340 0
DWIDTH 17 0
BBX 15 36 1 -10
BITMAP
01FE
01FE
01FC
01FC
01FC
03FC
03FC
0000
0000
0000
01E0
01E0
01E0
03C0
03C0
03C0
07C0
07C0
07C0
0FC0
0FC0
0FC0
1FC0
1FC0
1FC0
3FC0
3F80
3F80
7F80
7F80
7F80
7F00
7F00
FF00
FF00
FE00
ENDCHAR
STARTCHAR 00A2
ENCODING 162
SWIDTH 560 0
DWIDTH 28 0
BBX 27 38 4 -6
BITMAP
0001E000
0001C000
0001C000
0001C000
0003C000
003FF800
00FFFE00
01FFFF00
03FFFF80
07FFFFC0
0FFFFFC0
1FE73FC0
1FC71FE0
3F871FE0
3F8F1FC0
7F8E0000
7F0E0000
7F0E0000
7F1E0000
7F1E0000
FF1C0000
FF1C0000
FF1C0000
FF3C7F00
FF3C7F00
FF38FE00
FFB9FE00
7FFFFC00
7FFFF800
3FFFF000
1FFFE000
0FFFC000
03FE0000
00F00000
00E00000
00E00000
00E00000
01E00000
ENDCHAR
STARTCHAR 00A3
ENCODING 163
SWIDTH 560 0
DWIDTH 28 0
BBX 29 37 3 0
BITMAP
0007FF00
003FFFC0
007FFFE0
00FFFFF0
01FFFFF0
03FF0FF0
03FC07F8
07F803F8
07F003F8
0FF003F8
0FF003F8
0FF00000
0FF00000
0FF00000
07F00000
07F80000
07F80000
3FFFF000
3FFFF000
3FFFF000
01F80000
01F80000
01F80000
01F80000
01F80000
03F00000
03E00000
07E00000
0FC00000
1F000100
3EFF0F00
FFFFFF00
FFFFFF00
FFFFFF00
7FFFFF00
7EFFFE00
4007F000
ENDCHAR
STARTCHAR 00A4
ENCODING 164
SWIDTH 560 0
DWIDTH 28 0
BBX 29 25 3 5
BITMAP
01800060
078000F0
0FC7F1F8
0FFFFFF8
07FFFFF0
03FFFFC0
03FFFF80
03F83F80
03E01F80
07C00F80
07C00F80
0F800F80
0F800F80
0F800F00
0F801F00
0F803F00
0FC07E00
0FF1FC00
0FFFFE00
1FFFFF00
7FFFFF00
FFFFFF80
FC7E1F00
78000E00
20000C00
ENDCHAR
STARTCHAR 00A5
ENCODING 165
SWIDTH 560 0
DWIDTH 28 0
BBX 30 35 5 0
BITMAP
1FC001FC
1FC003F8
0FE007F0
0FE007E0
0FE00FE0
07F01FC0
07F01F80
03F03F00
03F87E00
03F8FE00
01F8FC00
01FDF800
01FFF000
00FFF000
00FFE000
007FC000
007F8000
3FFFFF00
3FFFFE00
3FFFFE00
007F0000
007F0000
00FE0000
7FFFFC00
7FFFFC00
FFFFFC00
00FE0000
01FC0000
01FC0000
01FC0000
01FC0000
03FC0000
03F80000
03F80000
03F80000
ENDCHAR
STARTCHAR 00A6
ENCODING 166
SWIDTH 280 0
DWIDTH 14 0
BBX 14 46 3 -10
BITMAP
003C
003C
0078
0078
0078
0078
0078
00F0
00F0
00F0
00F0
01E0
01E0
01E0
01E0
01E0
03C0
03C0
03C0
0000
0000
0000
0000
0000
0000
0000
0000
0F00
0F00
0F00
1E00
1E00
1E00
1E00
1E00
3C00
3C00
3C00
3C00
7800
7800
7800
7800
7800
F000
F000
ENDCHAR
STARTCHAR 00A7
ENCODING 167
SWIDTH 560 0
DWIDTH 28 0
BBX 28 46 2 -9
BITMAP
0007FF00
001FFFC0
003FFFE0
007FFFE0
00FFFFE0
01FE0FF0
01FC07F0
03FC07E0
03FC07E0
03FC0000
03FE0000
03FF8000
01FFC000
01FFF000
00FFF800
01FFFE00
07FFFF00
0FCFFF80
1F83FFC0
1F80FFC0
3F803FC0
3F801FC0
3F800FC0
3FC00FC0
3FF00FC0
3FF81F80
1FFE3F80
1FFFFF00
07FFFC00
03FFF000
00FFF800
007FF800
001FF800
000FF800
0007FC00
0003F800
FF03F800
FF03F800
FF07F800
FF07F000
FFFFF000
FFFFE000
7FFFC000
3FFF8000
1FFE0000
07F80000
ENDCHAR
STARTCHAR 00A8
ENCODING 168
SWIDTH 340 0
DWIDTH 17 0
BBX 18 7 7 30
BITMAP
7F1FC0
7E1F80
7E1F80
7E1F80
7E1F80
FC3F00
FC3F00
ENDCHAR
STARTCHAR 00A9
ENCODING 169
SWIDTH 740 0
DWIDTH 37 0
BBX 39 39 3 -1
BITMAP
0000018000
00003FFC00
0001FFFF00
0007FFFF80
001FE01FC0
003F0007E0
007C0003F0
00F80001F8
01F00000F8
03E03FC07C
07C0FFF03C
0F81FFF03C
0F03FFF83E
1E07E0F81E
3C0F807C1E
3C1F007C1E
381E00001E
783E00001E
783E00001E
703C00001E
F07C00001E
F07C00003C
F07C00003C
F07C00003C
F07C00F078
F07C01F078
F07E03E0F0
F83F0FE1F0
783FFFC3E0
781FFF83C0
7C0FFE0F80
3E03F81F00
3F00003E00
1F8000FC00
0FE003F800
07FFFFE000
03FFFFC000
00FFFE0000
001FF00000
ENDCHAR
STARTCHAR 00AA
ENCODING 170
SWIDTH 360 0
DWIDTH 18 0
BBX 17 23 5 13
BITMAP
00FE00
03FF00
07FF80
07FF80
0F0780
000780
007F80
07FF80
0FFF00
1F0F00
1E0F00
3C1F00
3C1E00
3F7E00
3FFE00
1FDF00
0F0000
000000
000000
FFFC00
FFFC00
FFFC00
FFFC00
ENDCHAR
STARTCHAR 00AB
ENCODING 171
SWIDTH 560 0
DWIDTH 28 0
BBX 21 20 7 4
BITMAP
002008
006018
01C038
03C078
07C1F8
1FC3F0
3F87E0
7E0FC0
7C1F80
F81E00
F01E00
F81E00
FC1F00
FE1F80
7F0FC0
3F07C0
1E03C0
0E01C0
0601C0
020080
ENDCHAR
STARTCHAR 00AC
ENCODING 172
SWIDTH 580 0
DWIDTH 29 0
BBX 26 14 5 5
BITMAP
7FFFFFC0
7FFFFFC0
7FFFFFC0
7FFFFFC0
FFFFFFC0
FFFFFF80
00001F80
00001F80
00001F80
00001F80
00003F00
00003F00
00003F00
00003F00
ENDCHAR
STARTCHAR 00AD
ENCODING 173
SWIDTH 340 0
DWIDTH 17 0
BBX 15 6 4 10
BITMAP
7FFE
7FFE
7FFC
7FFC
FFFC
FFFC
ENDCHAR
STARTCHAR 00AE
ENCODING 174
SWIDTH 740 0
DWIDTH 37 0
BBX 39 39 3 -1
BITMAP
0000038000
00007FFC00
0003FFFF00
000FFFFF80
001FE03FC0
007F0007E0
00FC0003F0
01F00000F8
03E00000F8
07C7FFF07C
0787FFF83C
0F0FFFFC3C
1E0FFFFC3E
1E0F807C1E
3C0F007C1E
3C1F007C1E
781F00781E
781F01F81E
781FFFF01E
F01FFFC01E
F03FFFC03C
F03FFFE03C
F03E07E03C
F03C03E078
F07C03E078
F07C03C0F8
F07C07C0F0
F87C07C1E0
78F807C3E0
7CF807E7C0
7C00000F80
3E00001F00
1F00003E00
1F8000FC00
0FE007F800
07FFFFE000
03FFFF8000
00FFFE0000
001FF00000
ENDCHAR
STARTCHAR 00AF
ENCODING 175
SWIDTH 340 0
DWIDTH 17 0
BBX 16 4 7 31
BITMAP
7FFF
7FFF
FFFE
FFFE
ENDCHAR
STARTCHAR 00B0
ENCODING 176
SWIDTH 600 0
DWIDTH 30 0
BBX 15 15 12 19
BITMAP
0FE0
1FF0
3FF8
7C3C
701E
F00E
E00E
E00E
E00E
F01E
701E
7C7C
3FF8
1FF0
07C0
ENDCHAR
STARTCHAR 00B1
ENCODING 177
SWIDTH 580 0
DWIDTH 29 0
BBX 28 32 3 0
BITMAP
0001F800
0001F800
0001F800
0001F800
0003F000
0003F000
0003F000
0003F000
0007E000
0FFFFFF0
0FFFFFF0
0FFFFFF0
1FFFFFF0
1FFFFFF0
1FFFFFE0
000FC000
000FC000
000FC000
001F8000
001F8000
001F8000
001F8000
001F0000
00000000
00000000
00000000
7FFFFF80
FFFFFF80
FFFFFF00
FFFFFF00
FFFFFF00
FFFFFF00
ENDCHAR
STARTCHAR 00B2
ENCODING 178
SWIDTH 360 0
DWIDTH 18 0
BBX 19 22 4 20
BITMAP
001800
01FF00
03FFC0
07FFC0
0F87E0
0F03E0
1F03E0
1F03C0
0007C0
0007C0
000F80
003F00
007E00
01F800
07F000
0FC000
1F8000
3E0000
7FFF00
7FFF00
FFFF00
FFFE00
ENDCHAR
STARTCHAR 00B3
ENCODING 179
SWIDTH 360 0
DWIDTH 18 0
BBX 17 22 6 19
BITMAP
003000
03FE00
0FFF00
0FFF80
1F1F80
1E0F80
3E0F80
001F00
003E00
01FC00
01FC00
01FE00
003F00
001F00
001F00
F81E00
F83E00
F87E00
FFFC00
7FF800
3FF000
1FC000
ENDCHAR
STARTCHAR 00B4
ENCODING 180
SWIDTH 340 0
DWIDTH 17 0
BBX 11 8 12 30
BITMAP
07E0
0FC0
0F80
1F00
3E00
3C00
7800
F000
ENDCHAR
STARTCHAR 00B5
ENCODING 181
SWIDTH 660 0
DWIDTH 33 0
BBX 33 37 -2 -10
BITMAP
007F001F80
007F003F80
007F003F80
00FE003F80
00FE007F00
00FE007F00
00FC007F00
01FC007F00
01FC00FE00
01FC00FE00
01F800FE00
03F800FE00
03F801FC00
03F801FC00
03F001FC00
07F001F800
07F003F800
07F003F800
07F007F800
0FF00FF000
0FF81FF000
0FFFFFF800
1FFFFFF800
1FFFFFFC00
1FFFFFFC00
1FFFF3F800
3FBFE1E000
3F80000000
3F80000000
3F80000000
7F00000000
7F00000000
7F00000000
7E00000000
FE00000000
FE00000000
FE00000000
ENDCHAR
STARTCHAR 00B6
ENCODING 182
SWIDTH 560 0
DWIDTH 28 0
BBX 28 46 6 -10
BITMAP
003FFFF0
00FFFFF0
03FFFFF0
07FFFFE0
0FFF8F80
1FFF8F80
1FFF8F80
3FFF0F00
3FFF1F00
7FFF1F00
7FFF1F00
7FFF1F00
FFFE3E00
FFFE3E00
FFFE3E00
FFFE3E00
FFFE3C00
7FFC7C00
7FFC7C00
3FFC7C00
1FFC7C00
0FF87800
01F8F800
00F8F800
00F8F800
00F8F800
00F1F000
01F1F000
01F1F000
01F1F000
01F1F000
03E3E000
03E3E000
03E3E000
03E3E000
03C3C000
07C7C000
07C7C000
07C7C000
07C7C000
07878000
0F8F8000
0F8F8000
0F8F8000
0F8F8000
0F1F0000
ENDCHAR
STARTCHAR 00B7
ENCODING 183
SWIDTH 280 0
DWIDTH 14 0
BBX 6 5 7 9
BITMAP
7C
7C
7C
FC
F8
ENDCHAR
STARTCHAR 00B8
ENCODING 184
SWIDTH 340 0
DWIDTH 17 0
BBX 14 11 -1 -11
BITMAP
00E0
00C0
0180
03F8
03FC
003C
003C
607C
7FF8
FFF0
1FC0
ENDCHAR
STARTCHAR 00B9
ENCODING 185
SWIDTH 240 0
DWIDTH 12 0
BBX 11 22 9 19
BITMAP
00E0
01E0
03E0
07C0
FFC0
FFC0
FFC0
FFC0
0780
0780
0F80
0F80
0F80
0F00
0F00
1F00
1F00
1F00
1E00
3E00
3E00
3E00
ENDCHAR
STARTCHAR 00BA
ENCODING 186
SWIDTH 360 0
DWIDTH 18 0
BBX 19 23 4 13
BITMAP
003F00
00FF80
03FFC0
03F7E0
07C3E0
0F81E0
0F01E0
1F01E0
1F01E0
1E01E0
1E03E0
1E03C0
1F07C0
1F8F80
0FFF00
07FE00
03F800
000000
000000
7FFF00
7FFF00
7FFF00
FFFF00
ENDCHAR
STARTCHAR 00BB
ENCODING 187
SWIDTH 560 0
DWIDTH 28 0
BBX 22 20 5 4
BITMAP
080200
0C0100
0E0380
0F03C0
0F83E0
1FC3F0
0FE3F8
07E1FC
03E0F8
01E078
01E078
07C0F8
0FC3F8
1F87F0
7F0FC0
7E0F80
781F00
701C00
601800
801000
ENDCHAR
STARTCHAR 00BC
ENCODING 188
SWIDTH 860 0
DWIDTH 43 0
BBX 36 38 8 -1
BITMAP
00E0000780
01E0000F00
0FE0001E00
FFC0003E00
FFC0003C00
FFC0007800
07C000F000
07C001E000
078003E000
0F8003C000
0F80078000
0F800F0000
0F001F0000
0F001E0000
1F003C0000
1F00780000
1F00F80000
1E01F001F0
1E01E003F0
3E03C007F0
3E07800FF0
000F801DE0
000F0039E0
001E007BE0
003C00F3E0
007C01E3E0
00F801C3C0
00F00383C0
01E00707C0
03C00FFFF0
07C00FFFF0
07800FFFF0
0F000FFFE0
1E00000F80
3E00000F00
3C00000F00
7800001F00
F000000000
ENDCHAR
STARTCHAR 00BD
ENCODING 189
SWIDTH 860 0
DWIDTH 43 0
BBX 38 38 8 -1
BITMAP
00E0000780
01E0000F00
0FE0001F00
FFC0003E00
FFC0003C00
FFC0007800
07C000F000
07C001F000
078001E000
0F8003C000
0F80078000
0F800F8000
0F001F0000
0F001E0000
1F003C0000
1F00780300
1F00F83FE0
1E00F07FF8
1E01E0FFF8
3E03C1F0FC
3E07C1E07C
000F83E07C
000F03E078
001E0000F8
003C0000F8
007C0001F0
00780007E0
00F0000FC0
01E0003F00
03E000FE00
07C001F800
078003F000
0F0007C000
1E000FFFE0
3E000FFFE0
3C001FFFE0
78001FFFC0
F000000000
ENDCHAR
STARTCHAR 00BE
ENCODING 190
SWIDTH 860 0
DWIDTH 43 0
BBX 38 38 6 -1
BITMAP
00000000F8
03FE0000F0
0FFF0001E0
0FFF8003C0
1F1F8007C0
1E0F800780
3E0F800F00
001F001E00
003E003E00
01FC003C00
01FC007800
01FE00F000
003F01E000
001F03E000
001F03C000
F81E078000
F83E0F0000
F87E1F007C
FFFC1E00FC
7FF83C01FC
3FF07803FC
0FC0F00778
0001F00E78
0001E01CF8
0003C03CF8
00078078F0
000F80F0F0
000F01E1F0
001E01C1F0
003C03FFFC
007C03FFFC
007803FFF8
00F007FFF8
01E00003E0
03C00003C0
07C00007C0
07800007C0
0F00000000
ENDCHAR
STARTCHAR 00BF
ENCODING 191
SWIDTH 620 0
DWIDTH 31 0
BBX 25 37 2 -10
BITMAP
0003FC00
0003F800
0003F800
0003F800
0007F800
0007F800
0007F000
00000000
00000000
00000000
0007E000
0007E000
000FE000
000FC000
001FC000
003F8000
00FF0000
01FE0000
07FC0000
0FF80000
1FF00000
3FC00000
3F800000
7F800000
7F000000
7F003F80
7F003F80
FF007F80
FF007F00
7F80FF00
7FC3FE00
7FFFFE00
7FFFFC00
3FFFF800
1FFFF000
0FFFC000
03FF0000
ENDCHAR
STARTCHAR 00C0
ENCODING 192
SWIDTH 720 0
DWIDTH 36 0
BBX 33 46 2 0
BITMAP
00000F8000
000007C000
000007C000
000003C000
000003E000
000001E000
000000E000
000000E000
0000000000
0000000000
00001FF000
00001FF000
00003FF800
00003FF800
00007FF800
00007FF800
0000FFF800
0001FFF800
0001FFF800
0003FBFC00
0003FBFC00
0007F3FC00
0007F3FC00
000FE3FC00
001FC1FC00
001FC1FC00
003F81FC00
003F81FE00
007F01FE00
007F01FE00
00FE01FE00
01FE00FE00
01FC00FE00
03FFFFFE00
03FFFFFF00
07FFFFFF00
07FFFFFF00
0FFFFFFF00
0FFFFFFF00
1FE0007F00
3FC0007F00
3FC0007F80
7F80007F80
7F00007F80
FF00007F80
FE00007F80
ENDCHAR
STARTCHAR 00C1
ENCODING 193
SWIDTH 720 0
DWIDTH 36 0
BBX 33 47 2 0
BITMAP
0000003F00
0000007E00
0000007C00
000000F800
000001F000
000001E000
000003C000
0000078000
0000000000
0000000000
0000000000
00001FF000
00001FF000
00003FF800
00003FF800
00007FF800
00007FF800
0000FFF800
0001FFF800
0001FFF800
0003FBFC00
0003FBFC00
0007F3FC00
0007F3FC00
000FE3FC00
001FC1FC00
001FC1FC00
003F81FC00
003F81FE00
007F01FE00
007F01FE00
00FE01FE00
01FE00FE00
01FC00FE00
03FFFFFE00
03FFFFFF00
07FFFFFF00
07FFFFFF00
0FFFFFFF00
0FFFFFFF00
1FE0007F00
3FC0007F00
3FC0007F80
7F80007F80
7F00007F80
FF00007F80
FE00007F80
ENDCHAR
STARTCHAR 00C2
ENCODING 194
SWIDTH 720 0
DWIDTH 36 0
BBX 33 47 2 0
BITMAP
000001FC00
000003FC00
000007BE00
00000F1E00
00001E1F00
00003C0F00
0000780F00
0000000000
0000000000
0000000000
0000000000
00001FF000
00001FF000
00003FF800
00003FF800
00007FF800
00007FF800
0000FFF800
0001FFF800
0001FFF800
0003FBFC00
0003FBFC00
0007F3FC00
0007F3FC00
000FE3FC00
001FC1FC00
001FC1FC00
003F81FC00
003F81FE00
007F01FE00
007F01FE00
00FE01FE00
01FE00FE00
01FC00FE00
03FFFFFE00
03FFFFFF00
07FFFFFF00
07FFFFFF00
0FFFFFFF00
0FFFFFFF00
1FE0007F00
3FC0007F00
3FC0007F80
7F80007F80
7F00007F80
FF00007F80
FE00007F80
ENDCHAR
STARTCHAR 00C3
ENCODING 195
SWIDTH 720 0
DWIDTH 36 0
BBX 35 46 2 0
BITMAP
00000000E0
00001FC0E0
00003FF1C0
00007FFFC0
000071FF80
0000E07F00
0000001800
0000000000
0000000000
0000000000
00001FF000
00001FF000
00003FF800
00003FF800
00007FF800
00007FF800
0000FFF800
0001FFF800
0001FFF800
0003FBFC00
0003FBFC00
0007F3FC00
0007F3FC00
000FE3FC00
001FC1FC00
001FC1FC00
003F81FC00
003F81FE00
007F01FE00
007F01FE00
00FE01FE00
01FE00FE00
01FC00FE00
03FFFFFE00
03FFFFFF00
07FFFFFF00
07FFFFFF00
0FFFFFFF00
0FFFFFFF00
1FE0007F00
3FC0007F00
3FC0007F80
7F80007F80
7F00007F80
FF00007F80
FE00007F80
ENDCHAR
STARTCHAR 00C4
ENCODING 196
SWIDTH 720 0
DWIDTH 36 0
BBX 35 46 2 0
BITMAP
00003F8FE0
00003F0FC0
00003F0FC0
00003F0FC0
00003F0FC0
00007E1F80
00007E1F80
0000000000
0000000000
0000000000
00001FF000
00001FF000
00003FF800
00003FF800
00007FF800
00007FF800
0000FFF800
0001FFF800
0001FFF800
0003FBFC00
0003FBFC00
0007F3FC00
0007F3FC00
000FE3FC00
001FC1FC00
001FC1FC00
003F81FC00
003F81FE00
007F01FE00
007F01FE00
00FE01FE00
01FE00FE00
01FC00FE00
03FFFFFE00
03FFFFFF00
07FFFFFF00
07FFFFFF00
0FFFFFFF00
0FFFFFFF00
1FE0007F00
3FC0007F00
3FC0007F80
7F80007F80
7F00007F80
FF00007F80
FE00007F80
ENDCHAR
STARTCHAR 00C5
ENCODING 197
SWIDTH 720 0
DWIDTH 36 0
BBX 33 48 2 0
BITMAP
000000F000
000001F800
000003F800
0000071800
0000061800
0000063800
000007F800
000007F000
000003C000
0000000000
0000000000
0000000000
00001FF000
00001FF000
00003FF800
00003FF800
00007FF800
00007FF800
0000FFF800
0001FFF800
0001FFF800
0003FBFC00
0003FBFC00
0007F3FC00
0007F3FC00
000FE3FC00
001FC1FC00
001FC1FC00
003F81FC00
003F81FE00
007F01FE00
007F01FE00
00FE01FE00
01FE00FE00
01FC00FE00
03FFFFFE00
03FFFFFF00
07FFFFFF00
07FFFFFF00
0FFFFFFF00
0FFFFFFF00
1FE0007F00
3FC0007F00
3FC0007F80
7F80007F80
7F00007F80
FF00007F80
FE00007F80
ENDCHAR
STARTCHAR 00C6
ENCODING 198
SWIDTH 1000 0
DWIDTH 50 0
BBX 55 36 0 0
BITMAP
000007FFFFFFFE
00000FFFFFFFFE
00000FFFFFFFFE
00001FFFFFFFFC
00003FFFFFFFFC
00003FFFFFFFFC
00007F8FE00000
00007F0FE00000
0000FE0FE00000
0001FE1FE00000
0001FC1FE00000
0003FC1FC00000
0003F81FC00000
0007F83FC00000
0007F03FFFFFE0
000FE03FFFFFC0
001FE03FFFFFC0
001FC03FFFFFC0
003FC07FFFFFC0
003F807FFFFFC0
007F007F000000
00FF007F000000
00FFFFFF000000
01FFFFFF000000
01FFFFFF000000
03FFFFFE000000
03FFFFFE000000
07FFFFFE000000
0FF001FE000000
0FF001FC000000
1FE001FFFFFF80
1FC001FFFFFF80
3FC003FFFFFF80
7F8003FFFFFF80
7F8003FFFFFF80
FF0003FFFFFF00
ENDCHAR
STARTCHAR 00C7
ENCODING 199
SWIDTH 720 0
DWIDTH 36 0
BBX 35 47 5 -10
BITMAP
0001FFE000
0007FFFC00
001FFFFE00
007FFFFF00
00FFFFFF80
01FFFFFFC0
03FF00FFC0
07FC003FC0
07F8003FC0
0FF0001FE0
1FF0001FE0
1FE0001FC0
3FC0000000
3FC0000000
3F80000000
7F80000000
7F80000000
7F00000000
7F00000000
FF00000000
FF00000000
FF00000000
FF00000000
FF00000000
FF0000FF00
FF0000FE00
FF0001FE00
FF0001FE00
7F8003FC00
7FC00FF800
7FF87FF800
3FFFFFF000
1FFFFFE000
0FFFFF8000
07FFFF0000
03FFFC0000
007FE00000
001C000000
0018000000
003FC00000
007FC00000
0003C00000
0003C00000
0607C00000
07FF800000
0FFF000000
01FC000000
ENDCHAR
STARTCHAR 00C8
ENCODING 200
SWIDTH 660 0
DWIDTH 33 0
BBX 34 46 4 0
BITMAP
00003E0000
00001F0000
00001F0000
00000F0000
00000F8000
0000078000
0000038000
0000038000
0000000000
0000000000
00FFFFFFC0
01FFFFFFC0
01FFFFFFC0
01FFFFFF80
01FFFFFF80
01FFFFFF80
03FC000000
03FC000000
03F8000000
03F8000000
07F8000000
07F8000000
07F0000000
07F0000000
07FFFFFC00
0FFFFFF800
0FFFFFF800
0FFFFFF800
0FFFFFF800
1FFFFFF000
1FE0000000
1FE0000000
1FC0000000
1FC0000000
3FC0000000
3FC0000000
3F80000000
3F80000000
3F80000000
7F80000000
7FFFFFF000
7FFFFFF000
7FFFFFF000
FFFFFFF000
FFFFFFE000
FFFFFFE000
ENDCHAR
STARTCHAR 00C9
ENCODING 201
SWIDTH 660 0
DWIDTH 33 0
BBX 34 47 4 0
BITMAP
000001F800
000003F000
000003E000
000007C000
00000F8000
00000F0000
00001E0000
00003C0000
0000000000
0000000000
0000000000
00FFFFFFC0
01FFFFFFC0
01FFFFFFC0
01FFFFFF80
01FFFFFF80
01FFFFFF80
03FC000000
03FC000000
03F8000000
03F8000000
07F8000000
07F8000000
07F0000000
07F0000000
07FFFFFC00
0FFFFFF800
0FFFFFF800
0FFFFFF800
0FFFFFF800
1FFFFFF000
1FE0000000
1FE0000000
1FC0000000
1FC0000000
3FC0000000
3FC0000000
3F80000000
3F80000000
3F80000000
7F80000000
7FFFFFF000
7FFFFFF000
7FFFFFF000
FFFFFFF000
FFFFFFE000
FFFFFFE000
ENDCHAR
STARTCHAR 00CA
ENCODING 202
SWIDTH 660 0
DWIDTH 33 0
BBX 34 47 4 0
BITMAP
00000FE000
00001FE000
00003FF000
00007CF000
0000F8F800
0001E07800
0001C03C00
0002000000
0000000000
0000000000
0000000000
00FFFFFFC0
01FFFFFFC0
01FFFFFFC0
01FFFFFF80
01FFFFFF80
01FFFFFF80
03FC000000
03FC000000
03F8000000
03F8000000
07F8000000
07F8000000
07F0000000
07F0000000
07FFFFFC00
0FFFFFF800
0FFFFFF800
0FFFFFF800
0FFFFFF800
1FFFFFF000
1FE0000000
1FE0000000
1FC0000000
1FC0000000
3FC0000000
3FC0000000
3F80000000
3F80000000
3F80000000
7F80000000
7FFFFFF000
7FFFFFF000
7FFFFFF000
FFFFFFF000
FFFFFFE000
FFFFFFE000
ENDCHAR
STARTCHAR 00CB
ENCODING 203
SWIDTH 660 0
DWIDTH 33 0
BBX 34 46 4 0
BITMAP
0001F87E00
0001F87E00
0001F87E00
0001F87E00
0003F8FE00
0003F0FC00
0003F0FC00
0000000000
0000000000
0000000000
00FFFFFFC0
01FFFFFFC0
01FFFFFFC0
01FFFFFF80
01FFFFFF80
01FFFFFF80
03FC000000
03FC000000
03F8000000
03F8000000
07F8000000
07F8000000
07F0000000
07F0000000
07FFFFFC00
0FFFFFF800
0FFFFFF800
0FFFFFF800
0FFFFFF800
1FFFFFF000
1FE0000000
1FE0000000
1FC0000000
1FC0000000
3FC0000000
3FC0000000
3F80000000
3F80000000
3F80000000
7F80000000
7FFFFFF000
7FFFFFF000
7FFFFFF000
FFFFFFF000
FFFFFFE000
FFFFFFE000
ENDCHAR
STARTCHAR 00CC
ENCODING 204
SWIDTH 280 0
DWIDTH 14 0
BBX 15 46 3 0
BITMAP
01F0
00F8
00F8
0078
007C
003C
001C
001C
0000
0000
00FE
01FE
01FE
01FE
01FC
01FC
03FC
03FC
03F8
03F8
03F8
07F8
07F8
07F0
07F0
0FF0
0FF0
0FE0
0FE0
0FE0
1FE0
1FE0
1FC0
1FC0
3FC0
3FC0
3FC0
3F80
3F80
7F80
7F80
7F00
7F00
7F00
FF00
FF00
ENDCHAR
STARTCHAR 00CD
ENCODING 205
SWIDTH 280 0
DWIDTH 14 0
BBX 19 47 3 0
BITMAP
0007E0
000FC0
000F80
001F00
003E00
003C00
007800
00F000
000000
000000
000000
00FE00
01FE00
01FE00
01FE00
01FC00
01FC00
03FC00
03FC00
03F800
03F800
03F800
07F800
07F800
07F000
07F000
0FF000
0FF000
0FE000
0FE000
0FE000
1FE000
1FE000
1FC000
1FC000
3FC000
3FC000
3FC000
3F8000
3F8000
7F8000
7F8000
7F0000
7F0000
7F0000
FF0000
FF0000
ENDCHAR
STARTCHAR 00CE
ENCODING 206
SWIDTH 280 0
DWIDTH 14 0
BBX 20 47 3 0
BITMAP
001F80
003FC0
007BC0
00F3E0
01E1E0
03C0F0
0780F0
000000
000000
000000
000000
00FE00
01FE00
01FE00
01FE00
01FC00
01FC00
03FC00
03FC00
03F800
03F800
03F800
07F800
07F800
07F000
07F000
0FF000
0FF000
0FE000
0FE000
0FE000
1FE000
1FE000
1FC000
1FC000
3FC000
3FC000
3FC000
3F8000
3F8000
7F8000
7F8000
7F0000
7F0000
7F0000
FF0000
FF0000
ENDCHAR
STARTCHAR 00CF
ENCODING 207
SWIDTH 280 0
DWIDTH 14 0
BBX 22 46 3 0
BITMAP
03F0FC
03F0FC
03F0FC
07F1FC
07E1F8
07E1F8
07E1F8
000000
000000
000000
00FE00
01FE00
01FE00
01FE00
01FC00
01FC00
03FC00
03FC00
03F800
03F800
03F800
07F800
07F800
07F000
07F000
0FF000
0FF000
0FE000
0FE000
0FE000
1FE000
1FE000
1FC000
1FC000
3FC000
3FC000
3FC000
3F8000
3F8000
7F8000
7F8000
7F0000
7F0000
7F0000
FF0000
FF0000
ENDCHAR
STARTCHAR 00D0
ENCODING 208
SWIDTH 720 0
DWIDTH 36 0
BBX 35 36 4 0
BITMAP
00FFFFE000
01FFFFF800
01FFFFFE00
01FFFFFF00
01FFFFFF80
03FFFFFF80
03FC03FFC0
03FC007FC0
03F8003FC0
03F8003FC0
07F8001FC0
07F8001FE0
07F0001FE0
07F0001FE0
0FF0001FC0
FFFFF01FC0
FFFFF01FC0
FFFFF03FC0
FFFFF03FC0
1FE0003FC0
1FE0003F80
1FC0007F80
1FC0007F80
1FC0007F00
3FC000FF00
3FC001FE00
3F8001FE00
3F8003FC00
7F8007F800
7F803FF800
7FFFFFF000
7FFFFFE000
7FFFFFC000
FFFFFF0000
FFFFFE0000
FFFFE00000
ENDCHAR
STARTCHAR 00D1
ENCODING 209
SWIDTH 720 0
DWIDTH 36 0
BBX 37 46 4 0
BITMAP
0000000380
00007F0380
0000FFC700
0001FFFF00
0001C7FE00
000381FC00
0000006000
0000000000
0000000000
0000000000
01FE0003F8
01FE0007F0
01FF0007F0
03FF0007F0
03FF0007F0
03FF8007F0
03FF800FE0
03FFC00FE0
07FFC00FE0
07FFC00FE0
07FFE01FC0
07F7E01FC0
0FE7E01FC0
0FE7F01FC0
0FE3F01FC0
0FE3F83F80
0FE3F83F80
1FC1F83F80
1FC1FC3F80
1FC0FC3F80
1FC0FC7F00
1FC0FE7F00
3F807E7F00
3F807F7F00
3F807FFF00
3F803FFE00
7F003FFE00
7F001FFE00
7F001FFE00
7F001FFC00
7F000FFC00
FE000FFC00
FE000FFC00
FE0007FC00
FE0007F800
FE0007F800
ENDCHAR
STARTCHAR 00D2
ENCODING 210
SWIDTH 780 0
DWIDTH 39 0
BBX 37 47 5 -1
BITMAP
00007C0000
00003E0000
00003E0000
00001E0000
00001F0000
00000F0000
0000070000
0000070000
0000000000
0000000000
0001FFF000
0007FFFC00
001FFFFF00
003FFFFF80
00FFFFFFC0
01FFFFFFC0
03FF807FE0
03FE003FF0
07F8001FF0
0FF0000FF0
0FE0000FF0
1FE00007F0
1FC00007F8
3FC00007F8
3F800007F8
7F800007F0
7F000007F0
7F000007F0
FF00000FF0
FF00000FF0
FF00000FF0
FF00000FE0
FF00001FE0
FF00001FC0
FF00003FC0
FF00003F80
FF00007F80
7F8000FF00
7FC001FE00
7FE007FE00
3FFC3FFC00
3FFFFFF800
1FFFFFF000
0FFFFFC000
07FFFF8000
01FFFE0000
003FE00000
ENDCHAR
STARTCHAR 00D3
ENCODING 211
SWIDTH 780 0
DWIDTH 39 0
BBX 37 48 5 -1
BITMAP
000000FC00
000001F800
000001F000
000003E000
000007C000
0000078000
00000F0000
00001E0000
0000000000
0000000000
0000000000
0001FFF000
0007FFFC00
001FFFFF00
003FFFFF80
00FFFFFFC0
01FFFFFFC0
03FF807FE0
03FE003FF0
07F8001FF0
0FF0000FF0
0FE0000FF0
1FE00007F0
1FC00007F8
3FC00007F8
3F800007F8
7F800007F0
7F000007F0
7F000007F0
FF00000FF0
FF00000FF0
FF00000FF0
FF00000FE0
FF00001FE0
FF00001FC0
FF00003FC0
FF00003F80
FF00007F80
7F8000FF00
7FC001FE00
7FE007FE00
3FFC3FFC00
3FFFFFF800
1FFFFFF000
0FFFFFC000
07FFFF8000
01FFFE0000
003FE00000
ENDCHAR
STARTCHAR 00D4
ENCODING 212
SWIDTH 780 0
DWIDTH 39 0
BBX 37 48 5 -1
BITMAP
000003F000
000007F800
00000F7800
00001E7C00
00003C3C00
0000783E00
0000F01E00
0000000000
0000000000
0000000000
0000000000
0001FFF000
0007FFFC00
001FFFFF00
003FFFFF80
00FFFFFFC0
01FFFFFFC0
03FF807FE0
03FE003FF0
07F8001FF0
0FF0000FF0
0FE0000FF0
1FE00007F0
1FC00007F8
3FC00007F8
3F800007F8
7F800007F0
7F000007F0
7F000007F0
FF00000FF0
FF00000FF0
FF00000FF0
FF00000FE0
FF00001FE0
FF00001FC0
FF00003FC0
FF00003F80
FF00007F80
7F8000FF00
7FC001FE00
7FE007FE00
3FFC3FFC00
3FFFFFF800
1FFFFFF000
0FFFFFC000
07FFFF8000
01FFFE0000
003FE00000
ENDCHAR
STARTCHAR 00D5
ENCODING 213
SWIDTH 780 0
DWIDTH 39 0
BBX 37 47 5 -1
BITMAP
0000000180
00007F0380
0000FFC780
0000FFFF00
0001C7FE00
0001C1FC00
0000002000
0000000000
0000000000
0000000000
0001FFF000
0007FFFC00
001FFFFF00
003FFFFF80
00FFFFFFC0
01FFFFFFC0
03FF807FE0
03FE003FF0
07F8001FF0
0FF0000FF0
0FE0000FF0
1FE00007F0
1FC00007F8
3FC00007F8
3F800007F8
7F800007F0
7F000007F0
7F000007F0
FF00000FF0
FF00000FF0
FF00000FF0
FF00000FE0
FF00001FE0
FF00001FC0
FF00003FC0
FF00003F80
FF00007F80
7F8000FF00
7FC001FE00
7FE007FE00
3FFC3FFC00
3FFFFFF800
1FFFFFF000
0FFFFFC000
07FFFF8000
01FFFE0000
003FE00000
ENDCHAR
STARTCHAR 00D6
ENCODING 214
SWIDTH 780 0
DWIDTH 39 0
BBX 37 47 5 -1
BITMAP
00007E1F80
00007E1F80
0000FC3F00
0000FC3F00
0000FC3F00
0000FC3F00
0001FC7F00
0000000000
0000000000
0000000000
0001FFF000
0007FFFC00
001FFFFF00
003FFFFF80
00FFFFFFC0
01FFFFFFC0
03FF807FE0
03FE003FF0
07F8001FF0
0FF0000FF0
0FE0000FF0
1FE00007F0
1FC00007F8
3FC00007F8
3F800007F8
7F800007F0
7F000007F0
7F000007F0
FF00000FF0
FF00000FF0
FF00000FF0
FF00000FE0
FF00001FE0
FF00001FC0
FF00003FC0
FF00003F80
FF00007F80
7F8000FF00
7FC001FE00
7FE007FE00
3FFC3FFC00
3FFFFFF800
1FFFFFF000
0FFFFFC000
07FFFF8000
01FFFE0000
003FE00000
ENDCHAR
STARTCHAR 00D7
ENCODING 215
SWIDTH 580 0
DWIDTH 29 0
BBX 23 21 6 1
BITMAP
020010
070038
0F80FC
3FC1FE
3FE3FC
1FE7F8
0FFFF0
07FFE0
07FFC0
03FF00
01FE00
03FF00
0FFF80
1FFFC0
3FFFC0
7F9FE0
FF0FF0
FE0FF0
FC07C0
700380
200100
ENDCHAR
STARTCHAR 00D8
ENCODING 216
SWIDTH 780 0
DWIDTH 39 0
BBX 44 39 1 -2
BITMAP
000000000020
00000FFF00E0
00007FFFE1F0
0001FFFFF3E0
0003FFFFFFC0
000FFFFFFF80
001FFFFFFE00
003FF807FE00
003FE003FE00
007F8001FF00
00FF0003FF00
00FE0007FF00
01FE000FFF00
01FC001E7F00
03FC003C7F80
03F800F87F80
07F801F07F00
07F803E07F00
07F007C07F00
0FF00F807F00
0FF01E00FF00
0FF03C00FE00
0FF0F800FE00
0FF1F001FE00
0FF3E001FC00
0FF7C003FC00
0FFF0007F800
0FFE0007F800
07FC000FF000
07FC001FE000
07FE007FE000
03FF83FFC000
07FFFFFF8000
0FFFFFFF0000
1EFFFFFC0000
7C7FFFF80000
F81FFFC00000
7003FE000000
200000000000
ENDCHAR
STARTCHAR 00D9
ENCODING 217
SWIDTH 720 0
DWIDTH 36 0
BBX 34 47 6 -1
BITMAP
0000F80000
00007C0000
00007C0000
00003C0000
00003E0000
00001E0000
00000E0000
00000E0000
0000000000
0000000000
07F8001FC0
07F8001FC0
07F8003FC0
07F0003FC0
07F0003F80
0FF0003F80
0FF0003F80
0FE0007F80
0FE0007F80
0FE0007F00
1FE0007F00
1FE000FF00
1FC000FF00
1FC000FF00
3FC000FE00
3FC000FE00
3FC001FE00
3F8001FE00
3F8001FC00
7F8001FC00
7F8001FC00
7F0003FC00
7F0003FC00
7F0003F800
FF0003F800
FF0007F800
FF0007F800
FF0007F000
FF000FF000
FF801FE000
FFE0FFE000
7FFFFFC000
7FFFFF8000
3FFFFF0000
1FFFFC0000
07FFF00000
00FF800000
ENDCHAR
STARTCHAR 00DA
ENCODING 218
SWIDTH 720 0
DWIDTH 36 0
BBX 34 48 6 -1
BITMAP
000003F000
000007E000
000007C000
00000F8000
00001F0000
00001E0000
00003C0000
0000780000
0000000000
0000000000
0000000000
07F8001FC0
07F8001FC0
07F8003FC0
07F0003FC0
07F0003F80
0FF0003F80
0FF0003F80
0FE0007F80
0FE0007F80
0FE0007F00
1FE0007F00
1FE000FF00
1FC000FF00
1FC000FF00
3FC000FE00
3FC000FE00
3FC001FE00
3F8001FE00
3F8001FC00
7F8001FC00
7F8001FC00
7F0003FC00
7F0003FC00
7F0003F800
FF0003F800
FF0007F800
FF0007F800
FF0007F000
FF000FF000
FF801FE000
FFE0FFE000
7FFFFFC000
7FFFFF8000
3FFFFF0000
1FFFFC0000
07FFF00000
00FF800000
ENDCHAR
STARTCHAR 00DB
ENCODING 219
SWIDTH 720 0
DWIDTH 36 0
BBX 34 48 6 -1
BITMAP
00001FC000
00003FC000
00007FE000
0000F9E000
0001F1F000
0001E0F000
0003807800
0000000000
0000000000
0000000000
0000000000
07F8001FC0
07F8001FC0
07F8003FC0
07F0003FC0
07F0003F80
0FF0003F80
0FF0003F80
0FE0007F80
0FE0007F80
0FE0007F00
1FE0007F00
1FE000FF00
1FC000FF00
1FC000FF00
3FC000FE00
3FC000FE00
3FC001FE00
3F8001FE00
3F8001FC00
7F8001FC00
7F8001FC00
7F0003FC00
7F0003FC00
7F0003F800
FF0003F800
FF0007F800
FF0007F800
FF0007F000
FF000FF000
FF801FE000
FFE0FFE000
7FFFFFC000
7FFFFF8000
3FFFFF0000
1FFFFC0000
07FFF00000
00FF800000
ENDCHAR
STARTCHAR 00DC
ENCODING 220
SWIDTH 720 0
DWIDTH 36 0
BBX 34 47 6 -1
BITMAP
0003F8FE00
0003F0FC00
0003F0FC00
0003F0FC00
0003F0FC00
0007E1F800
0007E1F800
0000000000
0000000000
0000000000
07F8001FC0
07F8001FC0
07F8003FC0
07F0003FC0
07F0003F80
0FF0003F80
0FF0003F80
0FE0007F80
0FE0007F80
0FE0007F00
1FE0007F00
1FE000FF00
1FC000FF00
1FC000FF00
3FC000FE00
3FC000FE00
3FC001FE00
3F8001FE00
3F8001FC00
7F8001FC00
7F8001FC00
7F0003FC00
7F0003FC00
7F0003F800
FF0003F800
FF0007F800
FF0007F800
FF0007F000
FF000FF000
FF801FE000
FFE0FFE000
7FFFFFC000
7FFFFF8000
3FFFFF0000
1FFFFC0000
07FFF00000
00FF800000
ENDCHAR
STARTCHAR 00DD
ENCODING 221
SWIDTH 660 0
DWIDTH 33 0
BBX 31 47 9 0
BITMAP
00007E00
0000FC00
0000F800
0001F000
0003E000
0003C000
00078000
000F0000
00000000
00000000
00000000
FF8001FE
7F8003FC
7F8007F8
7F8007F8
3FC00FF0
3FC01FE0
3FC01FE0
1FC03FC0
1FE07F80
1FE07F00
1FE0FF00
0FE1FE00
0FF1FC00
0FF3F800
07F7F800
07FFF000
07FFE000
03FFC000
03FFC000
03FF8000
01FF0000
01FF0000
01FE0000
01FE0000
01FC0000
01FC0000
03FC0000
03FC0000
03FC0000
03F80000
03F80000
07F80000
07F80000
07F00000
07F00000
07F00000
ENDCHAR
STARTCHAR 00DE
ENCODING 222
SWIDTH 660 0
DWIDTH 33 0
BBX 33 36 4 0
BITMAP
01FE000000
01FE000000
01FE000000
01FC000000
01FC000000
03FC000000
03FFFFE000
03FFFFF800
03FFFFFC00
03FFFFFE00
07FFFFFF00
07FFFFFF00
07F001FF00
07F000FF80
0FF0007F80
0FF0007F00
0FE0007F00
0FE0007F00
0FE0007F00
1FE000FF00
1FE000FE00
1FC001FE00
1FC007FC00
3FFFFFF800
3FFFFFF800
3FFFFFF000
3FFFFFE000
3FFFFF8000
7FFFFE0000
7F80000000
7F00000000
7F00000000
7F00000000
FF00000000
FF00000000
FE00000000
ENDCHAR
STARTCHAR 00DF
ENCODING 223
SWIDTH 620 0
DWIDTH 31 0
BBX 31 37 3 -1
BITMAP
0000FF80
0007FFE0
001FFFF8
003FFFF8
007FFFFC
00FFFFFC
00FF03FE
01FC01FE
01FC01FC
03F801FC
03F801FC
03F803F8
03F807F8
03F81FF0
07F07FE0
07F0FF80
07F0FFE0
07F0FFF0
0FE0FFF8
0FE01FF8
0FE007F8
0FE003FC
1FC003FC
1FC003F8
1FC003F8
1FC003F8
1FC007F8
3F8007F0
3F800FF0
3F801FF0
3F803FE0
7F07FFC0
7F0FFF80
7F0FFF00
7F0FFE00
FE0FF800
000FE000
ENDCHAR
STARTCHAR 00E0
ENCODING 224
SWIDTH 560 0
DWIDTH 28 0
BBX 27 39 3 -1
BITMAP
001F0000
000F8000
000F8000
00078000
0007C000
0003C000
0001C000
0001C000
00000000
00000000
00000000
003FFE00
00FFFF00
01FFFF80
03FFFFC0
07FFFFC0
07F87FE0
0FE01FC0
0FC01FC0
00001FC0
00003FC0
0001FF80
007FFF80
03FFFF80
0FFFFF80
1FFFBF00
3FF07F00
3F807F00
7F007F00
7F00FF00
FF00FE00
FF01FE00
FF03FE00
FFFFFE00
FFFFFE00
7FFFFE00
7FFDFE00
1FF1FF00
0FC00000
ENDCHAR
STARTCHAR 00E1
ENCODING 225
SWIDTH 560 0
DWIDTH 28 0
BBX 27 39 3 -1
BITMAP
00003F00
00007E00
00007C00
0000F800
0001F000
0001E000
0003C000
00078000
00000000
00000000
00000000
003FFE00
00FFFF00
01FFFF80
03FFFFC0
07FFFFC0
07F87FE0
0FE01FC0
0FC01FC0
00001FC0
00003FC0
0001FF80
007FFF80
03FFFF80
0FFFFF80
1FFFBF00
3FF07F00
3F807F00
7F007F00
7F00FF00
FF00FE00
FF01FE00
FF03FE00
FFFFFE00
FFFFFE00
7FFFFE00
7FFDFE00
1FF1FF00
0FC00000
ENDCHAR
STARTCHAR 00E2
ENCODING 226
SWIDTH 560 0
DWIDTH 28 0
BBX 27 39 3 -1
BITMAP
0000FC00
0001FE00
0003DE00
00079F00
000F0F00
001E0780
003C0780
00000000
00000000
00000000
00000000
003FFE00
00FFFF00
01FFFF80
03FFFFC0
07FFFFC0
07F87FE0
0FE01FC0
0FC01FC0
00001FC0
00003FC0
0001FF80
007FFF80
03FFFF80
0FFFFF80
1FFFBF00
3FF07F00
3F807F00
7F007F00
7F00FF00
FF00FE00
FF01FE00
FF03FE00
FFFFFE00
FFFFFE00
7FFFFE00
7FFDFE00
1FF1FF00
0FC00000
ENDCHAR
STARTCHAR 00E3
ENCODING 227
SWIDTH 560 0
DWIDTH 28 0
BBX 27 37 3 -1
BITMAP
000F00E0
001FE0E0
003FF9C0
007FFFC0
0070FF80
00E03E00
00000000
00000000
00000000
003FFE00
00FFFF00
01FFFF80
03FFFFC0
07FFFFC0
07F87FE0
0FE01FC0
0FC01FC0
00001FC0
00003FC0
0001FF80
007FFF80
03FFFF80
0FFFFF80
1FFFBF00
3FF07F00
3F807F00
7F007F00
7F00FF00
FF00FE00
FF01FE00
FF03FE00
FFFFFE00
FFFFFE00
7FFFFE00
7FFDFE00
1FF1FF00
0FC00000
ENDCHAR
STARTCHAR 00E4
ENCODING 228
SWIDTH 560 0
DWIDTH 28 0
BBX 27 37 3 -1
BITMAP
001F87E0
001F87E0
003F8FE0
003F0FC0
003F0FC0
003F0FC0
00000000
00000000
00000000
003FFE00
00FFFF00
01FFFF80
03FFFFC0
07FFFFC0
07F87FE0
0FE01FC0
0FC01FC0
00001FC0
00003FC0
0001FF80
007FFF80
03FFFF80
0FFFFF80
1FFFBF00
3FF07F00
3F807F00
7F007F00
7F00FF00
FF00FE00
FF01FE00
FF03FE00
FFFFFE00
FFFFFE00
7FFFFE00
7FFDFE00
1FF1FF00
0FC00000
ENDCHAR
STARTCHAR 00E5
ENCODING 229
SWIDTH 560 0
DWIDTH 28 0
BBX 27 40 3 -1
BITMAP
00007800
0001FC00
0001FC00
00038C00
00030C00
00031C00
0003F800
0003F000
0001E000
00000000
00000000
00000000
003FFE00
00FFFF00
01FFFF80
03FFFFC0
07FFFFC0
07F87FE0
0FE01FC0
0FC01FC0
00001FC0
00003FC0
0001FF80
007FFF80
03FFFF80
0FFFFF80
1FFFBF00
3FF07F00
3F807F00
7F007F00
7F00FF00
FF00FE00
FF01FE00
FF03FE00
FFFFFE00
FFFFFE00
7FFFFE00
7FFDFE00
1FF1FF00
0FC00000
ENDCHAR
STARTCHAR 00E6
ENCODING 230
SWIDTH 900 0
DWIDTH 45 0
BBX 44 28 3 0
BITMAP
003FFE0FFC00
00FFFF3FFF00
01FFFFFFFF80
03FFFFFFFFC0
07FFFFFFFFC0
07F83FFC3FE0
0FE01FF01FE0
0FE01FE00FE0
00001FE00FE0
00001FC00FF0
00007FC00FF0
000FFFFFFFE0
01FFFFFFFFE0
07FFFFFFFFE0
1FFFFFFFFFE0
3FFC3FFFFFE0
3FC03F000000
7F807F000000
7F007F000000
FF00FF003F80
FF00FF807F80
FF03FFC0FF00
FFFFFFFFFE00
FFFFDFFFFC00
7FFF9FFFF800
7FFF0FFFF000
3FFE07FFC000
0FF000FE0000
ENDCHAR
STARTCHAR 00E7
ENCODING 231
SWIDTH 560 0
DWIDTH 28 0
BBX 27 38 4 -10
BITMAP
003FF800
00FFFE00
01FFFF00
03FFFF80
07FFFFC0
0FF87FC0
1FE03FC0
1FC01FE0
3FC01FC0
3F800000
7F800000
7F000000
7F000000
7F000000
FF000000
FF000000
FF000000
FF000000
FF007F80
FF007F00
FF00FF00
7F81FE00
7FFFFC00
7FFFF800
3FFFF000
1FFFE000
0FFF8000
03FE0000
00C00000
01800000
01FC0000
03FC0000
003C0000
003C0000
203C0000
7FF80000
FFF00000
0FE00000
ENDCHAR
STARTCHAR 00E8
ENCODING 232
SWIDTH 560 0
DWIDTH 28 0
BBX 27 39 3 -1
BITMAP
001F0000
000F8000
000F8000
00078000
0007C000
0003C000
0001C000
0001C000
00000000
00000000
00000000
003FF800
00FFFE00
01FFFF00
03FFFF80
07FFFF80
0FF87FC0
1FE03FC0
1FC01FC0
3FC01FC0
3F801FE0
7F801FE0
7FFFFFC0
7FFFFFC0
7FFFFFC0
FFFFFFC0
FFFFFFC0
FF000000
FF000000
FF000000
FF007F00
FF007F00
7F81FE00
7FFFFC00
3FFFFC00
3FFFF800
1FFFE000
07FFC000
01FE0000
ENDCHAR
STARTCHAR 00E9
ENCODING 233
SWIDTH 560 0
DWIDTH 28 0
BBX 27 39 3 -1
BITMAP
00003F00
00007E00
00007C00
0000F800
0001F000
0001E000
0003C000
00078000
00000000
00000000
00000000
003FF800
00FFFE00
01FFFF00
03FFFF80
07FFFF80
0FF87FC0
1FE03FC0
1FC01FC0
3FC01FC0
3F801FE0
7F801FE0
7FFFFFC0
7FFFFFC0
7FFFFFC0
FFFFFFC0
FFFFFFC0
FF000000
FF000000
FF000000
FF007F00
FF007F00
7F81FE00
7FFFFC00
3FFFFC00
3FFFF800
1FFFE000
07FFC000
01FE0000
ENDCHAR
STARTCHAR 00EA
ENCODING 234
SWIDTH 560 0
DWIDTH 28 0
BBX 27 39 3 -1
BITMAP
0001FC00
0003FC00
0007FE00
000F9E00
001F0F00
003E0F00
00380780
00000000
00000000
00000000
00000000
003FF800
00FFFE00
01FFFF00
03FFFF80
07FFFF80
0FF87FC0
1FE03FC0
1FC01FC0
3FC01FC0
3F801FE0
7F801FE0
7FFFFFC0
7FFFFFC0
7FFFFFC0
FFFFFFC0
FFFFFFC0
FF000000
FF000000
FF000000
FF007F00
FF007F00
7F81FE00
7FFFFC00
3FFFFC00
3FFFF800
1FFFE000
07FFC000
01FE0000
ENDCHAR
STARTCHAR 00EB
ENCODING 235
SWIDTH 560 0
DWIDTH 28 0
BBX 27 37 3 -1
BITMAP
001F87E0
003F0FC0
003F0FC0
003F0FC0
003F0FC0
007F1FC0
00000000
00000000
00000000
003FF800
00FFFE00
01FFFF00
03FFFF80
07FFFF80
0FF87FC0
1FE03FC0
1FC01FC0
3FC01FC0
3F801FE0
7F801FE0
7FFFFFC0
7FFFFFC0
7FFFFFC0
FFFFFFC0
FFFFFFC0
FF000000
FF000000
FF000000
FF007F00
FF007F00
7F81FE00
7FFFFC00
3FFFFC00
3FFFF800
1FFFE000
07FFC000
01FE0000
ENDCHAR
STARTCHAR 00EC
ENCODING 236
SWIDTH 280 0
DWIDTH 14 0
BBX 13 38 3 0
BITMAP
07C0
03E0
03E0
01E0
01F0
00F0
0070
0070
0000
0000
0000
03F8
07F0
07F0
07F0
07F0
07F0
0FE0
0FE0
0FE0
0FE0
0FE0
1FC0
1FC0
1FC0
1FC0
3F80
3F80
3F80
3F80
3F80
7F00
7F00
7F00
7F00
7F00
FE00
FE00
ENDCHAR
STARTCHAR 00ED
ENCODING 237
SWIDTH 280 0
DWIDTH 14 0
BBX 18 38 3 0
BITMAP
000FC0
001F80
001F00
003E00
007C00
007800
00F000
01E000
000000
000000
000000
03F800
07F000
07F000
07F000
07F000
07F000
0FE000
0FE000
0FE000
0FE000
0FE000
1FC000
1FC000
1FC000
1FC000
3F8000
3F8000
3F8000
3F8000
3F8000
7F0000
7F0000
7F0000
7F0000
7F0000
FE0000
FE0000
ENDCHAR
STARTCHAR 00EE
ENCODING 238
SWIDTH 280 0
DWIDTH 14 0
BBX 18 38 3 0
BITMAP
007E00
00FF00
01EF00
03CF80
078780
0F03C0
1E03C0
000000
000000
000000
000000
03F800
07F000
07F000
07F000
07F000
07F000
0FE000
0FE000
0FE000
0FE000
0FE000
1FC000
1FC000
1FC000
1FC000
3F8000
3F8000
3F8000
3F8000
3F8000
7F0000
7F0000
7F0000
7F0000
7F0000
FE0000
FE0000
ENDCHAR
STARTCHAR 00EF
ENCODING 239
SWIDTH 280 0
DWIDTH 14 0
BBX 20 36 3 0
BITMAP
0FC3F0
0FC3F0
1FC7F0
1F87E0
1F87E0
1F87E0
000000
000000
000000
03F800
07F000
07F000
07F000
07F000
07F000
0FE000
0FE000
0FE000
0FE000
0FE000
1FC000
1FC000
1FC000
1FC000
3F8000
3F8000
3F8000
3F8000
3F8000
7F0000
7F0000
7F0000
7F0000
7F0000
FE0000
FE0000
ENDCHAR
STARTCHAR 00F0
ENCODING 240
SWIDTH 620 0
DWIDTH 31 0
BBX 29 38 4 -1
BITMAP
00100000
003C1E00
00FF7F00
007FFC00
001FE000
003FF000
00FFFC00
00F9FE00
0060FF00
00007F80
00003F80
003F9FC0
00FFFFE0
03FFFFE0
07FFFFF0
0FFFFFF0
0FF83FF0
1FE00FF0
3FC00FF0
3FC007F8
3F8007F8
7F8007F8
7F0007F0
7F0007F0
FF0007F0
FF000FF0
FF000FF0
FF000FE0
FF001FE0
FF003FC0
FF007FC0
FFC0FF80
7FFFFF00
7FFFFE00
3FFFFC00
1FFFF800
07FFE000
01FF0000
ENDCHAR
STARTCHAR 00F1
ENCODING 241
SWIDTH 620 0
DWIDTH 31 0
BBX 29 36 3 0
BITMAP
0003C038
000FF070
000FFEF0
001FFFE0
003C3FE0
00380F80
00000000
00000000
00000000
03F8FF80
03F9FFE0
07F3FFF0
07F7FFF0
07FFFFF0
07FF1FF8
07F80FF8
0FF007F0
0FF007F0
0FE007F0
0FE007F0
1FC007F0
1FC00FE0
1FC00FE0
1FC00FE0
1FC00FE0
3F800FE0
3F801FC0
3F801FC0
3F801FC0
3F801FC0
7F001FC0
7F003F80
7F003F80
7F003F80
FE003F80
FE007F00
ENDCHAR
STARTCHAR 00F2
ENCODING 242
SWIDTH 620 0
DWIDTH 31 0
BBX 29 39 4 -1
BITMAP
000F8000
0007C000
0007C000
0003C000
0003E000
0001E000
0000E000
0000E000
00000000
00000000
00000000
001FFE00
007FFF80
01FFFFC0
03FFFFE0
07FFFFE0
0FFC3FF0
1FF01FF0
1FE00FF0
3FC007F0
3F8007F8
7F8007F8
7F0007F0
7F0007F0
FF0007F0
FF000FF0
FF000FF0
FF000FE0
FF001FE0
FF001FE0
FF003FC0
FF807F80
7FC0FF80
7FFFFF00
7FFFFE00
3FFFFC00
1FFFF000
07FFE000
01FF0000
ENDCHAR
STARTCHAR 00F3
ENCODING 243
SWIDTH 620 0
DWIDTH 31 0
BBX 29 39 4 -1
BITMAP
00001F80
00003F00
00003E00
00007C00
0000F800
0000F000
0001E000
0003C000
00000000
00000000
00000000
001FFE00
007FFF80
01FFFFC0
03FFFFE0
07FFFFE0
0FFC3FF0
1FF01FF0
1FE00FF0
3FC007F0
3F8007F8
7F8007F8
7F0007F0
7F0007F0
FF0007F0
FF000FF0
FF000FF0
FF000FE0
FF001FE0
FF001FE0
FF003FC0
FF807F80
7FC0FF80
7FFFFF00
7FFFFE00
3FFFFC00
1FFFF000
07FFE000
01FF0000
ENDCHAR
STARTCHAR 00F4
ENCODING 244
SWIDTH 620 0
DWIDTH 31 0
BBX 29 39 4 -1
BITMAP
0000FE00
0001FE00
0003FF00
0007CF00
000F8780
001F0780
001C03C0
00000000
00000000
00000000
00000000
001FFE00
007FFF80
01FFFFC0
03FFFFE0
07FFFFE0
0FFC3FF0
1FF01FF0
1FE00FF0
3FC007F0
3F8007F8
7F8007F8
7F0007F0
7F0007F0
FF0007F0
FF000FF0
FF000FF0
FF000FE0
FF001FE0
FF001FE0
FF003FC0
FF807F80
7FC0FF80
7FFFFF00
7FFFFE00
3FFFFC00
1FFFF000
07FFE000
01FF0000
ENDCHAR
STARTCHAR 00F5
ENCODING 245
SWIDTH 620 0
DWIDTH 31 0
BBX 29 37 4 -1
BITMAP
00070060
001FE0E0
003FF9E0
007FFFC0
0070FF80
00603F00
00000000
00000000
00000000
001FFE00
007FFF80
01FFFFC0
03FFFFE0
07FFFFE0
0FFC3FF0
1FF01FF0
1FE00FF0
3FC007F0
3F8007F8
7F8007F8
7F0007F0
7F0007F0
FF0007F0
FF000FF0
FF000FF0
FF000FE0
FF001FE0
FF001FE0
FF003FC0
FF807F80
7FC0FF80
7FFFFF00
7FFFFE00
3FFFFC00
1FFFF000
07FFE000
01FF0000
ENDCHAR
STARTCHAR 00F6
ENCODING 246
SWIDTH 620 0
DWIDTH 31 0
BBX 29 37 4 -1
BITMAP
001F87E0
001F87E0
001F87E0
003F8FE0
003F0FC0
003F0FC0
00000000
00000000
00000000
001FFE00
007FFF80
01FFFFC0
03FFFFE0
07FFFFE0
0FFC3FF0
1FF01FF0
1FE00FF0
3FC007F0
3F8007F8
7F8007F8
7F0007F0
7F0007F0
FF0007F0
FF000FF0
FF000FF0
FF000FE0
FF001FE0
FF001FE0
FF003FC0
FF807F80
7FC0FF80
7FFFFF00
7FFFFE00
3FFFFC00
1FFFF000
07FFE000
01FF0000
ENDCHAR
STARTCHAR 00F7
ENCODING 247
SWIDTH 580 0
DWIDTH 29 0
BBX 26 23 4 0
BITMAP
0003C000
0007C000
000FC000
000FC000
000FC000
00078000
00000000
00000000
7FFFFFC0
7FFFFFC0
7FFFFFC0
FFFFFFC0
FFFFFF80
FFFFFF80
00000000
00000000
00000000
003C0000
003E0000
007E0000
007E0000
007C0000
00380000
ENDCHAR
STARTCHAR 00F8
ENCODING 248
SWIDTH 620 0
DWIDTH 31 0
BBX 35 29 1 -2
BITMAP
0000000040
0003FFC0E0
000FFFF1E0
001FFFFFC0
007FFFFF00
00FFFFFE00
01FF87FE00
03FE03FE00
03FC01FE00
07F803FE00
07F007FF00
0FF01FFF00
0FF03CFE00
0FE078FE00
1FE0F0FE00
1FE3E1FE00
1FE781FE00
1FEF01FC00
1FFE03FC00
1FFC03FC00
1FF807F800
1FF00FF000
0FF81FF000
0FFFFFE000
1FFFFFC000
3FFFFF8000
7BFFFE0000
F0FFFC0000
E03FE00000
ENDCHAR
STARTCHAR 00F9
ENCODING 249
SWIDTH 620 0
DWIDTH 31 0
BBX 29 39 4 -1
BITMAP
0007C000
0003E000
0003E000
0001E000
0001F000
0000F000
00007000
00007000
00000000
00000000
00000000
0FE003F8
0FE007F0
0FE007F0
0FE007F0
1FC007F0
1FC007F0
1FC00FE0
1FC00FE0
3F800FE0
3F800FE0
3F800FE0
3F801FC0
3F801FC0
7F001FC0
7F001FC0
7F003FC0
7F003F80
7F003F80
FF007F80
FF007F80
FF00FF00
FF81FF00
FFFFFF00
FFFFFF00
7FFF7F00
7FFEFE00
3FF8FE00
0FE00000
ENDCHAR
STARTCHAR 00FA
ENCODING 250
SWIDTH 620 0
DWIDTH 31 0
BBX 29 39 4 -1
BITMAP
00001F80
00003F00
00003E00
00007C00
0000F800
0000F000
0001E000
0003C000
00000000
00000000
00000000
0FE003F8
0FE007F0
0FE007F0
0FE007F0
1FC007F0
1FC007F0
1FC00FE0
1FC00FE0
3F800FE0
3F800FE0
3F800FE0
3F801FC0
3F801FC0
7F001FC0
7F001FC0
7F003FC0
7F003F80
7F003F80
FF007F80
FF007F80
FF00FF00
FF81FF00
FFFFFF00
FFFFFF00
7FFF7F00
7FFEFE00
3FF8FE00
0FE00000
ENDCHAR
STARTCHAR 00FB
ENCODING 251
SWIDTH 620 0
DWIDTH 31 0
BBX 29 39 4 -1
BITMAP
0000FC00
0001FE00
0003DE00
00079F00
000F0F00
001E0780
003C0780
00000000
00000000
00000000
00000000
0FE003F8
0FE007F0
0FE007F0
0FE007F0
1FC007F0
1FC007F0
1FC00FE0
1FC00FE0
3F800FE0
3F800FE0
3F800FE0
3F801FC0
3F801FC0
7F001FC0
7F001FC0
7F003FC0
7F003F80
7F003F80
FF007F80
FF007F80
FF00FF00
FF81FF00
FFFFFF00
FFFFFF00
7FFF7F00
7FFEFE00
3FF8FE00
0FE00000
ENDCHAR
STARTCHAR 00FC
ENCODING 252
SWIDTH 620 0
DWIDTH 31 0
BBX 29 37 4 -1
BITMAP
001F87E0
001F87E0
001F87E0
003F8FE0
003F0FC0
003F0FC0
00000000
00000000
00000000
0FE003F8
0FE007F0
0FE007F0
0FE007F0
1FC007F0
1FC007F0
1FC00FE0
1FC00FE0
3F800FE0
3F800FE0
3F800FE0
3F801FC0
3F801FC0
7F001FC0
7F001FC0
7F003FC0
7F003F80
7F003F80
FF007F80
FF007F80
FF00FF00
FF81FF00
FFFFFF00
FFFFFF00
7FFF7F00
7FFEFE00
3FF8FE00
0FE00000
ENDCHAR
STARTCHAR 00FD
ENCODING 253
SWIDTH 560 0
DWIDTH 28 0
BBX 30 49 2 -11
BITMAP
00000FC0
00001F80
00001F00
00003E00
00007C00
00007800
0000F000
0001E000
00000000
00000000
00000000
0FF001FC
0FF001FC
07F003F8
07F003F8
07F007F0
07F007F0
07F80FE0
07F80FC0
07F81FC0
03F81F80
03F83F80
03F83F00
03F87F00
03F87E00
03F8FE00
03F8FC00
01F9F800
01FDF800
01FFF000
01FFF000
01FFE000
01FFE000
01FFC000
01FF8000
00FF8000
00FF0000
00FF0000
00FE0000
00FE0000
00FC0000
01FC0000
03F80000
7FF00000
7FF00000
7FE00000
FFC00000
FF800000
FC000000
ENDCHAR
STARTCHAR 00FE
ENCODING 254
SWIDTH 620 0
DWIDTH 31 0
BBX 32 47 1 -11
BITMAP
007F0000
007F0000
007F0000
007F0000
007F0000
00FE0000
00FE0000
00FE0000
00FE0000
00FE3FE0
01FC7FF0
01FDFFF8
01FFFFFC
01FFFFFC
03FFC7FE
03FF01FE
03FE01FE
03FC00FE
03F800FF
07F800FF
07F800FE
07F000FE
07F000FE
07F000FE
0FF001FE
0FF001FE
0FF003FC
0FF003FC
1FF007F8
1FF80FF8
1FF81FF0
1FFFFFE0
1FFFFFC0
3FBFFF80
3FBFFF00
3F9FFE00
3F87F000
3F800000
7F000000
7F000000
7F000000
7F000000
FF000000
FE000000
FE000000
FE000000
FE000000
ENDCHAR
STARTCHAR 00FF
ENCODING 255
SWIDTH 560 0
DWIDTH 28 0
BBX 30 48 2 -11
BITMAP
000FC3F0
000FC3F0
000FC3F0
001FC7F0
001F87E0
001F87E0
001F87E0
00000000
00000000
00000000
0FF001FC
0FF001FC
07F003F8
07F003F8
07F007F0
07F007F0
07F80FE0
07F80FC0
07F81FC0
03F81F80
03F83F80
03F83F00
03F87F00
03F87E00
03F8FE00
03F8FC00
01F9F800
01FDF800
01FFF000
01FFF000
01FFE000
01FFE000
01FFC000
01FF8000
00FF8000
00FF0000
00FF0000
00FE0000
00FE0000
00FC0000
01FC0000
03F80000
7FF00000
7FF00000
7FE00000
FFC00000
FF800000
FC000000
ENDCHAR
STARTCHAR 0100
ENCODING 256
SWIDTH 720 0
DWIDTH 36 0
BBX 33 44 2 0
BITMAP
00007FFF00
00007FFF00
0000FFFE00
0000FFFE00
0000000000
0000000000
0000000000
0000000000
00001FF000
00001FF000
00003FF800
00003FF800
00007FF800
00007FF800
0000FFF800
0001FFF800
0001FFF800
0003FBFC00
0003FBFC00
0007F3FC00
0007F3FC00
000FE3FC00
001FC1FC00
001FC1FC00
003F81FC00
003F81FE00
007F01FE00
007F01FE00
00FE01FE00
01FE00FE00
01FC00FE00
03FFFFFE00
03FFFFFF00
07FFFFFF00
07FFFFFF00
0FFFFFFF00
0FFFFFFF00
1FE0007F00
3FC0007F00
3FC0007F80
7F80007F80
7F00007F80
FF00007F80
FE00007F80
ENDCHAR
STARTCHAR 0101
ENCODING 257
SWIDTH 560 0
DWIDTH 28 0
BBX 27 36 3 -1
BITMAP
003FFF80
003FFF80
007FFF00
007FFF00
00000000
00000000
00000000
00000000
003FFE00
00FFFF00
01FFFF80
03FFFFC0
07FFFFC0
07F87FE0
0FE01FC0
0FC01FC0
00001FC0
00003FC0
0001FF80
007FFF80
03FFFF80
0FFFFF80
1FFFBF00
3FF07F00
3F807F00
7F007F00
7F00FF00
FF00FE00
FF01FE00
FF03FE00
FFFFFE00
FFFFFE00
7FFFFE00
7FFDFE00
1FF1FF00
0FC00000
ENDCHAR
STARTCHAR 0102
ENCODING 258
SWIDTH 720 0
DWIDTH 36 0
BBX 33 47 2 0
BITMAP
0000180180
0000180380
00001C0700
00001FFF00
00001FFE00
00000FFC00
000007F000
0000000000
0000000000
0000000000
0000000000
00001FF000
00001FF000
00003FF800
00003FF800
00007FF800
00007FF800
0000FFF800
0001FFF800
0001FFF800
0003FBFC00
0003FBFC00
0007F3FC00
0007F3FC00
000FE3FC00
001FC1FC00
001FC1FC00
003F81FC00
003F81FE00
007F01FE00
007F01FE00
00FE01FE00
01FE00FE00
01FC00FE00
03FFFFFE00
03FFFFFF00
07FFFFFF00
07FFFFFF00
0FFFFFFF00
0FFFFFFF00
1FE0007F00
3FC0007F00
3FC0007F80
7F80007F80
7F00007F80
FF00007F80
FE00007F80
ENDCHAR
STARTCHAR 0103
ENCODING 259
SWIDTH 560 0
DWIDTH 28 0
BBX 27 39 3 -1
BITMAP
000600E0
000600C0
000703C0
0007FF80
0007FF00
0003FE00
0001FC00
00000000
00000000
00000000
00000000
003FFE00
00FFFF00
01FFFF80
03FFFFC0
07FFFFC0
07F87FE0
0FE01FC0
0FC01FC0
00001FC0
00003FC0
0001FF80
007FFF80
03FFFF80
0FFFFF80
1FFFBF00
3FF07F00
3F807F00
7F007F00
7F00FF00
FF00FE00
FF01FE00
FF03FE00
FFFFFE00
FFFFFE00
7FFFFE00
7FFDFE00
1FF1FF00
0FC00000
ENDCHAR
STARTCHAR 0104
ENCODING 260
SWIDTH 720 0
DWIDTH 36 0
BBX 33 48 2 -12
BITMAP
00001FF000
00001FF000
00003FF800
00003FF800
00007FF800
00007FF800
0000FFF800
0001FFF800
0001FFF800
0003FBFC00
0003FBFC00
0007F3FC00
0007F3FC00
000FE3FC00
001FC1FC00
001FC1FC00
003F81FC00
003F81FE00
007F01FE00
007F01FE00
00FE01FE00
01FE00FE00
01FC00FE00
03FFFFFE00
03FFFFFF00
07FFFFFF00
07FFFFFF00
0FFFFFFF00
0FFFFFFF00
1FE0007F00
3FC0007F00
3FC0007F80
7F80007F80
7F00007F80
FF00007F80
FE00007F80
0000000F00
0000003C00
000000F800
000001F000
000003E000
000003C000
000007C000
000007C000
000007C000
000007FF00
000003FF00
000000FF00
ENDCHAR
STARTCHAR 0105
ENCODING 261
SWIDTH 560 0
DWIDTH 28 0
BBX 27 39 3 -11
BITMAP
003FFE00
00FFFF80
01FFFF80
03FFFFC0
07FFFFC0
07F83FE0
0FE01FC0
0FC01FC0
00001FC0
00003FC0
0001FFC0
007FFF80
03FFFF80
0FFFFF80
1FFFFF80
3FF03F80
3F803F80
7F003F80
7F007F00
FF007F00
FF00FF00
FF03FF00
FFFFFF00
FFFFFF00
7FFFFF00
7FFEFF00
1FF8FF00
0FE01E00
00007C00
0001F000
0003E000
0007C000
00078000
000F8000
000F8000
000F8000
000FFF00
0007FF00
0001FF00
ENDCHAR
STARTCHAR 0106
ENCODING 262
SWIDTH 720 0
DWIDTH 36 0
BBX 35 48 5 -1
BITMAP
000000FC00
000001F800
000001F000
000003E000
000007C000
0000078000
00000F0000
00001E0000
0000000000
0000000000
0000000000
0001FFE000
0007FFFC00
001FFFFE00
007FFFFF00
00FFFFFF80
01FFFFFFC0
03FF00FFC0
07FC003FC0
07F8003FC0
0FF0001FE0
1FE0001FE0
1FE0001FC0
3FC0000000
3FC0000000
3F80000000
7F80000000
7F80000000
7F00000000
7F00000000
FF00000000
FF00000000
FF00000000
FF00000000
FF00000000
FF0000FF00
FF0000FE00
FF0001FE00
FF0003FC00
7F8007FC00
7FC00FF800
7FF87FF800
3FFFFFF000
1FFFFFE000
0FFFFF8000
07FFFF0000
03FFFC0000
007FE00000
ENDCHAR
STARTCHAR 0107
ENCODING 263
SWIDTH 560 0
DWIDTH 28 0
BBX 27 39 4 -1
BITMAP
00003F00
00007E00
00007C00
0000F800
0001F000
0001E000
0003C000
00078000
00000000
00000000
00000000
001FF800
00FFFE00
01FFFF00
03FFFF80
07FFFFC0
0FF87FC0
1FE03FC0
1FC01FE0
3FC01FC0
3F800000
7F800000
7F000000
7F000000
7F000000
FF000000
FF000000
FF000000
FF000000
FF007F80
FF007F00
FF00FF00
7F81FE00
7FFFFC00
7FFFFC00
3FFFF800
1FFFE000
0FFFC000
01FE0000
ENDCHAR
STARTCHAR 0108
ENCODING 264
SWIDTH 720 0
DWIDTH 36 0
BBX 35 49 5 -1
BITMAP
000007E000
00000FE000
00000FF000
00001EF000
00003CF800
0000787800
0000F03C00
0001E03C00
0000000000
0000000000
0000000000
0000000000
0001FFE000
0007FFFC00
001FFFFE00
007FFFFF00
00FFFFFF80
01FFFFFFC0
03FF00FFC0
07FC003FC0
07F8003FC0
0FF0001FE0
1FE0001FE0
1FE0001FC0
3FC0000000
3FC0000000
3F80000000
7F80000000
7F80000000
7F00000000
7F00000000
FF00000000
FF00000000
FF00000000
FF00000000
FF00000000
FF0000FF00
FF0000FE00
FF0001FE00
FF0003FC00
7F8007FC00
7FC00FF800
7FF87FF800
3FFFFFF000
1FFFFFE000
0FFFFF8000
07FFFF0000
03FFFC0000
007FE00000
ENDCHAR
STARTCHAR 0109
ENCODING 265
SWIDTH 560 0
DWIDTH 28 0
BBX 27 39 4 -1
BITMAP
0001FC00
0003FC00
0007FE00
000F9E00
001E1F00
003C0F00
00780780
00000000
00000000
00000000
00000000
001FF800
00FFFE00
01FFFF00
03FFFF80
07FFFFC0
0FF87FC0
1FE03FC0
1FC01FE0
3FC01FC0
3F800000
7F800000
7F000000
7F000000
7F000000
FF000000
FF000000
FF000000
FF000000
FF007F80
FF007F00
FF00FF00
7F81FE00
7FFFFC00
7FFFFC00
3FFFF800
1FFFE000
0FFFC000
01FE0000
ENDCHAR
STARTCHAR 010A
ENCODING 266
SWIDTH 720 0
DWIDTH 36 0
BBX 35 45 5 -1
BITMAP
000007E000
00000FE000
00000FC000
00000FC000
00000FC000
00000FC000
0000000000
0000000000
0001FFE000
0007FFFC00
001FFFFE00
007FFFFF00
00FFFFFF80
01FFFFFFC0
03FF00FFC0
07FC003FC0
07F8003FC0
0FF0001FE0
1FE0001FE0
1FE0001FC0
3FC0000000
3FC0000000
3F80000000
7F80000000
7F80000000
7F00000000
7F00000000
FF00000000
FF00000000
FF00000000
FF00000000
FF00000000
FF0000FF00
FF0000FE00
FF0001FE00
FF0003FC00
7F8007FC00
7FC00FF800
7FF87FF800
3FFFFFF000
1FFFFFE000
0FFFFF8000
07FFFF0000
03FFFC0000
007FE00000
ENDCHAR
STARTCHAR 010B
ENCODING 267
SWIDTH 560 0
DWIDTH 28 0
BBX 27 38 4 -1
BITMAP
0001F800
0001F800
0001F800
0001F800
0003F000
0003F000
0003F000
00000000
00000000
00000000
001FF800
00FFFE00
01FFFF00
03FFFF80
07FFFFC0
0FF87FC0
1FE03FC0
1FC01FE0
3FC01FC0
3F800000
7F800000
7F000000
7F000000
7F000000
FF000000
FF000000
FF000000
FF000000
FF007F80
FF007F00
FF00FF00
7F81FE00
7FFFFC00
7FFFFC00
3FFFF800
1FFFE000
0FFFC000
01FE0000
ENDCHAR
STARTCHAR 010C
ENCODING 268
SWIDTH 720 0
DWIDTH 36 0
BBX 35 48 5 -1
BITMAP
0000F01E00
0000783C00
00007C7800
00003CF000
00003FE000
00001FC000
00001F8000
0000000000
0000000000
0000000000
0000000000
0001FFE000
0007FFFC00
001FFFFE00
007FFFFF00
00FFFFFF80
01FFFFFFC0
03FF00FFC0
07FC003FC0
07F8003FC0
0FF0001FE0
1FE0001FE0
1FE0001FC0
3FC0000000
3FC0000000
3F80000000
7F80000000
7F80000000
7F00000000
7F00000000
FF00000000
FF00000000
FF00000000
FF00000000
FF00000000
FF0000FF00
FF0000FE00
FF0001FE00
FF0003FC00
7F8007FC00
7FC00FF800
7FF87FF800
3FFFFFF000
1FFFFFE000
0FFFFF8000
07FFFF0000
03FFFC0000
007FE00000
ENDCHAR
STARTCHAR 010D
ENCODING 269
SWIDTH 560 0
DWIDTH 28 0
BBX 27 39 4 -1
BITMAP
003C0780
001E0F00
001F1E00
000F3C00
000FF800
0007F000
0007E000
00000000
00000000
00000000
00000000
001FF800
00FFFE00
01FFFF00
03FFFF80
07FFFFC0
0FF87FC0
1FE03FC0
1FC01FE0
3FC01FC0
3F800000
7F800000
7F000000
7F000000
7F000000
FF000000
FF000000
FF000000
FF000000
FF007F80
FF007F00
FF00FF00
7F81FE00
7FFFFC00
7FFFFC00
3FFFF800
1FFFE000
0FFFC000
01FE0000
ENDCHAR
STARTCHAR 010E
ENCODING 270
SWIDTH 720 0
DWIDTH 36 0
BBX 35 47 4 0
BITMAP
0003C07800
0001E0F000
0001F1E000
0000F3C000
0000FF8000
00007F0000
00007E0000
0000000000
0000000000
0000000000
0000000000
01FFFFE000
01FFFFF800
01FFFFFE00
01FFFFFF00
01FFFFFF80
03FFFFFF80
03FC03FFC0
03FC007FC0
03F8003FC0
03F8003FC0
07F8001FC0
07F8001FE0
07F0001FE0
07F0001FE0
0FF0001FC0
0FF0001FC0
0FF0001FC0
0FE0001FC0
0FE0003FC0
1FE0003FC0
1FE0003F80
1FC0007F80
1FC0007F80
1FC0007F00
3FC000FF00
3FC000FE00
3F8001FE00
3F8003FC00
7F800FFC00
7F807FF800
7FFFFFF000
7FFFFFE000
7FFFFFC000
FFFFFF0000
FFFFFC0000
FFFFE00000
ENDCHAR
STARTCHAR 010F
ENCODING 271
SWIDTH 760 0
DWIDTH 38 0
BBX 41 38 4 -1
BITMAP
000000001F80
000000FE1F00
000000FE3F00
000001FC3F00
000001FC0F00
000001FC1E00
000001FC7C00
000001FC7000
000003F80000
000003F80000
003FE3F80000
00FFF3F80000
01FFFBF80000
03FFFFF00000
07FFFFF00000
0FFC7FF00000
1FF03FF00000
1FE01FE00000
3FC00FE00000
3F800FE00000
7F800FE00000
7F000FE00000
7F000FC00000
FF000FC00000
FF001FC00000
FF001FC00000
FF001FC00000
FF003F800000
FF003F800000
FF007F800000
FF00FF800000
FF81FF000000
7FFFFF000000
7FFFFF000000
3FFFFF000000
1FFF7F000000
0FFCFE000000
03F000000000
ENDCHAR
STARTCHAR 0110
ENCODING 272
SWIDTH 720 0
DWIDTH 36 0
BBX 35 36 4 0
BITMAP
00FFFFE000
01FFFFF800
01FFFFFE00
01FFFFFF00
01FFFFFF80
03FFFFFF80
03FC03FFC0
03FC007FC0
03F8003FC0
03F8003FC0
07F8001FC0
07F8001FE0
07F0001FE0
07F0001FE0
0FF0001FC0
FFFFF01FC0
FFFFF01FC0
FFFFF03FC0
FFFFF03FC0
1FE0003FC0
1FE0003F80
1FC0007F80
1FC0007F80
1FC0007F00
3FC000FF00
3FC001FE00
3F8001FE00
3F8003FC00
7F8007F800
7F803FF800
7FFFFFF000
7FFFFFE000
7FFFFFC000
FFFFFF0000
FFFFFE0000
FFFFE00000
ENDCHAR
STARTCHAR 0111
ENCODING 273
SWIDTH 620 0
DWIDTH 31 0
BBX 33 37 4 -1
BITMAP
000000FE00
000000FE00
000001FC00
0000FFFF80
0000FFFF80
0000FFFF80
000001FC00
000003F800
000003F800
003FE3F800
00FFF3F800
01FFFBF800
03FFFFF000
07FFFFF000
0FFC7FF000
1FF03FF000
1FE01FE000
3FC00FE000
3F800FE000
7F800FE000
7F000FE000
7F000FC000
FF000FC000
FF001FC000
FF001FC000
FF001FC000
FF003F8000
FF003F8000
FF007F8000
FF00FF8000
FF81FF0000
7FFFFF0000
7FFFFF0000
3FFFFF0000
1FFF7F0000
0FFCFE0000
03F0000000
ENDCHAR
STARTCHAR 0112
ENCODING 274
SWIDTH 660 0
DWIDTH 33 0
BBX 34 44 4 0
BITMAP
0001FFFC00
0001FFFC00
0003FFF800
0003FFF800
0000000000
0000000000
0000000000
0000000000
00FFFFFFC0
01FFFFFFC0
01FFFFFFC0
01FFFFFF80
01FFFFFF80
01FFFFFF80
03FC000000
03FC000000
03F8000000
03F8000000
07F8000000
07F8000000
07F0000000
07F0000000
07FFFFFC00
0FFFFFF800
0FFFFFF800
0FFFFFF800
0FFFFFF800
1FFFFFF000
1FE0000000
1FE0000000
1FC0000000
1FC0000000
3FC0000000
3FC0000000
3F80000000
3F80000000
3F80000000
7F80000000
7FFFFFF000
7FFFFFF000
7FFFFFF000
FFFFFFF000
FFFFFFE000
FFFFFFE000
ENDCHAR
STARTCHAR 0113
ENCODING 275
SWIDTH 560 0
DWIDTH 28 0
BBX 27 36 3 -1
BITMAP
001FFFC0
001FFFC0
003FFF80
003FFF80
00000000
00000000
00000000
00000000
003FF800
00FFFE00
01FFFF00
03FFFF80
07FFFF80
0FF87FC0
1FE03FC0
1FC01FC0
3FC01FC0
3F801FE0
7F801FE0
7FFFFFC0
7FFFFFC0
7FFFFFC0
FFFFFFC0
FFFFFFC0
FF000000
FF000000
FF000000
FF007F00
FF007F00
7F81FE00
7FFFFC00
3FFFFC00
3FFFF800
1FFFE000
07FFC000
01FE0000
ENDCHAR
STARTCHAR 0114
ENCODING 276
SWIDTH 660 0
DWIDTH 33 0
BBX 34 47 4 0
BITMAP
0000600600
0000600E00
0000701C00
00007FFC00
00007FF800
00003FF000
00001FC000
0000000000
0000000000
0000000000
0000000000
00FFFFFFC0
01FFFFFFC0
01FFFFFFC0
01FFFFFF80
01FFFFFF80
01FFFFFF80
03FC000000
03FC000000
03F8000000
03F8000000
07F8000000
07F8000000
07F0000000
07F0000000
07FFFFFC00
0FFFFFF800
0FFFFFF800
0FFFFFF800
0FFFFFF800
1FFFFFF000
1FE0000000
1FE0000000
1FC0000000
1FC0000000
3FC0000000
3FC0000000
3F80000000
3F80000000
3F80000000
7F80000000
7FFFFFF000
7FFFFFF000
7FFFFFF000
FFFFFFF000
FFFFFFE000
FFFFFFE000
ENDCHAR
STARTCHAR 0115
ENCODING 277
SWIDTH 560 0
DWIDTH 28 0
BBX 27 39 3 -1
BITMAP
000C01C0
000C0180
000E0780
000FFF00
000FFE00
0007FC00
0003F800
00000000
00000000
00000000
00000000
003FF800
00FFFE00
01FFFF00
03FFFF80
07FFFF80
0FF87FC0
1FE03FC0
1FC01FC0
3FC01FC0
3F801FE0
7F801FE0
7FFFFFC0
7FFFFFC0
7FFFFFC0
FFFFFFC0
FFFFFFC0
FF000000
FF000000
FF000000
FF007F00
FF007F00
7F81FE00
7FFFFC00
3FFFFC00
3FFFF800
1FFFE000
07FFC000
01FE0000
ENDCHAR
STARTCHAR 0116
ENCODING 278
SWIDTH 660 0
DWIDTH 33 0
BBX 34 44 4 0
BITMAP
00000FC000
00000FC000
00000FC000
00000FC000
00001F8000
00001F8000
0000000000
0000000000
00FFFFFFC0
01FFFFFFC0
01FFFFFFC0
01FFFFFF80
01FFFFFF80
01FFFFFF80
03FC000000
03FC000000
03F8000000
03F8000000
07F8000000
07F8000000
07F0000000
07F0000000
07FFFFFC00
0FFFFFF800
0FFFFFF800
0FFFFFF800
0FFFFFF800
1FFFFFF000
1FE0000000
1FE0000000
1FC0000000
1FC0000000
3FC0000000
3FC0000000
3F80000000
3F80000000
3F80000000
7F80000000
7FFFFFF000
7FFFFFF000
7FFFFFF000
FFFFFFF000
FFFFFFE000
FFFFFFE000
ENDCHAR
STARTCHAR 0117
ENCODING 279
SWIDTH 560 0
DWIDTH 28 0
BBX 27 38 3 -1
BITMAP
0001F800
0001F800
0003F000
0003F000
0003F000
0003F000
0007F000
00000000
00000000
00000000
003FF800
00FFFE00
01FFFF00
03FFFF80
07FFFF80
0FF87FC0
1FE03FC0
1FC01FC0
3FC01FC0
3F801FE0
7F801FE0
7FFFFFC0
7FFFFFC0
7FFFFFC0
FFFFFFC0
FFFFFFC0
FF000000
FF000000
FF000000
FF007F00
FF007F00
7F81FE00
7FFFFC00
3FFFFC00
3FFFF800
1FFFE000
07FFC000
01FE0000
ENDCHAR
STARTCHAR 0118
ENCODING 280
SWIDTH 660 0
DWIDTH 33 0
BBX 34 48 4 -12
BITMAP
00FFFFFFC0
01FFFFFFC0
01FFFFFFC0
01FFFFFF80
01FFFFFF80
01FFFFFF80
03FC000000
03FC000000
03F8000000
03F8000000
07F8000000
07F8000000
07F0000000
07F0000000
07FFFFFC00
0FFFFFF800
0FFFFFF800
0FFFFFF800
0FFFFFF800
1FFFFFF000
1FE0000000
1FE0000000
1FC0000000
1FC0000000
3FC0000000
3FC0000000
3F80000000
3F80000000
3F80000000
7F80000000
7FFFFFF800
7FFFFFF000
7FFFFFF000
FFFFFFF000
FFFFFFF000
FFFFFFF000
000003E000
00000F8000
00001F0000
00003E0000
00007C0000
0000780000
0000F80000
0000F80000
0000F80000
0000FFE000
00007FE000
00001FE000
ENDCHAR
STARTCHAR 0119
ENCODING 281
SWIDTH 560 0
DWIDTH 28 0
BBX 27 39 3 -11
BITMAP
003FF800
00FFFE00
01FFFF00
03FFFF80
07FFFF80
0FF87FC0
1FE03FC0
1FC03FC0
3F801FC0
3F801FE0
7F801FE0
7FFFFFC0
7FFFFFC0
7FFFFFC0
FFFFFFC0
FFFFFFC0
FF000000
FF000000
FF000000
FF007F00
FF007F00
7F81FE00
7FFFFC00
3FFFFC00
3FFFF000
1FFFE000
07FFC000
01FF8000
000F0000
001E0000
003C0000
007C0000
00F80000
00F80000
00F80000
00F80000
00FFE000
007FC000
001FC000
ENDCHAR
STARTCHAR 011A
ENCODING 282
SWIDTH 660 0
DWIDTH 33 0
BBX 34 47 4 0
BITMAP
0001E03C00
0000F07800
0000F8F000
000079E000
00007FC000
00003F8000
00003F0000
0000000000
0000000000
0000000000
0000000000
00FFFFFFC0
01FFFFFFC0
01FFFFFFC0
01FFFFFF80
01FFFFFF80
01FFFFFF80
03FC000000
03FC000000
03F8000000
03F8000000
07F8000000
07F8000000
07F0000000
07F0000000
07FFFFFC00
0FFFFFF800
0FFFFFF800
0FFFFFF800
0FFFFFF800
1FFFFFF000
1FE0000000
1FE0000000
1FC0000000
1FC0000000
3FC0000000
3FC0000000
3F80000000
3F80000000
3F80000000
7F80000000
7FFFFFF000
7FFFFFF000
7FFFFFF000
FFFFFFF000
FFFFFFE000
FFFFFFE000
ENDCHAR
STARTCHAR 011B
ENCODING 283
SWIDTH 560 0
DWIDTH 28 0
BBX 27 39 3 -1
BITMAP
001E03C0
000F0780
000F8F00
00079E00
0007FC00
0003F800
0003F000
00000000
00000000
00000000
00000000
003FF800
00FFFE00
01FFFF00
03FFFF80
07FFFF80
0FF87FC0
1FE03FC0
1FC01FC0
3FC01FC0
3F801FE0
7F801FE0
7FFFFFC0
7FFFFFC0
7FFFFFC0
FFFFFFC0
FFFFFFC0
FF000000
FF000000
FF000000
FF007F00
FF007F00
7F81FE00
7FFFFC00
3FFFFC00
3FFFF800
1FFFE000
07FFC000
01FE0000
ENDCHAR
STARTCHAR 011C
ENCODING 284
SWIDTH 780 0
DWIDTH 39 0
BBX 36 48 5 -1
BITMAP
000007F000
00000FF000
00001EF800
00003C7800
0000787C00
0000F03C00
0001E01E00
0000000000
0000000000
0000000000
0000000000
0000FFF000
0007FFFC00
001FFFFF00
003FFFFF80
00FFFFFFC0
01FFFFFFC0
03FF007FE0
03FC001FE0
07F8000FE0
0FF0000FF0
0FE00007F0
1FE0000000
1FC0000000
3FC0000000
3F80000000
7F80000000
7F00000000
7F000FFFE0
7F000FFFC0
FF001FFFC0
FF001FFFC0
FF001FFFC0
FF001FFFC0
FF00001F80
FF00003F80
FF00003F80
FF80007F80
FF8000FF00
7FC001FF00
7FE003FF00
3FFC1FFF00
3FFFFFFF00
1FFFFFBE00
0FFFFF3E00
07FFFE3E00
01FFF83E00
003FE00000
ENDCHAR
STARTCHAR 011D
ENCODING 285
SWIDTH 620 0
DWIDTH 31 0
BBX 31 51 2 -11
BITMAP
00003F00
00007F80
0000FF80
0001F7C0
0001E3C0
0003C3E0
000781E0
000F00F0
00000000
00000000
00000000
00000000
00000000
000FF0FE
003FFCFC
007FFCFC
00FFFFFC
01FFFFFC
03FF1FFC
07FC0FF8
07F807F8
0FF003F8
0FE003F8
1FE003F8
1FE003F0
1FC003F0
1FC003F0
3FC003F0
3FC007E0
3FC007E0
3FC00FE0
3FC00FE0
3FC01FE0
3FC03FC0
3FE07FC0
1FFFFFC0
1FFFFFC0
0FFFFFC0
07FF9F80
03FF3F80
00FC3F80
00003F80
00003F00
FE007F00
FE00FE00
FF01FE00
FFFFFC00
FFFFF800
7FFFF000
3FFFC000
07FE0000
ENDCHAR
STARTCHAR 011E
ENCODING 286
SWIDTH 780 0
DWIDTH 39 0
BBX 36 48 5 -1
BITMAP
0000300300
0000300700
0000380E00
00003FFE00
00003FFC00
00001FF800
00000FE000
0000000000
0000000000
0000000000
0000000000
0000FFF000
0007FFFC00
001FFFFF00
003FFFFF80
00FFFFFFC0
01FFFFFFC0
03FF007FE0
03FC001FE0
07F8000FE0
0FF0000FF0
0FE00007F0
1FE0000000
1FC0000000
3FC0000000
3F80000000
7F80000000
7F00000000
7F000FFFE0
7F000FFFC0
FF001FFFC0
FF001FFFC0
FF001FFFC0
FF001FFFC0
FF00001F80
FF00003F80
FF00003F80
FF80007F80
FF8000FF00
7FC001FF00
7FE003FF00
3FFC1FFF00
3FFFFFFF00
1FFFFFBE00
0FFFFF3E00
07FFFE3E00
01FFF83E00
003FE00000
ENDCHAR
STARTCHAR 011F
ENCODING 287
SWIDTH 620 0
DWIDTH 31 0
BBX 31 49 2 -11
BITMAP
00030070
00030060
000381E0
0003FFC0
0003FF80
0001FF00
0000FE00
00000000
00000000
00000000
00000000
000FF0FE
003FFCFC
007FFCFC
00FFFFFC
01FFFFFC
03FF1FFC
07FC0FF8
07F807F8
0FF003F8
0FE003F8
1FE003F8
1FE003F0
1FC003F0
1FC003F0
3FC003F0
3FC007E0
3FC007E0
3FC00FE0
3FC00FE0
3FC01FE0
3FC03FC0
3FE07FC0
1FFFFFC0
1FFFFFC0
0FFFFFC0
07FF9F80
03FF3F80
00FC3F80
00003F80
00003F00
FE007F00
FE00FE00
FF01FE00
FFFFFC00
FFFFF800
7FFFF000
3FFFC000
07FE0000
ENDCHAR
STARTCHAR 0120
ENCODING 288
SWIDTH 780 0
DWIDTH 39 0
BBX 36 45 5 -1
BITMAP
000007E000
000007E000
00000FC000
00000FC000
00000FC000
00000FC000
0000000000
0000000000
0000FFF000
0007FFFC00
001FFFFF00
003FFFFF80
00FFFFFFC0
01FFFFFFC0
03FF007FE0
03FC001FE0
07F8000FE0
0FF0000FF0
0FE00007F0
1FE0000000
1FC0000000
3FC0000000
3F80000000
7F80000000
7F00000000
7F000FFFE0
7F000FFFC0
FF001FFFC0
FF001FFFC0
FF001FFFC0
FF001FFFC0
FF00001F80
FF00003F80
FF00003F80
FF80007F80
FF8000FF00
7FC001FF00
7FE003FF00
3FFC1FFF00
3FFFFFFF00
1FFFFFBE00
0FFFFF3E00
07FFFE3E00
01FFF83E00
003FE00000
ENDCHAR
STARTCHAR 0121
ENCODING 289
SWIDTH 620 0
DWIDTH 31 0
BBX 31 48 2 -11
BITMAP
00003F00
00003F00
00003F00
00007E00
00007E00
00007E00
00007E00
00000000
00000000
00000000
000FF0FE
003FFCFC
007FFCFC
00FFFFFC
01FFFFFC
03FF1FFC
07FC0FF8
07F807F8
0FF003F8
0FE003F8
1FE003F8
1FE003F0
1FC003F0
1FC003F0
3FC003F0
3FC007E0
3FC007E0
3FC00FE0
3FC00FE0
3FC01FE0
3FC03FC0
3FE07FC0
1FFFFFC0
1FFFFFC0
0FFFFFC0
07FF9F80
03FF3F80
00FC3F80
00003F80
00003F00
FE007F00
FE00FE00
FF01FE00
FFFFFC00
FFFFF800
7FFFF000
3FFFC000
07FE0000
ENDCHAR
STARTCHAR 0122
ENCODING 290
SWIDTH 780 0
DWIDTH 39 0
BBX 36 51 5 -14
BITMAP
0000FFF000
0007FFFC00
001FFFFF00
003FFFFF80
00FFFFFFC0
01FFFFFFC0
03FF007FE0
03FC001FE0
07F8000FE0
0FF0000FF0
0FE00007F0
1FE0000000
1FC0000000
3FC0000000
3F80000000
7F80000000
7F00000000
7F000FFFE0
7F000FFFC0
FF001FFFC0
FF001FFFC0
FF001FFFC0
FF001FFFC0
FF00001F80
FF00003F80
FF00003F80
FF80007F80
FF8000FF00
7FC001FF00
7FE003FF00
3FFC1FFF00
3FFFFFFF00
1FFFFFBE00
0FFFFF3E00
07FFFE3E00
01FFF83E00
003FE00000
0000000000
0000000000
0000000000
001F800000
001F800000
001F800000
001F800000
001F800000
0003000000
0007000000
000E000000
003E000000
007C000000
0060000000
ENDCHAR
STARTCHAR 0123
ENCODING 291
SWIDTH 620 0
DWIDTH 31 0
BBX 31 53 2 -11
BITMAP
00000300
00001F00
00003E00
00003800
00007000
00006000
0000FC00
0000FC00
0000FC00
0000FC00
0000FC00
00000000
00000000
00000000
00000000
000FF0FE
003FFCFC
007FFCFC
00FFFFFC
01FFFFFC
03FF1FFC
07FC0FF8
07F807F8
0FF003F8
0FE003F8
1FE003F8
1FE003F0
1FC003F0
1FC003F0
3FC003F0
3FC007E0
3FC007E0
3FC00FE0
3FC00FE0
3FC01FE0
3FC03FC0
3FE07FC0
1FFFFFC0
1FFFFFC0
0FFFFFC0
07FF9F80
03FF3F80
00FC3F80
00003F80
00003F00
FE007F00
FE00FE00
FF01FE00
FFFFFC00
FFFFF800
7FFFF000
3FFFC000
07FE0000
ENDCHAR
STARTCHAR 0124
ENCODING 292
SWIDTH 720 0
DWIDTH 36 0
BBX 36 47 4 0
BITMAP
000007E000
00000FF000
00001FF000
00003CF800
0000787800
0000F07C00
0001E03C00
0000000000
0000000000
0000000000
0000000000
01FE0007F0
01FC0007F0
01FC0007F0
03FC000FF0
03FC000FF0
03F8000FE0
03F8000FE0
03F8001FE0
07F8001FE0
07F8001FE0
07F0001FC0
07F0001FC0
0FF0003FC0
0FF0003FC0
0FFFFFFF80
0FFFFFFF80
0FFFFFFF80
1FFFFFFF80
1FFFFFFF80
1FFFFFFF00
1FC0007F00
1FC000FF00
3FC000FF00
3FC000FF00
3F8000FE00
3F8000FE00
7F8001FE00
7F8001FE00
7F0001FC00
7F0001FC00
7F0001FC00
FF0003FC00
FF0003FC00
FE0003F800
FE0003F800
FE0007F800
ENDCHAR
STARTCHAR 0125
ENCODING 293
SWIDTH 620 0
DWIDTH 31 0
BBX 29 47 3 0
BITMAP
00003F80
00003F80
00007FC0
0000F3C0
0001E3E0
0003C1E0
000780F0
00000000
00000000
00000000
00000000
00FE0000
00FE0000
00FE0000
01FC0000
01FC0000
01FC0000
01FC0000
03F80000
03F80000
03F87F80
03F9FFE0
03FBFFF0
07F7FFF0
07FFFFF0
07FF1FF8
07FC0FF8
07F807F0
0FF007F0
0FE007F0
0FE007F0
0FE007F0
1FC00FE0
1FC00FE0
1FC00FE0
1FC00FE0
1FC00FE0
3F801FC0
3F801FC0
3F801FC0
3F801FC0
3F801FC0
7F003F80
7F003F80
7F003F80
7F003F80
FE007F00
ENDCHAR
STARTCHAR 0126
ENCODING 294
SWIDTH 720 0
DWIDTH 36 0
BBX 38 36 0 0
BITMAP
01FE0007F8
01FC0007F0
01FC0007F0
01FC000FF0
03FC000FF0
03FC000FF0
03F8000FE0
1FFFFFFFFC
3FFFFFFFFC
3FFFFFFFFC
07F0001FC0
07F0001FC0
07F0001FC0
0FF0003FC0
0FFFFFFFC0
0FFFFFFF80
0FFFFFFF80
0FFFFFFF80
1FFFFFFF80
1FFFFFFF80
1FC0007F00
1FC0007F00
3FC000FF00
3FC000FF00
3F8000FE00
3F8000FE00
3F8000FE00
7F8001FE00
7F8001FE00
7F0001FC00
7F0001FC00
7F0003FC00
FF0003FC00
FF0003FC00
FE0003F800
FE0003F800
ENDCHAR
STARTCHAR 0127
ENCODING 295
SWIDTH 620 0
DWIDTH 31 0
BBX 28 36 4 0
BITMAP
01FC0000
01FC0000
01FC0000
03F80000
1FFFF000
1FFFF000
1FFFF000
07F00000
07F00000
07F0FF00
07F3FFC0
07F7FFE0
0FEFFFE0
0FFFFFE0
0FFFFFF0
0FF81FF0
0FF00FE0
1FE00FE0
1FC00FE0
1FC00FE0
1FC01FC0
3FC01FC0
3F801FC0
3F801FC0
3F801F80
3F803F80
7F003F80
7F003F80
7F003F80
7F007F00
7F007F00
FE007F00
FE007F00
FE007F00
FE00FE00
FE00FE00
ENDCHAR
STARTCHAR 0128
ENCODING 296
SWIDTH 280 0
DWIDTH 14 0
BBX 23 46 3 0
BITMAP
00000E
01F80C
03FE1C
07FFF8
0F3FF8
0E0FF0
0C0180
000000
000000
000000
00FE00
01FE00
01FE00
01FE00
01FC00
01FC00
03FC00
03FC00
03F800
03F800
03F800
07F800
07F800
07F000
07F000
0FF000
0FF000
0FE000
0FE000
0FE000
1FE000
1FE000
1FC000
1FC000
3FC000
3FC000
3FC000
3F8000
3F8000
7F8000
7F8000
7F0000
7F0000
7F0000
FF0000
FF0000
ENDCHAR
STARTCHAR 0129
ENCODING 297
SWIDTH 300 0
DWIDTH 15 0
BBX 20 38 4 0
BITMAP
000030
0FE070
1FF8F0
1FFFE0
3CFFC0
383F80
700E00
000000
000000
000000
000000
07F000
07F000
07F000
07F000
0FE000
0FE000
0FE000
0FE000
1FC000
1FC000
1FC000
1FC000
1FC000
3F8000
3F8000
3F8000
3F8000
3F8000
7F0000
7F0000
7F0000
7F0000
FF0000
FE0000
FE0000
FE0000
FE0000
ENDCHAR
STARTCHAR 012A
ENCODING 298
SWIDTH 280 0
DWIDTH 14 0
BBX 21 44 3 0
BITMAP
03FFF8
03FFF8
07FFF0
07FFF0
000000
000000
000000
000000
00FE00
01FE00
01FE00
01FE00
01FC00
01FC00
03FC00
03FC00
03F800
03F800
03F800
07F800
07F800
07F000
07F000
0FF000
0FF000
0FE000
0FE000
0FE000
1FE000
1FE000
1FC000
1FC000
3FC000
3FC000
3FC000
3F8000
3F8000
7F8000
7F8000
7F0000
7F0000
7F0000
FF0000
FF0000
ENDCHAR
STARTCHAR 012B
ENCODING 299
SWIDTH 300 0
DWIDTH 15 0
BBX 18 35 4 0
BITMAP
1FFFC0
1FFFC0
3FFF80
3FFF80
000000
000000
000000
000000
03F800
07F000
07F000
07F000
07F000
07F000
0FE000
0FE000
0FE000
0FE000
0FE000
1FC000
1FC000
1FC000
1FC000
3F8000
3F8000
3F8000
3F8000
3F8000
7F0000
7F0000
7F0000
7F0000
7F0000
FE0000
FE0000
ENDCHAR
STARTCHAR 012C
ENCODING 300
SWIDTH 280 0
DWIDTH 14 0
BBX 21 47 3 0
BITMAP
018038
01C070
01F1F0
01FFE0
00FFC0
007F80
000800
000000
000000
000000
000000
00FE00
01FE00
01FE00
01FE00
01FC00
01FC00
03FC00
03FC00
03F800
03F800
03F800
07F800
07F800
07F000
07F000
0FF000
0FF000
0FE000
0FE000
0FE000
1FE000
1FE000
1FC000
1FC000
3FC000
3FC000
3FC000
3F8000
3F8000
7F8000
7F8000
7F0000
7F0000
7F0000
FF0000
FF0000
ENDCHAR
STARTCHAR 012D
ENCODING 301
SWIDTH 300 0
DWIDTH 15 0
BBX 18 39 4 0
BITMAP
0600C0
0E01C0
07CF80
07FF80
07FF00
03FC00
000000
000000
000000
000000
000000
000000
07F000
07F000
07F000
07F000
0FE000
0FE000
0FE000
0FE000
1FC000
1FC000
1FC000
1FC000
1FC000
3F8000
3F8000
3F8000
3F8000
3F8000
7F0000
7F0000
7F0000
7F0000
FF0000
FE0000
FE0000
FE0000
FE0000
ENDCHAR
STARTCHAR 012E
ENCODING 302
SWIDTH 280 0
DWIDTH 14 0
BBX 18 48 0 -12
BITMAP
001FC0
001FC0
003FC0
003FC0
003F80
003F80
003F80
007F80
007F80
007F00
007F00
00FF00
00FF00
00FF00
00FE00
00FE00
01FE00
01FE00
01FC00
01FC00
01FC00
03FC00
03FC00
03F800
03F800
07F800
07F800
07F800
07F000
07F000
0FF000
0FF000
0FE000
0FE000
0FE000
1FE000
01C000
070000
0E0000
3C0000
7C0000
780000
F80000
F80000
F80000
FFC000
7FC000
1FC000
ENDCHAR
STARTCHAR 012F
ENCODING 303
SWIDTH 280 0
DWIDTH 14 0
BBX 17 48 0 -12
BITMAP
003F80
003F80
003F80
003F80
003F80
007F00
000000
000000
000000
007F00
00FE00
00FE00
00FE00
00FE00
01FC00
01FC00
01FC00
01FC00
01FC00
03F800
03F800
03F800
03F800
03F800
07F000
07F000
07F000
07F000
0FE000
0FE000
0FE000
0FE000
0FE000
1FC000
1FC000
1FC000
038000
070000
1E0000
3C0000
7C0000
780000
F80000
F80000
F80000
FFC000
7F8000
1F8000
ENDCHAR
STARTCHAR 0130
ENCODING 304
SWIDTH 280 0
DWIDTH 14 0
BBX 17 44 3 0
BITMAP
001F80
003F80
003F00
003F00
003F00
003F00
000000
000000
00FE00
01FE00
01FE00
01FE00
01FC00
01FC00
03FC00
03FC00
03F800
03F800
03F800
07F800
07F800
07F000
07F000
0FF000
0FF000
0FE000
0FE000
0FE000
1FE000
1FE000
1FC000
1FC000
3FC000
3FC000
3FC000
3F8000
3F8000
7F8000
7F8000
7F0000
7F0000
7F0000
FF0000
FF0000
ENDCHAR
STARTCHAR 0131
ENCODING 305
SWIDTH 280 0
DWIDTH 14 0
BBX 13 27 3 0
BITMAP
03F8
07F0
07F0
07F0
07F0
07F0
0FE0
0FE0
0FE0
0FE0
0FE0
1FC0
1FC0
1FC0
1FC0
3F80
3F80
3F80
3F80
3F80
7F00
7F00
7F00
7F00
7F00
FE00
FE00
ENDCHAR
STARTCHAR 0132
ENCODING 306
SWIDTH 600 0
DWIDTH 30 0
BBX 29 37 5 -1
BITMAP
03F807F8
03F807F8
07F807F0
07F807F0
07F007F0
07F00FF0
0FF00FF0
0FF00FE0
0FF00FE0
0FE01FE0
0FE01FE0
1FE01FE0
1FE01FC0
1FE01FC0
1FC03FC0
1FC03FC0
3FC03F80
3FC03F80
00003F80
00007F80
00007F80
00007F00
00007F00
7F00FF00
7F00FF00
FF00FF00
FF00FE00
FF00FE00
FF01FE00
FF03FC00
FF87FC00
FFFFF800
7FFFF800
7FFFF000
3FFFE000
1FFF8000
07FC0000
ENDCHAR
STARTCHAR 0133
ENCODING 307
SWIDTH 480 0
DWIDTH 24 0
BBX 26 47 3 -11
BITMAP
00FE1FC0
01FC1FC0
01FC1FC0
01FC3FC0
01FC3F80
01FC3F80
00000000
00000000
00000000
03F87F00
07F87F00
07F07F00
07F07F00
07F0FE00
07F0FE00
0FE0FE00
0FE0FE00
0FE0FE00
0FE1FC00
0FE1FC00
1FC1FC00
1FC1FC00
1FC3F800
1FC3F800
3F83F800
3F83F800
3F83F800
3F87F000
3F87F000
7F07F000
7F07F000
7F07F000
7F0FE000
7F0FE000
FE0FE000
FE0FE000
001FE000
001FC000
001FC000
001FC000
003FC000
01FF8000
01FF8000
01FF8000
03FF0000
03FE0000
03F00000
ENDCHAR
STARTCHAR 0134
ENCODING 308
SWIDTH 560 0
DWIDTH 28 0
BBX 29 48 3 -1
BITMAP
00007E00
0000FF00
0001EF00
0003CF80
00078780
000F03C0
001E03C0
00000000
00000000
00000000
00000000
000007F8
000007F8
000007F0
000007F0
000007F0
00000FF0
00000FF0
00000FE0
00000FE0
00000FE0
00001FE0
00001FE0
00001FC0
00001FC0
00003FC0
00003FC0
00003FC0
00003F80
00003F80
00007F80
00007F80
00007F00
00007F00
7F007F00
7F00FF00
FF00FF00
FF00FE00
FF00FE00
FF01FE00
FF03FC00
FF87FC00
FFFFF800
7FFFF800
7FFFF000
3FFFE000
1FFF8000
07FC0000
ENDCHAR
STARTCHAR 0135
ENCODING 309
SWIDTH 300 0
DWIDTH 15 0
BBX 23 49 -1 -11
BITMAP
0003F0
0007F8
000FF8
001E7C
003C3C
00783E
00F01E
000000
000000
000000
000000
001FC0
001FC0
001FC0
003FC0
003F80
003F80
003F80
003F80
007F00
007F00
007F00
007F00
007F00
00FE00
00FE00
00FE00
00FE00
00FE00
01FC00
01FC00
01FC00
01FC00
03F800
03F800
03F800
03F800
03F800
07F000
07F000
07F000
07F000
0FF000
7FE000
7FE000
7FC000
FFC000
FF8000
FC0000
ENDCHAR
STARTCHAR 0136
ENCODING 310
SWIDTH 720 0
DWIDTH 36 0
BBX 38 51 4 -15
BITMAP
01FE0007FC
01FE000FF0
01FC003FE0
01FC007FC0
03FC00FF80
03FC01FF00
03FC03FE00
03F807FC00
03F80FF000
07F81FE000
07F87FC000
07F0FF8000
07F1FF0000
07F3FE0000
0FF7FC0000
0FFFF00000
0FFFF80000
0FFFF80000
1FFFFC0000
1FFFFC0000
1FFFFE0000
1FF9FE0000
1FF1FF0000
3FE0FF8000
3FC0FF8000
3F807FC000
3F803FC000
3F803FE000
7F801FE000
7F801FF000
7F000FF800
7F000FF800
FF0007FC00
FF0003FC00
FF0003FE00
FE0001FF00
0000000000
0000000000
0000000000
0000000000
001F800000
001F800000
001F800000
001F800000
001F800000
0003000000
0007000000
000E000000
003E000000
007C000000
0060000000
ENDCHAR
STARTCHAR 0137
ENCODING 311
SWIDTH 560 0
DWIDTH 28 0
BBX 29 51 3 -15
BITMAP
00FE0000
01FC0000
01FC0000
01FC0000
01FC0000
01FC0000
03F80000
03F80000
03F80000
03F807F8
07F00FF0
07F01FE0
07F03FC0
07F07F00
07F0FE00
0FE1FC00
0FE3F800
0FE7F000
0FEFE000
1FFFC000
1FFFC000
1FFFE000
1FFFE000
1FFFF000
3FFFF000
3FE7F000
3FC7F800
3F87F800
3F83FC00
7F03FC00
7F03FC00
7F01FE00
7F01FE00
FF01FE00
FE00FF00
FE00FF00
00000000
00000000
00000000
00000000
01F80000
01F80000
01F80000
01F80000
01F80000
00300000
00700000
00E00000
03E00000
07C00000
06000000
ENDCHAR
STARTCHAR 0138
ENCODING 312
SWIDTH 520 0
DWIDTH 26 0
BBX 28 27 3 0
BITMAP
03F80FF0
07F01FE0
07F03F80
07F07F00
07F0FE00
07F1FC00
0FE3F800
0FE7F000
0FEFE000
0FFFC000
1FFF8000
1FFF0000
1FFE0000
1FFF0000
1FFF0000
3FFF8000
3FFFC000
3FFFC000
3FBFE000
3F9FF000
7F1FF000
7F0FF800
7F0FF800
7F07FC00
FF03FE00
FE03FE00
FE01FF00
ENDCHAR
STARTCHAR 0139
ENCODING 313
SWIDTH 620 0
DWIDTH 31 0
BBX 26 47 4 0
BITMAP
00007E00
0000FC00
0000F800
0001F000
0003E000
0003C000
00078000
000F0000
00000000
00000000
00000000
00FE0000
01FE0000
01FE0000
01FE0000
01FC0000
01FC0000
03FC0000
03FC0000
03F80000
03F80000
03F80000
07F80000
07F80000
07F00000
07F00000
0FF00000
0FF00000
0FE00000
0FE00000
0FE00000
1FE00000
1FE00000
1FC00000
1FC00000
3FC00000
3FC00000
3FC00000
3F800000
3F800000
7F800000
7FFFFFC0
7FFFFFC0
7FFFFFC0
7FFFFF80
FFFFFF80
FFFFFF80
ENDCHAR
STARTCHAR 013A
ENCODING 314
SWIDTH 280 0
DWIDTH 14 0
BBX 19 47 3 0
BITMAP
0007E0
000FC0
000F80
001F00
003E00
003C00
007800
00F000
000000
000000
000000
00FE00
01FC00
01FC00
01FC00
01FC00
01FC00
03F800
03F800
03F800
03F800
07F800
07F000
07F000
07F000
07F000
0FE000
0FE000
0FE000
0FE000
0FE000
1FC000
1FC000
1FC000
1FC000
3F8000
3F8000
3F8000
3F8000
3F8000
7F0000
7F0000
7F0000
7F0000
7F0000
FE0000
FE0000
ENDCHAR
STARTCHAR 013B
ENCODING 315
SWIDTH 620 0
DWIDTH 31 0
BBX 26 51 4 -15
BITMAP
00FE0000
01FE0000
01FE0000
01FE0000
01FC0000
01FC0000
03FC0000
03FC0000
03F80000
03F80000
03F80000
07F80000
07F80000
07F00000
07F00000
0FF00000
0FF00000
0FE00000
0FE00000
0FE00000
1FE00000
1FE00000
1FC00000
1FC00000
3FC00000
3FC00000
3FC00000
3F800000
3F800000
7F800000
7FFFFFC0
7FFFFFC0
7FFFFFC0
7FFFFF80
FFFFFF80
FFFFFF80
00000000
00000000
00000000
00000000
007E0000
007E0000
007E0000
007E0000
007E0000
000C0000
001C0000
00380000
00F80000
01F00000
01800000
ENDCHAR
STARTCHAR 013C
ENCODING 316
SWIDTH 280 0
DWIDTH 14 0
BBX 17 51 1 -15
BITMAP
003F80
007F00
007F00
007F00
007F00
007F00
00FE00
00FE00
00FE00
00FE00
01FE00
01FC00
01FC00
01FC00
01FC00
03F800
03F800
03F800
03F800
03F800
07F000
07F000
07F000
07F000
0FE000
0FE000
0FE000
0FE000
0FE000
1FC000
1FC000
1FC000
1FC000
1FC000
3F8000
3F8000
000000
000000
000000
000000
3F0000
3F0000
3F0000
3F0000
3F0000
060000
0E0000
1C0000
7C0000
F80000
C00000
ENDCHAR
STARTCHAR 013D
ENCODING 317
SWIDTH 620 0
DWIDTH 31 0
BBX 30 37 4 0
BITMAP
000000FC
00FE00F8
01FE01F8
01FE01F8
01FE0078
01FC00F0
01FC03E0
03FC0380
03FC0000
03F80000
03F80000
03F80000
07F80000
07F80000
07F00000
07F00000
0FF00000
0FF00000
0FE00000
0FE00000
0FE00000
1FE00000
1FE00000
1FC00000
1FC00000
3FC00000
3FC00000
3FC00000
3F800000
3F800000
7F800000
7FFFFFC0
7FFFFFC0
7FFFFFC0
7FFFFF80
FFFFFF80
FFFFFF80
ENDCHAR
STARTCHAR 013E
ENCODING 318
SWIDTH 440 0
DWIDTH 22 0
BBX 26 37 3 0
BITMAP
00000FC0
00FE0F80
01FC1F80
01FC1F80
01FC0780
01FC0F00
01FC3E00
03F83800
03F80000
03F80000
03F80000
07F80000
07F00000
07F00000
07F00000
07F00000
0FE00000
0FE00000
0FE00000
0FE00000
0FE00000
1FC00000
1FC00000
1FC00000
1FC00000
3F800000
3F800000
3F800000
3F800000
3F800000
7F000000
7F000000
7F000000
7F000000
7F000000
FE000000
FE000000
ENDCHAR
STARTCHAR 013F
ENCODING 319
SWIDTH 620 0
DWIDTH 31 0
BBX 26 36 4 0
BITMAP
00FE0000
01FE0000
01FE0000
01FE0000
01FC0000
01FC0000
03FC0000
03FC0000
03F80000
03F80000
03F80000
07F80000
07F80000
07F00000
07F00000
0FF007C0
0FF007C0
0FE007C0
0FE007C0
0FE00FC0
1FE00000
1FE00000
1FC00000
1FC00000
3FC00000
3FC00000
3FC00000
3F800000
3F800000
7F800000
7FFFFFC0
7FFFFFC0
7FFFFFC0
7FFFFF80
FFFFFF80
FFFFFF80
ENDCHAR
STARTCHAR 0140
ENCODING 320
SWIDTH 460 0
DWIDTH 23 0
BBX 22 36 3 0
BITMAP
00FE00
01FC00
01FC00
01FC00
01FC00
01FC00
03F800
03F800
03F800
03F800
07F800
07F000
07F000
07F000
07F000
0FE000
0FE07C
0FE07C
0FE0FC
0FE0FC
1FC0F8
1FC000
1FC000
1FC000
3F8000
3F8000
3F8000
3F8000
3F8000
7F0000
7F0000
7F0000
7F0000
7F0000
FE0000
FE0000
ENDCHAR
STARTCHAR 0141
ENCODING 321
SWIDTH 620 0
DWIDTH 31 0
BBX 28 36 3 0
BITMAP
003F8000
007F8000
007F8000
007F0000
007F0000
007F0000
00FF0000
00FF0000
00FE0000
00FE0000
01FE0200
01FE0E00
01FC3E00
01FC7C00
01FDFC00
03FFF000
03FFE000
03FF8000
03FE0000
0FF80000
3FF80000
7FF80000
FFF00000
F7F00000
CFF00000
8FF00000
0FE00000
0FE00000
0FE00000
1FE00000
1FFFFFF0
1FFFFFF0
1FFFFFF0
3FFFFFE0
3FFFFFE0
3FFFFFE0
ENDCHAR
STARTCHAR 0142
ENCODING 322
SWIDTH 280 0
DWIDTH 14 0
BBX 16 36 3 0
BITMAP
00FE
00FE
01FC
01FC
01FC
01FC
01FC
03F8
03F8
03F8
03F8
07F0
07F0
07F3
07FF
07FE
0FFE
0FF8
1FE0
7FE0
7FE0
FFC0
DFC0
9FC0
1FC0
3F80
3F80
3F80
3F80
3F80
7F00
7F00
7F00
7F00
7F00
FE00
ENDCHAR
STARTCHAR 0143
ENCODING 323
SWIDTH 720 0
DWIDTH 36 0
BBX 37 47 4 0
BITMAP
0000007E00
000000FC00
000000F800
000001F000
000003E000
000003C000
0000078000
00000F0000
0000000000
0000000000
0000000000
01FE0003F8
01FE0007F0
01FF0007F0
03FF0007F0
03FF0007F0
03FF8007F0
03FF800FE0
03FFC00FE0
07FFC00FE0
07FFC00FE0
07FFE01FC0
07F7E01FC0
0FE7E01FC0
0FE7F01FC0
0FE3F01FC0
0FE3F83F80
0FE3F83F80
1FC1F83F80
1FC1FC3F80
1FC0FC3F80
1FC0FC7F00
1FC0FE7F00
3F807E7F00
3F807F7F00
3F807FFF00
3F803FFE00
7F003FFE00
7F001FFE00
7F001FFE00
7F001FFC00
7F000FFC00
FE000FFC00
FE000FFC00
FE0007FC00
FE0007F800
FE0007F800
ENDCHAR
STARTCHAR 0144
ENCODING 324
SWIDTH 620 0
DWIDTH 31 0
BBX 29 38 3 0
BITMAP
000007E0
00000FC0
00000F80
00001F00
00003E00
00003C00
00007800
0000F000
00000000
00000000
00000000
03F8FF80
03F9FFE0
07F3FFF0
07F7FFF0
07FFFFF0
07FF1FF8
07F80FF8
0FF007F0
0FF007F0
0FE007F0
0FE007F0
1FC007F0
1FC00FE0
1FC00FE0
1FC00FE0
1FC00FE0
3F800FE0
3F801FC0
3F801FC0
3F801FC0
3F801FC0
7F001FC0
7F003F80
7F003F80
7F003F80
FE003F80
FE007F00
ENDCHAR
STARTCHAR 0145
ENCODING 325
SWIDTH 720 0
DWIDTH 36 0
BBX 37 51 4 -15
BITMAP
01FE0003F8
01FE0007F0
01FF0007F0
03FF0007F0
03FF0007F0
03FF8007F0
03FF800FE0
03FFC00FE0
07FFC00FE0
07FFC00FE0
07FFE01FC0
07F7E01FC0
0FE7E01FC0
0FE7F01FC0
0FE3F01FC0
0FE3F83F80
0FE3F83F80
1FC1F83F80
1FC1FC3F80
1FC0FC3F80
1FC0FC7F00
1FC0FE7F00
3F807E7F00
3F807F7F00
3F807FFF00
3F803FFE00
7F003FFE00
7F001FFE00
7F001FFE00
7F001FFC00
7F000FFC00
FE000FFC00
FE000FFC00
FE0007FC00
FE0007F800
FE0007F800
0000000000
0000000000
0000000000
0000000000
000FC00000
000FC00000
000FC00000
000FC00000
000FC00000
0001800000
0003800000
0007000000
001F000000
003E000000
0030000000
ENDCHAR
STARTCHAR 0146
ENCODING 326
SWIDTH 620 0
DWIDTH 31 0
BBX 29 42 3 -14
BITMAP
03F8FF80
03F9FFE0
07F3FFF0
07F7FFF0
07FFFFF0
07FF1FF8
07F80FF8
0FF007F0
0FF007F0
0FE007F0
0FE007F0
1FC007F0
1FC00FE0
1FC00FE0
1FC00FE0
1FC00FE0
3F800FE0
3F801FC0
3F801FC0
3F801FC0
3F801FC0
7F001FC0
7F003F80
7F003F80
7F003F80
FE003F80
FE007F00
00000000
00000000
00000000
00000000
00FC0000
00FC0000
00FC0000
00FC0000
00FC0000
00180000
00380000
00700000
01F00000
03E00000
03000000
ENDCHAR
STARTCHAR 0147
ENCODING 327
SWIDTH 720 0
DWIDTH 36 0
BBX 37 47 4 0
BITMAP
0000F01E00
0000783C00
00007C7800
00003CF000
00003FE000
00001FC000
00001F8000
0000000000
0000000000
0000000000
0000000000
01FE0003F8
01FE0007F0
01FF0007F0
03FF0007F0
03FF0007F0
03FF8007F0
03FF800FE0
03FFC00FE0
07FFC00FE0
07FFC00FE0
07FFE01FC0
07F7E01FC0
0FE7E01FC0
0FE7F01FC0
0FE3F01FC0
0FE3F83F80
0FE3F83F80
1FC1F83F80
1FC1FC3F80
1FC0FC3F80
1FC0FC7F00
1FC0FE7F00
3F807E7F00
3F807F7F00
3F807FFF00
3F803FFE00
7F003FFE00
7F001FFE00
7F001FFE00
7F001FFC00
7F000FFC00
FE000FFC00
FE000FFC00
FE0007FC00
FE0007F800
FE0007F800
ENDCHAR
STARTCHAR 0148
ENCODING 328
SWIDTH 620 0
DWIDTH 31 0
BBX 29 38 3 0
BITMAP
001E03C0
000F0780
000F8F00
00079E00
0007FC00
0003F800
0003F000
00000000
00000000
00000000
00000000
03F8FF80
03F9FFE0
07F3FFF0
07F7FFF0
07FFFFF0
07FF1FF8
07F80FF8
0FF007F0
0FF007F0
0FE007F0
0FE007F0
1FC007F0
1FC00FE0
1FC00FE0
1FC00FE0
1FC00FE0
3F800FE0
3F801FC0
3F801FC0
3F801FC0
3F801FC0
7F001FC0
7F003F80
7F003F80
7F003F80
FE003F80
FE007F00
ENDCHAR
STARTCHAR 0149
ENCODING 329
SWIDTH 660 0
DWIDTH 33 0
BBX 29 39 5 0
BITMAP
0FE00000
0FC00000
0FC00000
0FC00000
0FC00000
01800000
03800000
03800000
07000000
1E000000
3C000000
30000000
03F8FF80
03F9FFE0
07F3FFF0
07F7FFF0
07FFFFF0
07FF1FF8
07F80FF8
0FF007F0
0FF007F0
0FE007F0
0FE007F0
1FC007F0
1FC00FE0
1FC00FE0
1FC00FE0
1FC00FE0
3F800FE0
3F801FC0
3F801FC0
3F801FC0
3F801FC0
7F001FC0
7F003F80
7F003F80
7F003F80
FE003F80
FE007F00
ENDCHAR
STARTCHAR 014A
ENCODING 330
SWIDTH 720 0
DWIDTH 36 0
BBX 36 37 3 0
BITMAP
01FE3FF000
01FCFFFC00
01FDFFFF00
01FFFFFF80
03FFFFFF80
03FFFFFFC0
03FFC07FE0
03FF001FE0
07FE001FE0
07FC000FE0
07F8000FE0
07F8000FF0
07F0000FF0
0FF0000FE0
0FF0000FE0
0FE0000FE0
0FE0000FE0
0FE0001FE0
1FE0001FC0
1FE0001FC0
1FC0003FC0
1FC0003F80
3FC0003F80
3FC0007F80
3FC0007F00
3F8000FF00
3F8000FE00
7F8001FE00
7F8003FC00
7F0007FC00
7F071FF800
7F07FFF000
FF07FFE000
FF0FFFC000
FE0FFF8000
FE0FFE0000
0007F80000
ENDCHAR
STARTCHAR 014B
ENCODING 331
SWIDTH 620 0
DWIDTH 31 0
BBX 29 38 3 -10
BITMAP
03F8FF80
03F9FFE0
07F3FFF0
07F7FFF0
07FFFFF0
07FF1FF8
07F80FF8
0FF007F0
0FF007F0
0FE007F0
0FE007F0
1FC007F0
1FC00FE0
1FC00FE0
1FC00FE0
1FC00FE0
3F800FE0
3F801FC0
3F801FC0
3F801FC0
3F801FC0
7F003FC0
7F003F80
7F003F80
7F003F80
FE003F80
FE007F00
00007F00
00007F00
00007F00
00007F00
0000FE00
0007FE00
0007FE00
000FFC00
000FFC00
000FF000
000FC000
ENDCHAR
STARTCHAR 014C
ENCODING 332
SWIDTH 780 0
DWIDTH 39 0
BBX 37 45 5 -1
BITMAP
0001FFFC00
0001FFFC00
0003FFF800
0003FFF800
0000000000
0000000000
0000000000
0000000000
0001FFF000
0007FFFC00
001FFFFF00
003FFFFF80
00FFFFFFC0
01FFFFFFC0
03FF807FE0
03FE003FF0
07F8001FF0
0FF0000FF0
0FE0000FF0
1FE00007F0
1FC00007F8
3FC00007F8
3F800007F8
7F800007F0
7F000007F0
7F000007F0
FF00000FF0
FF00000FF0
FF00000FF0
FF00000FE0
FF00001FE0
FF00001FC0
FF00003FC0
FF00003F80
FF00007F80
7F8000FF00
7FC001FE00
7FE007FE00
3FFC3FFC00
3FFFFFF800
1FFFFFF000
0FFFFFC000
07FFFF8000
01FFFE0000
003FE00000
ENDCHAR
STARTCHAR 014D
ENCODING 333
SWIDTH 620 0
DWIDTH 31 0
BBX 29 36 4 -1
BITMAP
003FFF80
003FFF80
007FFF00
007FFF00
00000000
00000000
00000000
00000000
001FFE00
007FFF80
01FFFFC0
03FFFFE0
07FFFFE0
0FFC3FF0
1FF01FF0
1FE00FF0
3FC007F0
3F8007F8
7F8007F8
7F0007F0
7F0007F0
FF0007F0
FF000FF0
FF000FF0
FF000FE0
FF001FE0
FF001FE0
FF003FC0
FF807F80
7FC0FF80
7FFFFF00
7FFFFE00
3FFFFC00
1FFFF000
07FFE000
01FF0000
ENDCHAR
STARTCHAR 014E
ENCODING 334
SWIDTH 780 0
DWIDTH 39 0
BBX 37 48 5 -1
BITMAP
0000300600
0000700E00
00003E7C00
00003FFC00
00003FF800
00001FE000
0000000000
0000000000
0000000000
0000000000
0000000000
0001FFF000
0007FFFC00
001FFFFF00
003FFFFF80
00FFFFFFC0
01FFFFFFC0
03FF807FE0
03FE003FF0
07F8001FF0
0FF0000FF0
0FE0000FF0
1FE00007F0
1FC00007F8
3FC00007F8
3F800007F8
7F800007F0
7F000007F0
7F000007F0
FF00000FF0
FF00000FF0
FF00000FF0
FF00000FE0
FF00001FE0
FF00001FC0
FF00003FC0
FF00003F80
FF00007F80
7F8000FF00
7FC001FE00
7FE007FE00
3FFC3FFC00
3FFFFFF800
1FFFFFF000
0FFFFFC000
07FFFF8000
01FFFE0000
003FE00000
ENDCHAR
STARTCHAR 014F
ENCODING 335
SWIDTH 620 0
DWIDTH 31 0
BBX 29 39 4 -1
BITMAP
000C01C0
000C0180
000E0780
000FFF00
000FFE00
0007FC00
0003F800
00000000
00000000
00000000
00000000
001FFE00
007FFF80
01FFFFC0
03FFFFE0
07FFFFE0
0FFC3FF0
1FF01FF0
1FE00FF0
3FC007F0
3F8007F8
7F8007F8
7F0007F0
7F0007F0
FF0007F0
FF000FF0
FF000FF0
FF000FE0
FF001FE0
FF001FE0
FF003FC0
FF807F80
7FC0FF80
7FFFFF00
7FFFFE00
3FFFFC00
1FFFF000
07FFE000
01FF0000
ENDCHAR
STARTCHAR 0150
ENCODING 336
SWIDTH 780 0
DWIDTH 39 0
BBX 37 47 5 -1
BITMAP
00000FC7E0
00001F8FC0
00003E0F80
00003C1F00
0000783E00
0000F03C00
0001E07800
0000000000
0000000000
0000000000
0001FFF000
0007FFFC00
001FFFFF00
003FFFFF80
00FFFFFFC0
01FFFFFFC0
03FF807FE0
03FE003FF0
07F8001FF0
0FF0000FF0
0FE0000FF0
1FE00007F0
1FC00007F8
3FC00007F8
3F800007F8
7F800007F0
7F000007F0
7F000007F0
FF00000FF0
FF00000FF0
FF00000FF0
FF00000FE0
FF00001FE0
FF00001FC0
FF00003FC0
FF00003F80
FF00007F80
7F8000FF00
7FC001FE00
7FE007FE00
3FFC3FFC00
3FFFFFF800
1FFFFFF000
0FFFFFC000
07FFFF8000
01FFFE0000
003FE00000
ENDCHAR
STARTCHAR 0151
ENCODING 337
SWIDTH 620 0
DWIDTH 31 0
BBX 30 39 4 -1
BITMAP
0001F8FC
0003F1F8
0007C1F0
000783E0
000F07C0
001E0780
003C0F00
00000000
00000000
00000000
00000000
001FFE00
007FFF80
01FFFFC0
03FFFFE0
07FFFFE0
0FFC3FF0
1FF01FF0
1FE00FF0
3FC007F0
3F8007F8
7F8007F8
7F0007F0
7F0007F0
FF0007F0
FF000FF0
FF000FF0
FF000FE0
FF001FE0
FF001FE0
FF003FC0
FF807F80
7FC0FF80
7FFFFF00
7FFFFE00
3FFFFC00
1FFFF000
07FFE000
01FF0000
ENDCHAR
STARTCHAR 0152
ENCODING 338
SWIDTH 1000 0
DWIDTH 50 0
BBX 50 37 5 0
BITMAP
0003FF1FFFFFC0
000FFFBFFFFFC0
003FFFFFFFFFC0
007FFFFFFFFF80
00FFFFFFFFFF80
01FFFFFFFFFF80
03FF03FF800000
07FC00FF000000
0FF800FF000000
0FF000FF000000
1FE000FF000000
1FC000FE000000
3FC000FE000000
3F8000FE000000
3F8001FFFFFC00
7F8001FFFFFC00
7F0001FFFFF800
7F0001FFFFF800
FF0003FFFFF800
FF0003FFFFF800
FF0003FC000000
FF0003F8000000
FF0003F8000000
FF0007F8000000
FF0007F8000000
FF0007F0000000
FF0007F0000000
FF800FF0000000
7F800FF0000000
7FC03FF0000000
7FF8FFFFFFF800
3FFFFFFFFFF000
1FFFFFFFFFF000
1FFFEFFFFFF000
0FFFDFFFFFF000
03FF9FFFFFF000
00FE0000000000
ENDCHAR
STARTCHAR 0153
ENCODING 339
SWIDTH 960 0
DWIDTH 48 0
BBX 47 28 4 0
BITMAP
001FFC03FF80
007FFF0FFFE0
01FFFF9FFFF0
03FFFFFFFFF8
07FFFFFFFFF8
0FFC3FFF87FC
0FF01FFE03FC
1FE00FFC01FC
3FC00FF801FC
3F8007F801FE
7F8007F001FE
7F0007FFFFFC
7F0007FFFFFC
FF0007FFFFFC
FF000FFFFFFC
FF000FFFFFFC
FF000FE00000
FF001FE00000
FF001FE00000
FF003FE007F0
FF807FE00FF0
FFC0FFF01FE0
7FFFFFFFFFC0
7FFFFFFFFF80
3FFFFFFFFF00
1FFFF1FFFE00
07FFC0FFF800
01FF001FC000
ENDCHAR
STARTCHAR 0154
ENCODING 340
SWIDTH 720 0
DWIDTH 36 0
BBX 36 47 4 0
BITMAP
000003F000
000007E000
000007C000
00000F8000
00001F0000
00001E0000
00003C0000
0000780000
0000000000
0000000000
0000000000
00FFFFFC00
01FFFFFF00
01FFFFFFC0
01FFFFFFC0
01FFFFFFE0
01FFFFFFE0
03FC007FE0
03FC001FF0
03F8000FF0
03F8000FE0
07F8000FE0
07F8000FE0
07F8001FC0
07F0001FC0
07F0003F80
0FF000FF00
0FFFFFFE00
0FFFFFFC00
0FFFFFF000
0FFFFFF000
1FFFFFFC00
1FFFFFFE00
1FC003FE00
1FC000FF00
3FC000FE00
3FC000FE00
3FC000FE00
3F8001FE00
3F8001FE00
7F8001FC00
7F8001FC00
7F0003FC00
7F0003FC00
7F0003FC00
FF0003FC00
FF0003FC00
ENDCHAR
STARTCHAR 0155
ENCODING 341
SWIDTH 380 0
DWIDTH 19 0
BBX 22 38 3 0
BITMAP
0000FC
0001F8
0001F0
0003E0
0007C0
000780
000F00
001E00
000000
000000
000000
03F878
03F9F8
07F3F8
07F7F8
07FFF0
07FFF0
07FFB0
0FF800
0FF000
0FE000
0FE000
1FE000
1FC000
1FC000
1FC000
1FC000
3F8000
3F8000
3F8000
3F8000
3F8000
7F0000
7F0000
7F0000
7F0000
FE0000
FE0000
ENDCHAR
STARTCHAR 0156
ENCODING 342
SWIDTH 720 0
DWIDTH 36 0
BBX 36 51 4 -15
BITMAP
00FFFFFC00
01FFFFFF00
01FFFFFFC0
01FFFFFFC0
01FFFFFFE0
01FFFFFFE0
03FC007FE0
03FC001FF0
03F8000FF0
03F8000FE0
07F8000FE0
07F8000FE0
07F8001FC0
07F0001FC0
07F0003F80
0FF000FF00
0FFFFFFE00
0FFFFFFC00
0FFFFFF000
0FFFFFF000
1FFFFFFC00
1FFFFFFE00
1FC003FE00
1FC000FF00
3FC000FE00
3FC000FE00
3FC000FE00
3F8001FE00
3F8001FE00
7F8001FC00
7F8001FC00
7F0003FC00
7F0003FC00
7F0003FC00
FF0003FC00
FF0003FC00
0000000000
0000000000
0000000000
0000000000
001F800000
001F800000
001F800000
001F800000
001F800000
0003000000
0007000000
000E000000
003E000000
007C000000
0060000000
ENDCHAR
STARTCHAR 0157
ENCODING 343
SWIDTH 380 0
DWIDTH 19 0
BBX 23 42 1 -14
BITMAP
00FE1E
00FE7E
01FCFE
01FDFE
01FFFC
01FFFC
01FFEC
03FE00
03FC00
03F800
03F800
07F800
07F000
07F000
07F000
07F000
0FE000
0FE000
0FE000
0FE000
0FE000
1FC000
1FC000
1FC000
1FC000
3F8000
3F8000
000000
000000
000000
000000
3F0000
3F0000
3F0000
3F0000
3F0000
060000
0E0000
1C0000
7C0000
F80000
C00000
ENDCHAR
STARTCHAR 0158
ENCODING 344
SWIDTH 720 0
DWIDTH 36 0
BBX 36 47 4 0
BITMAP
0003C07800
0001E0F000
0001F1E000
0000F3C000
0000FF8000
00007F0000
00007E0000
0000000000
0000000000
0000000000
0000000000
00FFFFFC00
01FFFFFF00
01FFFFFFC0
01FFFFFFC0
01FFFFFFE0
01FFFFFFE0
03FC007FE0
03FC001FF0
03F8000FF0
03F8000FE0
07F8000FE0
07F8000FE0
07F8001FC0
07F0001FC0
07F0003F80
0FF000FF00
0FFFFFFE00
0FFFFFFC00
0FFFFFF000
0FFFFFF000
1FFFFFFC00
1FFFFFFE00
1FC003FE00
1FC000FF00
3FC000FE00
3FC000FE00
3FC000FE00
3F8001FE00
3F8001FE00
7F8001FC00
7F8001FC00
7F0003FC00
7F0003FC00
7F0003FC00
FF0003FC00
FF0003FC00
ENDCHAR
STARTCHAR 0159
ENCODING 345
SWIDTH 380 0
DWIDTH 19 0
BBX 22 38 3 0
BITMAP
01E03C
00F078
00F8F0
0079E0
007FC0
003F80
003F00
000000
000000
000000
000000
03F878
03F9F8
07F3F8
07F7F8
07FFF0
07FFF0
07FFB0
0FF800
0FF000
0FE000
0FE000
1FE000
1FC000
1FC000
1FC000
1FC000
3F8000
3F8000
3F8000
3F8000
3F8000
7F0000
7F0000
7F0000
7F0000
FE0000
FE0000
ENDCHAR
STARTCHAR 015A
ENCODING 346
SWIDTH 660 0
DWIDTH 33 0
BBX 33 48 4 -1
BITMAP
000003F000
000007E000
000007C000
00000F8000
00001F0000
00001E0000
00003C0000
0000780000
0000000000
0000000000
0000000000
0007FFE000
001FFFF800
007FFFFC00
00FFFFFE00
01FFFFFF00
03FFFFFF00
03FE01FF00
07F800FF80
07F0007F80
0FF0007F00
0FF0007F00
0FF0000000
0FF0000000
0FFC000000
0FFFC00000
07FFFE0000
07FFFFC000
03FFFFF000
00FFFFF800
003FFFFC00
0001FFFC00
00001FFC00
000003FE00
000001FE00
000001FC00
FF0001FC00
FF0001FC00
FF0003FC00
FF0003F800
FF800FF800
7FF07FF000
7FFFFFF000
3FFFFFE000
1FFFFFC000
0FFFFF0000
07FFFC0000
00FFE00000
ENDCHAR
STARTCHAR 015B
ENCODING 347
SWIDTH 560 0
DWIDTH 28 0
BBX 27 39 4 -1
BITMAP
00007E00
0000FC00
0000F800
0001F000
0003E000
0003C000
00078000
000F0000
00000000
00000000
00000000
007FFC00
01FFFF00
03FFFF80
07FFFFC0
0FFFFFC0
1FF07FC0
1FC01FE0
3FC01FE0
3FC01FC0
3FE00000
3FFC0000
3FFFC000
1FFFF000
0FFFFC00
07FFFE00
01FFFF00
001FFF00
0003FF80
0000FF80
FE007F00
FE007F00
FF00FF00
FFFFFE00
7FFFFE00
7FFFFC00
3FFFF000
0FFFE000
03FF0000
ENDCHAR
STARTCHAR 015C
ENCODING 348
SWIDTH 660 0
DWIDTH 33 0
BBX 33 48 4 -1
BITMAP
00001F8000
00003FC000
00007FC000
0000FBE000
0001E1E000
0003C0F000
000780F000
0000000000
0000000000
0000000000
0000000000
0007FFE000
001FFFF800
007FFFFC00
00FFFFFE00
01FFFFFF00
03FFFFFF00
03FE01FF00
07F800FF80
07F0007F80
0FF0007F00
0FF0007F00
0FF0000000
0FF0000000
0FFC000000
0FFFC00000
07FFFE0000
07FFFFC000
03FFFFF000
00FFFFF800
003FFFFC00
0001FFFC00
00001FFC00
000003FE00
000001FE00
000001FC00
FF0001FC00
FF0001FC00
FF0003FC00
FF0003F800
FF800FF800
7FF07FF000
7FFFFFF000
3FFFFFE000
1FFFFFC000
0FFFFF0000
07FFFC0000
00FFE00000
ENDCHAR
STARTCHAR 015D
ENCODING 349
SWIDTH 560 0
DWIDTH 28 0
BBX 27 39 4 -1
BITMAP
0001F800
0003FC00
0007BC00
000F3E00
001E1E00
003C0F00
00780F00
00000000
00000000
00000000
00000000
007FFC00
01FFFF00
03FFFF80
07FFFFC0
0FFFFFC0
1FF07FC0
1FC01FE0
3FC01FE0
3FC01FC0
3FE00000
3FFC0000
3FFFC000
1FFFF000
0FFFFC00
07FFFE00
01FFFF00
001FFF00
0003FF80
0000FF80
FE007F00
FE007F00
FF00FF00
FFFFFE00
7FFFFE00
7FFFFC00
3FFFF000
0FFFE000
03FF0000
ENDCHAR
STARTCHAR 015E
ENCODING 350
SWIDTH 660 0
DWIDTH 33 0
BBX 33 47 4 -10
BITMAP
0007FFE000
001FFFF800
007FFFFC00
00FFFFFE00
01FFFFFF00
03FFFFFF00
03FC01FF00
07F800FF80
07F0007F80
0FF0007F00
0FF0007F00
0FF0000000
0FF0000000
0FFC000000
0FFFC00000
07FFFE0000
07FFFFC000
03FFFFF000
00FFFFF800
003FFFFC00
0001FFFC00
00001FFC00
000003FE00
000001FE00
000001FC00
FF0001FC00
FF0001FC00
FF0003FC00
FF0003F800
FF800FF800
FFF07FF000
7FFFFFF000
7FFFFFE000
3FFFFF8000
0FFFFF0000
03FFFC0000
007FC00000
0018000000
0038000000
003F800000
007F800000
0007800000
0007800000
0407800000
0FFF000000
0FFE000000
01FC000000
ENDCHAR
STARTCHAR 015F
ENCODING 351
SWIDTH 560 0
DWIDTH 28 0
BBX 28 38 3 -10
BITMAP
003FFE00
00FFFF80
01FFFFC0
03FFFFE0
07FFFFE0
0FF83FE0
0FE00FF0
1FE00FF0
1FE00FE0
1FF00000
1FFE0000
1FFFE000
0FFFF800
07FFFE00
03FFFF00
00FFFF80
000FFF80
0001FFC0
00007FC0
FE003F80
FE003F80
FF007F80
FFFFFF00
FFFFFE00
7FFFFE00
3FFFF800
0FFFE000
03FF0000
00E00000
00C00000
01FC0000
03FE0000
001E0000
001E0000
303E0000
3FFC0000
7FF80000
0FE00000
ENDCHAR
STARTCHAR 0160
ENCODING 352
SWIDTH 660 0
DWIDTH 33 0
BBX 33 48 4 -1
BITMAP
000780F000
0003C1E000
0003E3C000
0001E78000
0001FF0000
0000FE0000
0000FC0000
0000000000
0000000000
0000000000
0000000000
0007FFE000
001FFFF800
007FFFFC00
00FFFFFE00
01FFFFFF00
03FFFFFF00
03FE01FF00
07F800FF80
07F0007F80
0FF0007F00
0FF0007F00
0FF0000000
0FF0000000
0FFC000000
0FFFC00000
07FFFE0000
07FFFFC000
03FFFFF000
00FFFFF800
003FFFFC00
0001FFFC00
00001FFC00
000003FE00
000001FE00
000001FC00
FF0001FC00
FF0001FC00
FF0003FC00
FF0003F800
FF800FF800
7FF07FF000
7FFFFFF000
3FFFFFE000
1FFFFFC000
0FFFFF0000
07FFFC0000
00FFE00000
ENDCHAR
STARTCHAR 0161
ENCODING 353
SWIDTH 560 0
DWIDTH 28 0
BBX 27 39 4 -1
BITMAP
003C0780
001E0F00
001F1E00
000F3C00
000FF800
0007F000
0007E000
00000000
00000000
00000000
00000000
007FFC00
01FFFF00
03FFFF80
07FFFFC0
0FFFFFC0
1FF07FC0
1FC01FE0
3FC01FE0
3FC01FC0
3FE00000
3FFC0000
3FFFC000
1FFFF000
0FFFFC00
07FFFE00
01FFFF00
001FFF00
0003FF80
0000FF80
FE007F00
FE007F00
FF00FF00
FFFFFE00
7FFFFE00
7FFFFC00
3FFFF000
0FFFE000
03FF0000
ENDCHAR
STARTCHAR 0162
ENCODING 354
SWIDTH 620 0
DWIDTH 31 0
BBX 32 47 6 -11
BITMAP
3FFFFFFF
3FFFFFFE
3FFFFFFE
3FFFFFFE
7FFFFFFE
7FFFFFFC
000FF000
000FE000
000FE000
000FE000
001FE000
001FE000
001FC000
001FC000
003FC000
003FC000
003F8000
003F8000
003F8000
007F8000
007F8000
007F0000
007F0000
00FF0000
00FF0000
00FF0000
00FE0000
00FE0000
01FE0000
01FE0000
01FC0000
01FC0000
03FC0000
03FC0000
03FC0000
03F80000
00E00000
00C00000
01800000
01F80000
03FC0000
003C0000
003C0000
607C0000
7FF80000
FFF00000
1FC00000
ENDCHAR
STARTCHAR 0163
ENCODING 355
SWIDTH 340 0
DWIDTH 17 0
BBX 21 45 0 -11
BITMAP
001FC0
001FC0
001FC0
001FC0
003F80
003F80
003F80
03FFF8
03FFF8
03FFF0
03FFF0
07FFF0
007F00
007F00
00FE00
00FE00
00FE00
00FE00
01FC00
01FC00
01FC00
01FC00
01FC00
03F800
03F800
03F800
03F800
03F800
07F800
07F800
07FF00
07FF00
07FF00
03FE00
01FE00
00C000
018000
03F800
03FC00
043C00
003C00
407C00
7FF800
FFF000
1FC000
ENDCHAR
STARTCHAR 0164
ENCODING 356
SWIDTH 620 0
DWIDTH 31 0
BBX 31 46 7 0
BITMAP
003C0780
001E0F00
001F1E00
000F3C00
000FF800
0007F000
0007E000
00000000
00000000
00000000
7FFFFFFE
7FFFFFFC
7FFFFFFC
7FFFFFFC
FFFFFFFC
FFFFFFF8
001FE000
001FC000
001FC000
001FC000
003FC000
003FC000
003F8000
003F8000
007F8000
007F8000
007F0000
007F0000
007F0000
00FF0000
00FF0000
00FE0000
00FE0000
01FE0000
01FE0000
01FE0000
01FC0000
01FC0000
03FC0000
03FC0000
03F80000
03F80000
07F80000
07F80000
07F80000
07F00000
ENDCHAR
STARTCHAR 0165
ENCODING 357
SWIDTH 440 0
DWIDTH 22 0
BBX 25 38 5 -1
BITMAP
00001F80
00001F00
00003F00
03F83F00
03F80F00
03F81E00
03F87C00
07F07000
07F00000
07F00000
7FFF0000
7FFF0000
7FFE0000
7FFE0000
FFFE0000
0FE00000
0FE00000
1FC00000
1FC00000
1FC00000
1FC00000
3F800000
3F800000
3F800000
3F800000
3F800000
7F000000
7F000000
7F000000
7F000000
7F000000
FF000000
FF000000
FFE00000
FFE00000
FFE00000
7FC00000
1FC00000
ENDCHAR
STARTCHAR 0166
ENCODING 358
SWIDTH 620 0
DWIDTH 31 0
BBX 31 36 7 0
BITMAP
7FFFFFFE
7FFFFFFC
7FFFFFFC
7FFFFFFC
FFFFFFFC
FFFFFFF8
001FE000
001FC000
001FC000
001FC000
003FC000
003FC000
003F8000
003F8000
007F8000
007F8000
007F0000
007F0000
07FFF000
0FFFE000
0FFFE000
0FFFE000
00FE0000
01FE0000
01FE0000
01FE0000
01FC0000
01FC0000
03FC0000
03FC0000
03F80000
03F80000
07F80000
07F80000
07F80000
07F00000
ENDCHAR
STARTCHAR 0167
ENCODING 359
SWIDTH 400 0
DWIDTH 20 0
BBX 17 35 4 -1
BITMAP
01FC00
01FC00
01FC00
01FC00
03F800
03F800
03F800
3FFF80
3FFF80
3FFF00
3FFF00
7FFF00
07F000
07F000
0FE000
0FE000
FFFE00
FFFE00
FFFE00
FFFE00
1FC000
1FC000
1FC000
3F8000
3F8000
3F8000
3F8000
3F8000
7F8000
7F8000
7FF000
7FF000
7FF000
3FE000
0FE000
ENDCHAR
STARTCHAR 0168
ENCODING 360
SWIDTH 720 0
DWIDTH 36 0
BBX 34 47 6 -1
BITMAP
0000000600
0001FC0E00
0003FF1E00
0007FFFC00
00071FF800
000E07F000
000E018000
0000000000
0000000000
0000000000
07F8001FC0
07F8001FC0
07F8003FC0
07F0003FC0
07F0003F80
0FF0003F80
0FF0003F80
0FE0007F80
0FE0007F80
0FE0007F00
1FE0007F00
1FE000FF00
1FC000FF00
1FC000FF00
3FC000FE00
3FC000FE00
3FC001FE00
3F8001FE00
3F8001FC00
7F8001FC00
7F8001FC00
7F0003FC00
7F0003FC00
7F0003F800
FF0003F800
FF0007F800
FF0007F800
FF0007F000
FF000FF000
FF801FE000
FFE0FFE000
7FFFFFC000
7FFFFF8000
3FFFFF0000
1FFFFC0000
07FFF00000
00FF800000
ENDCHAR
STARTCHAR 0169
ENCODING 361
SWIDTH 620 0
DWIDTH 31 0
BBX 29 39 4 -1
BITMAP
00000070
000FE070
001FF8E0
003FFFE0
0038FFC0
00703F80
00700C00
00000000
00000000
00000000
00000000
0FE003F8
0FE007F0
0FE007F0
0FE007F0
1FC007F0
1FC007F0
1FC00FE0
1FC00FE0
3F800FE0
3F800FE0
3F800FE0
3F801FC0
3F801FC0
7F001FC0
7F001FC0
7F003FC0
7F003F80
7F003F80
FF007F80
FF007F80
FF00FF00
FF81FF00
FFFFFF00
FFFFFF00
7FFF7F00
7FFEFE00
3FF8FE00
0FE00000
ENDCHAR
STARTCHAR 016A
ENCODING 362
SWIDTH 720 0
DWIDTH 36 0
BBX 34 45 6 -1
BITMAP
0003FFF800
0003FFF800
0007FFF000
0007FFF000
0000000000
0000000000
0000000000
0000000000
07F8001FC0
07F8001FC0
07F8003FC0
07F0003FC0
07F0003F80
0FF0003F80
0FF0003F80
0FE0007F80
0FE0007F80
0FE0007F00
1FE0007F00
1FE000FF00
1FC000FF00
1FC000FF00
3FC000FE00
3FC000FE00
3FC001FE00
3F8001FE00
3F8001FC00
7F8001FC00
7F8001FC00
7F0003FC00
7F0003FC00
7F0003F800
FF0003F800
FF0007F800
FF0007F800
FF0007F000
FF000FF000
FF801FE000
FFE0FFE000
7FFFFFC000
7FFFFF8000
3FFFFF0000
1FFFFC0000
07FFF00000
00FF800000
ENDCHAR
STARTCHAR 016B
ENCODING 363
SWIDTH 620 0
DWIDTH 31 0
BBX 29 36 4 -1
BITMAP
001FFFC0
001FFFC0
003FFF80
003FFF80
00000000
00000000
00000000
00000000
0FE003F8
0FE007F0
0FE007F0
0FE007F0
1FC007F0
1FC007F0
1FC00FE0
1FC00FE0
3F800FE0
3F800FE0
3F800FE0
3F801FC0
3F801FC0
7F001FC0
7F001FC0
7F003FC0
7F003F80
7F003F80
FF007F80
FF007F80
FF00FF00
FF81FF00
FFFFFF00
FFFFFF00
7FFF7F00
7FFEFE00
3FF8FE00
0FE00000
ENDCHAR
STARTCHAR 016C
ENCODING 364
SWIDTH 720 0
DWIDTH 36 0
BBX 34 48 6 -1
BITMAP
0001801800
0001803800
0001C07000
0001FFF000
0001FFE000
0000FFC000
00007F0000
0000000000
0000000000
0000000000
0000000000
07F8001FC0
07F8001FC0
07F8003FC0
07F0003FC0
07F0003F80
0FF0003F80
0FF0003F80
0FE0007F80
0FE0007F80
0FE0007F00
1FE0007F00
1FE000FF00
1FC000FF00
1FC000FF00
3FC000FE00
3FC000FE00
3FC001FE00
3F8001FE00
3F8001FC00
7F8001FC00
7F8001FC00
7F0003FC00
7F0003FC00
7F0003F800
FF0003F800
FF0007F800
FF0007F800
FF0007F000
FF000FF000
FF801FE000
FFE0FFE000
7FFFFFC000
7FFFFF8000
3FFFFF0000
1FFFFC0000
07FFF00000
00FF800000
ENDCHAR
STARTCHAR 016D
ENCODING 365
SWIDTH 620 0
DWIDTH 31 0
BBX 29 39 4 -1
BITMAP
000C01C0
000C0180
000E0780
000FFF00
000FFE00
0007FC00
0003F800
00000000
00000000
00000000
00000000
0FE003F8
0FE007F0
0FE007F0
0FE007F0
1FC007F0
1FC007F0
1FC00FE0
1FC00FE0
3F800FE0
3F800FE0
3F800FE0
3F801FC0
3F801FC0
7F001FC0
7F001FC0
7F003FC0
7F003F80
7F003F80
FF007F80
FF007F80
FF00FF00
FF81FF00
FFFFFF00
FFFFFF00
7FFF7F00
7FFEFE00
3FF8FE00
0FE00000
ENDCHAR
STARTCHAR 016E
ENCODING 366
SWIDTH 720 0
DWIDTH 36 0
BBX 34 49 6 -1
BITMAP
00000F0000
00001F8000
00003F8000
0000718000
0000618000
0000638000
00007F8000
00007F0000
00003C0000
0000000000
0000000000
0000000000
07F8001FC0
07F8001FC0
07F8003FC0
07F0003FC0
07F0003F80
0FF0003F80
0FF0003F80
0FE0007F80
0FE0007F80
0FE0007F00
1FE0007F00
1FE000FF00
1FC000FF00
1FC000FF00
3FC000FE00
3FC000FE00
3FC001FE00
3F8001FE00
3F8001FC00
7F8001FC00
7F8001FC00
7F0003FC00
7F0003FC00
7F0003F800
FF0003F800
FF0007F800
FF0007F800
FF0007F000
FF000FF000
FF801FE000
FFE0FFE000
7FFFFFC000
7FFFFF8000
3FFFFF0000
1FFFFC0000
07FFF00000
00FF800000
ENDCHAR
STARTCHAR 016F
ENCODING 367
SWIDTH 620 0
DWIDTH 31 0
BBX 29 39 4 -1
BITMAP
0000F800
0001FC00
0001DC00
00038C00
00030C00
00031C00
0003F800
0001F000
0000C000
00000000
00000000
0FE003F8
0FE007F0
0FE007F0
0FE007F0
1FC007F0
1FC007F0
1FC00FE0
1FC00FE0
3F800FE0
3F800FE0
3F800FE0
3F801FC0
3F801FC0
7F001FC0
7F001FC0
7F003FC0
7F003F80
7F003F80
FF007F80
FF007F80
FF00FF00
FF81FF00
FFFFFF00
FFFFFF00
7FFF7F00
7FFEFE00
3FF8FE00
0FE00000
ENDCHAR
STARTCHAR 0170
ENCODING 368
SWIDTH 720 0
DWIDTH 36 0
BBX 34 47 6 -1
BITMAP
00001F8FC0
00003F1F80
00007C1F00
0000783E00
0000F07C00
0001E07800
0003C0F000
0000000000
0000000000
0000000000
07F8001FC0
07F8001FC0
07F8003FC0
07F0003FC0
07F0003F80
0FF0003F80
0FF0003F80
0FE0007F80
0FE0007F80
0FE0007F00
1FE0007F00
1FE000FF00
1FC000FF00
1FC000FF00
3FC000FE00
3FC000FE00
3FC001FE00
3F8001FE00
3F8001FC00
7F8001FC00
7F8001FC00
7F0003FC00
7F0003FC00
7F0003F800
FF0003F800
FF0007F800
FF0007F800
FF0007F000
FF000FF000
FF801FE000
FFE0FFE000
7FFFFFC000
7FFFFF8000
3FFFFF0000
1FFFFC0000
07FFF00000
00FF800000
ENDCHAR
STARTCHAR 0171
ENCODING 369
SWIDTH 620 0
DWIDTH 31 0
BBX 31 39 4 -1
BITMAP
0000FC7E
0001F8FC
0003E0F8
0003C1F0
000783E0
000F03C0
001E0780
00000000
00000000
00000000
00000000
0FE003F8
0FE007F0
0FE007F0
0FE007F0
1FC007F0
1FC007F0
1FC00FE0
1FC00FE0
3F800FE0
3F800FE0
3F800FE0
3F801FC0
3F801FC0
7F001FC0
7F001FC0
7F003FC0
7F003F80
7F003F80
FF007F80
FF007F80
FF00FF00
FF81FF00
FFFFFF00
FFFFFF00
7FFF7F00
7FFEFE00
3FF8FE00
0FE00000
ENDCHAR
STARTCHAR 0172
ENCODING 370
SWIDTH 720 0
DWIDTH 36 0
BBX 34 48 6 -12
BITMAP
07F8001FC0
07F8001FC0
07F0003FC0
07F0003FC0
07F0003F80
0FF0003F80
0FF0003F80
0FE0007F80
0FE0007F80
0FE0007F00
1FE0007F00
1FE000FF00
1FC000FF00
1FC000FF00
3FC000FE00
3FC000FE00
3F8001FE00
3F8001FE00
3F8001FC00
7F8001FC00
7F8001FC00
7F0003FC00
7F0003FC00
7F0003F800
FF0003F800
FF0007F800
FF0007F800
FF0007F000
FF000FF000
FF801FE000
FFE0FFE000
7FFFFFC000
7FFFFF8000
3FFFFF0000
1FFFFE0000
07FFF80000
00FFF00000
0001E00000
0003C00000
0007800000
000F800000
001F000000
001F000000
001F000000
001F000000
001FFC0000
000FFC0000
0003FC0000
ENDCHAR
STARTCHAR 0173
ENCODING 371
SWIDTH 620 0
DWIDTH 31 0
BBX 29 39 4 -12
BITMAP
0FE003F8
0FE007F0
0FE007F0
0FE007F0
1FC007F0
1FC007F0
1FC00FE0
1FC00FE0
3F800FE0
3F800FE0
3F800FE0
3F801FC0
3F801FC0
7F001FC0
7F001FC0
7F003FC0
7F003F80
7F003F80
FF007F80
FF007F80
FF00FF00
FF81FF00
FFFFFF00
FFFFFF00
7FFF7F00
7FFEFE00
3FF8FE00
0FE03C00
00007800
0001E000
0003C000
0007C000
00078000
000F8000
000F8000
000F8000
000FFE00
0007FE00
0001FC00
ENDCHAR
STARTCHAR 0174
ENCODING 372
SWIDTH 940 0
DWIDTH 47 0
BBX 46 47 8 0
BITMAP
000003F80000
000007FC0000
000007BC0000
00000F3E0000
00001E1E0000
00003C1F0000
0000780F0000
000000000000
000000000000
000000000000
000000000000
FF001FF003FC
FF001FF003FC
FF003FF003F8
FF003FF007F8
FF007FF007F0
FF007FF00FF0
FF007FF00FE0
7F00FFF00FE0
7F00FFF01FC0
7F01FBF01FC0
7F01FBF03F80
7F03F3F03F80
7E03F3F07F00
7E07F3E07F00
7E07E3E07E00
7E07E3E0FE00
7E0FC3E0FC00
7E0FC3E1FC00
7E1F83E1F800
7E1F83E1F800
7E3F03E3F000
7E3F03E3F000
3E7E03E7E000
3E7E03E7E000
3EFC03EFC000
3EFC03EFC000
3EF803EF8000
3FF803FF8000
3FF803FF0000
3FF003FF0000
3FF003FE0000
3FE003FE0000
3FE003FC0000
3FC003FC0000
3FC003FC0000
3F8003F80000
ENDCHAR
STARTCHAR 0175
ENCODING 373
SWIDTH 780 0
DWIDTH 39 0
BBX 38 40 6 0
BITMAP
00001F8000
00003F8000
00007FC000
0000F3C000
0001E1E000
0003C1E000
000780F000
000F00F000
0000000000
0000000000
0000000000
0000000000
0000000000
FF00FE01FC
FF01FE01FC
FF01FE03F8
FF03FE03F8
FF03FE07F0
FF07FE07F0
FF07FE0FE0
7F07FE0FE0
7F0FFE0FC0
7F0FBE1FC0
7F1FBE1F80
7F1F3E3F80
7F1F3E3F00
7F3E3E7F00
7F3E3E7E00
7F7C3EFE00
7F7C3EFC00
7FFC3EFC00
7FF83FF800
7FF83FF800
7FF03FF000
3FF03FF000
3FE03FE000
3FE03FE000
3FC03FC000
3FC03FC000
3FC03F8000
ENDCHAR
STARTCHAR 0176
ENCODING 374
SWIDTH 660 0
DWIDTH 33 0
BBX 31 47 9 0
BITMAP
0001F800
0003FC00
0007FC00
000F3E00
001E1E00
003C1E00
00780F00
00000000
00000000
00000000
00000000
FF8001FE
7F8003FC
7F8007F8
7F8007F8
3FC00FF0
3FC01FE0
3FC01FE0
1FC03FC0
1FE07F80
1FE07F00
1FE0FF00
0FE1FE00
0FF1FC00
0FF3F800
07F7F800
07FFF000
07FFE000
03FFC000
03FFC000
03FF8000
01FF0000
01FF0000
01FE0000
01FE0000
01FC0000
01FC0000
03FC0000
03FC0000
03FC0000
03F80000
03F80000
07F80000
07F80000
07F00000
07F00000
07F00000
ENDCHAR
STARTCHAR 0177
ENCODING 375
SWIDTH 560 0
DWIDTH 28 0
BBX 30 51 2 -11
BITMAP
00007E00
0000FF00
0000FF00
0001EF80
0003C780
000783C0
000F03C0
001E01E0
00000000
00000000
00000000
00000000
00000000
0FF001FC
0FF001FC
07F003F8
07F003F8
07F007F0
07F007F0
07F80FE0
07F80FC0
07F81FC0
03F81F80
03F83F80
03F83F00
03F87F00
03F87E00
03F8FE00
03F8FC00
01F9F800
01FDF800
01FFF000
01FFF000
01FFE000
01FFE000
01FFC000
01FF8000
00FF8000
00FF0000
00FF0000
00FE0000
00FE0000
00FC0000
01FC0000
03F80000
7FF00000
7FF00000
7FE00000
FFC00000
FF800000
FC000000
ENDCHAR
STARTCHAR 0178
ENCODING 376
SWIDTH 660 0
DWIDTH 33 0
BBX 31 46 9 0
BITMAP
003F8FE0
003F0FC0
003F0FC0
003F0FC0
003F0FC0
007E1F80
007E1F80
00000000
00000000
00000000
FF8001FE
7F8003FC
7F8007F8
7F8007F8
3FC00FF0
3FC01FE0
3FC01FE0
1FC03FC0
1FE07F80
1FE07F00
1FE0FF00
0FE1FE00
0FF1FC00
0FF3F800
07F7F800
07FFF000
07FFE000
03FFC000
03FFC000
03FF8000
01FF0000
01FF0000
01FE0000
01FE0000
01FC0000
01FC0000
03FC0000
03FC0000
03FC0000
03F80000
03F80000
07F80000
07F80000
07F00000
07F00000
07F00000
ENDCHAR
STARTCHAR 0179
ENCODING 377
SWIDTH 620 0
DWIDTH 31 0
BBX 35 47 2 0
BITMAP
000003F000
000007E000
000007C000
00000F8000
00001F0000
00001E0000
00003C0000
0000780000
0000000000
0000000000
0000000000
01FFFFFFE0
01FFFFFFC0
01FFFFFFC0
03FFFFFFC0
03FFFFFFC0
03FFFFFF80
000000FF80
000001FF00
000003FE00
000007FC00
00000FF800
00001FF000
00003FE000
00007FC000
0000FF8000
0001FF0000
0003FE0000
0007FC0000
000FF80000
001FF00000
003FE00000
007FC00000
00FF800000
01FF000000
03FE000000
07FC000000
0FF8000000
1FF0000000
3FE0000000
7FC0000000
7FFFFFF000
FFFFFFF000
FFFFFFF000
FFFFFFE000
FFFFFFE000
FFFFFFE000
ENDCHAR
STARTCHAR 017A
ENCODING 378
SWIDTH 500 0
DWIDTH 25 0
BBX 28 38 1 0
BITMAP
00000FC0
00001F80
00001F00
00003E00
00007C00
00007800
0000F000
0001E000
00000000
00000000
00000000
01FFFFF0
03FFFFE0
03FFFFE0
03FFFFE0
03FFFFE0
03FFFFE0
00007FC0
0000FF80
0001FF00
0003FC00
0007F800
000FF000
001FE000
003FC000
007F8000
01FF0000
03FE0000
07FC0000
0FF80000
1FF00000
3FE00000
7FFFFF00
7FFFFE00
7FFFFE00
7FFFFE00
FFFFFE00
FFFFFE00
ENDCHAR
STARTCHAR 017B
ENCODING 379
SWIDTH 620 0
DWIDTH 31 0
BBX 35 44 2 0
BITMAP
00000FC000
00001FC000
00001F8000
00001F8000
00001F8000
00001F8000
0000000000
0000000000
01FFFFFFE0
01FFFFFFC0
01FFFFFFC0
03FFFFFFC0
03FFFFFFC0
03FFFFFF80
000000FF80
000001FF00
000003FE00
000007FC00
00000FF800
00001FF000
00003FE000
00007FC000
0000FF8000
0001FF0000
0003FE0000
0007FC0000
000FF80000
001FF00000
003FE00000
007FC00000
00FF800000
01FF000000
03FE000000
07FC000000
0FF8000000
1FF0000000
3FE0000000
7FC0000000
7FFFFFF000
FFFFFFF000
FFFFFFF000
FFFFFFE000
FFFFFFE000
FFFFFFE000
ENDCHAR
STARTCHAR 017C
ENCODING 380
SWIDTH 500 0
DWIDTH 25 0
BBX 28 37 1 0
BITMAP
00007E00
00007E00
0000FC00
0000FC00
0000FC00
0000FC00
0001FC00
00000000
00000000
00000000
01FFFFF0
03FFFFE0
03FFFFE0
03FFFFE0
03FFFFE0
03FFFFE0
00007FC0
0000FF80
0001FF00
0003FC00
0007F800
000FF000
001FE000
003FC000
007F8000
01FF0000
03FE0000
07FC0000
0FF80000
1FF00000
3FE00000
7FFFFF00
7FFFFE00
7FFFFE00
7FFFFE00
FFFFFE00
FFFFFE00
ENDCHAR
STARTCHAR 017D
ENCODING 381
SWIDTH 620 0
DWIDTH 31 0
BBX 35 47 2 0
BITMAP
0003C07800
0001E0F000
0001F1E000
0000F3C000
0000FF8000
00007F0000
00007E0000
0000000000
0000000000
0000000000
0000000000
01FFFFFFE0
01FFFFFFC0
01FFFFFFC0
03FFFFFFC0
03FFFFFFC0
03FFFFFF80
000000FF80
000001FF00
000003FE00
000007FC00
00000FF800
00001FF000
00003FE000
00007FC000
0000FF8000
0001FF0000
0003FE0000
0007FC0000
000FF80000
001FF00000
003FE00000
007FC00000
00FF800000
01FF000000
03FE000000
07FC000000
0FF8000000
1FF0000000
3FE0000000
7FC0000000
7FFFFFF000
FFFFFFF000
FFFFFFF000
FFFFFFE000
FFFFFFE000
FFFFFFE000
ENDCHAR
STARTCHAR 017E
ENCODING 382
SWIDTH 500 0
DWIDTH 25 0
BBX 28 38 1 0
BITMAP
001E03C0
000F0780
000F8F00
00079E00
0007FC00
0003F800
0003F000
00000000
00000000
00000000
00000000
01FFFFF0
03FFFFE0
03FFFFE0
03FFFFE0
03FFFFE0
03FFFFE0
00007FC0
0000FF80
0001FF00
0003FC00
0007F800
000FF000
001FE000
003FC000
007F8000
01FF0000
03FE0000
07FC0000
0FF80000
1FF00000
3FE00000
7FFFFF00
7FFFFE00
7FFFFE00
7FFFFE00
FFFFFE00
FFFFFE00
ENDCHAR
STARTCHAR 017F
ENCODING 383
SWIDTH 340 0
DWIDTH 17 0
BBX 18 36 5 0
BITMAP
001FC0
007FC0
00FFC0
01FFC0
03FF80
03FC00
03F800
03F800
07F000
7FF000
7FF000
7FF000
7FF000
FFE000
0FE000
0FE000
0FE000
1FC000
1FC000
1FC000
1FC000
1FC000
3F8000
3F8000
3F8000
3F8000
7F8000
7F0000
7F0000
7F0000
7F0000
FE0000
FE0000
FE0000
FE0000
FE0000
ENDCHAR
STARTCHAR 0180
ENCODING 384
SWIDTH 620 0
DWIDTH 31 0
BBX 30 37 3 -1
BITMAP
00FE0000
01FC0000
01FC0000
0FFFF800
0FFFF000
0FFFF000
03F80000
03F80000
03F80000
03F8FF80
07FBFFC0
07F7FFE0
07FFFFF0
07FFFFF8
07FF1FF8
0FFC07F8
0FF807F8
0FF003FC
0FE003FC
0FE003FC
1FE003F8
1FC003F8
1FC003F8
1FC007F8
3FC007F8
3F8007F0
3F800FF0
3FC00FE0
3FC01FE0
7FC03FC0
7FE07FC0
7FFFFF80
7FFFFF00
7FFFFE00
FEFFFC00
FE7FF000
001FC000
ENDCHAR
STARTCHAR 0181
ENCODING 385
SWIDTH 860 0
DWIDTH 43 0
BBX 39 36 7 0
BITMAP
007FFFFF80
01FFFFFFF0
07FFFFFFF8
0FFFFFFFF8
1FFFFFFFFC
3FFFFFFFFC
3FFFE007FC
7F8FE001FE
7E0FE001FC
FE0FE001FC
FC0FE001FC
FC1FC003FC
FE1FC007F8
FF1FC01FF0
FF1FFFFFE0
FF3FFFFF80
7E3FFFFF00
7E3FFFFF80
3E3FFFFFC0
0E3FFFFFE0
007F001FE0
007F000FE0
007F0007F0
007E0007F0
00FE0007F0
00FE0007E0
00FE000FE0
00FC000FE0
01FC001FC0
01FC00FFC0
01FFFFFF80
01FFFFFF00
03FFFFFE00
03FFFFFC00
03FFFFF000
03FFFF8000
ENDCHAR
STARTCHAR 0182
ENCODING 386
SWIDTH 720 0
DWIDTH 36 0
BBX 33 36 4 0
BITMAP
00FFFFFF80
00FFFFFF80
01FFFFFF80
01FFFFFF80
01FFFFFF00
01FFFFFF00
03FC000000
03FC000000
03FC000000
03F8000000
03F8000000
07F8000000
07F8000000
07F0000000
07FFFFC000
07FFFFF000
0FFFFFFC00
0FFFFFFE00
0FFFFFFE00
0FFFFFFF00
1FE001FF00
1FE000FF00
1FC0007F80
1FC0007F80
1FC0007F00
3FC0007F00
3FC000FF00
3F8000FF00
3F8001FE00
7F800FFE00
7FFFFFFC00
7FFFFFF800
7FFFFFF000
7FFFFFE000
FFFFFF8000
FFFFFC0000
ENDCHAR
STARTCHAR 0183
ENCODING 387
SWIDTH 620 0
DWIDTH 31 0
BBX 30 37 3 -1
BITMAP
00FFFFE0
01FFFFE0
01FFFFE0
01FFFFC0
01FFFFC0
01FFFFC0
03F80000
03F80000
03F80000
03F8FF80
07F3FFC0
07F7FFE0
07FFFFF0
07FFFFF8
07FF1FF8
0FFC07F8
0FF807F8
0FF003F8
0FE003FC
1FE003FC
1FC003F8
1FC003F8
1FC003F8
1FC007F8
3F8007F8
3F8007F0
3F800FF0
3FC00FE0
3FC01FE0
7FC03FC0
7FE07FC0
7FFFFF80
7FFFFF00
FEFFFE00
FEFFF800
FE7FF000
001F8000
ENDCHAR
STARTCHAR 0184
ENCODING 388
SWIDTH 660 0
DWIDTH 33 0
BBX 31 36 4 0
BITMAP
00020000
00060000
001C0000
007C0000
00FC0000
03FC0000
07F80000
1FF80000
7FF80000
7FF80000
3FF80000
1FF00000
0FF00000
0FFFFFC0
0FFFFFF0
0FFFFFF8
0FFFFFF8
1FFFFFFC
1FFFFFFC
1FC007FC
1FC003FE
1FC001FE
3FC001FE
3FC001FC
3F8001FC
3F8003FC
7F8003FC
7F8007F8
7F800FF8
7F003FF0
7FFFFFF0
FFFFFFE0
FFFFFFC0
FFFFFF80
FFFFFE00
FFFFF000
ENDCHAR
STARTCHAR 0185
ENCODING 389
SWIDTH 620 0
DWIDTH 31 0
BBX 30 37 3 -1
BITMAP
00020000
000C0000
003C0000
00FC0000
03FC0000
07F80000
1FF80000
7FF80000
3FF80800
1FF8FF80
0FF3FFC0
07F7FFE0
07FFFFF0
07FFFFF8
0FFE1FF8
0FFC07F8
0FF807F8
0FF003FC
0FE003FC
1FE003FC
1FC003F8
1FC003F8
1FC003F8
1FC007F8
3F8007F8
3F8007F0
3F800FF0
3FC00FE0
3FC01FE0
7FC03FC0
7FE07FC0
7FFFFF80
7FFFFF00
FEFFFE00
FEFFFC00
FE7FF000
001FC000
ENDCHAR
STARTCHAR 0186
ENCODING 390
SWIDTH 720 0
DWIDTH 36 0
BBX 35 38 4 -1
BITMAP
00007F8000
0007FFF000
001FFFFC00
007FFFFE00
00FFFFFF00
01FFFFFF80
03FFE3FF80
07FE00FFC0
07F8003FC0
0FF0003FC0
0FF0001FE0
1FE0001FE0
1FE0001FE0
0000001FE0
0000001FE0
0000001FE0
0000001FE0
0000001FC0
0000001FC0
0000003FC0
0000003FC0
0000003F80
0000003F80
0000007F80
0000007F00
FF0000FF00
FF0001FE00
FF0001FE00
FF0003FC00
FF8007F800
7FC01FF800
7FFFFFF000
3FFFFFE000
3FFFFF8000
0FFFFF0000
07FFFC0000
01FFF00000
000E000000
ENDCHAR
STARTCHAR 0187
ENCODING 391
SWIDTH 760 0
DWIDTH 38 0
BBX 39 38 5 -1
BITMAP
000000001E
0001FFE1FE
0007FFFBFE
001FFFFFFE
007FFFFFFE
00FFFFFFFC
01FFFFFFF0
03FF00FFE0
07FC007FE0
07F8003FE0
0FF0003FC0
1FE0001FC0
1FE0001FC0
3FC0000000
3FC0000000
3F80000000
7F80000000
7F80000000
7F00000000
7F00000000
FF00000000
FF00000000
FF00000000
FF00000000
FF00000000
FF0000FE00
FF0000FE00
FF0001FE00
FF8003FC00
7F8007FC00
7FC00FF800
7FF8FFF000
3FFFFFE000
3FFFFFC000
1FFFFF8000
0FFFFE0000
03FFF80000
007FC00000
ENDCHAR
STARTCHAR 0188
ENCODING 392
SWIDTH 580 0
DWIDTH 29 0
BBX 32 29 4 -1
BITMAP
0000000F
001FFDFF
007FFFFE
00FFFFFE
03FFFFFE
07FFFFFE
0FFC3FF0
0FF01FE0
1FE01FE0
3FC01FC0
3F800000
7F800000
7F800000
7F000000
FF000000
FF000000
FF000000
FF000000
FF000000
FF003F00
FF007F00
FF00FF00
FF81FE00
7FFFFC00
7FFFF800
3FFFF000
1FFFE000
0FFF8000
01FC0000
ENDCHAR
STARTCHAR 0189
ENCODING 393
SWIDTH 720 0
DWIDTH 36 0
BBX 35 36 4 0
BITMAP
00FFFFE000
01FFFFF800
01FFFFFE00
01FFFFFF00
01FFFFFF80
03FFFFFF80
03FC03FFC0
03FC007FC0
03F8003FC0
03F8003FC0
07F8001FC0
07F8001FE0
07F0001FE0
07F0001FE0
0FF0001FC0
FFFFF01FC0
FFFFF01FC0
FFFFF03FC0
FFFFF03FC0
1FE0003FC0
1FE0003F80
1FC0007F80
1FC0007F80
1FC0007F00
3FC000FF00
3FC001FE00
3F8001FE00
3F8003FC00
7F8007F800
7F803FF800
7FFFFFF000
7FFFFFE000
7FFFFFC000
FFFFFF0000
FFFFFE0000
FFFFE00000
ENDCHAR
STARTCHAR 018A
ENCODING 394
SWIDTH 820 0
DWIDTH 41 0
BBX 39 36 5 0
BITMAP
007FFFFF00
01FFFFFFC0
07FFFFFFF0
0FFFFFFFF0
1FFFFFFFF8
3FFFFFFFF8
3FFFE01FFC
7F0FE007FC
7E1FE003FC
7E1FC003FC
FC1FC001FE
FC1FC001FE
FC1FC001FE
FE3F8001FC
FF3F8001FC
FF3F8001FC
FE3F8001FC
7E7F0001FC
7E7F0003FC
1E7F0003F8
007F0003F8
00FE0007F8
00FE0007F0
00FE000FF0
00FE000FF0
00FE001FE0
01FC003FC0
01FC007FC0
01FC00FF80
01FC03FF00
03FFFFFF00
03FFFFFE00
03FFFFFC00
03FFFFF000
07FFFFC000
07FFFE0000
ENDCHAR
STARTCHAR 018B
ENCODING 395
SWIDTH 720 0
DWIDTH 36 0
BBX 35 36 3 0
BITMAP
007FFFFFE0
007FFFFFC0
007FFFFFC0
00FFFFFFC0
00FFFFFFC0
00FFFFFFC0
0000003F80
0000003F80
0000003F80
0000007F80
0000007F80
0000007F00
0000007F00
000000FF00
001FFFFF00
00FFFFFE00
03FFFFFE00
07FFFFFE00
0FFFFFFE00
1FFFFFFE00
3FE001FC00
3FC001FC00
7F8003FC00
7F0003FC00
FF0003F800
FF0003F800
FF0003F800
FF0007F800
FF0007F800
FFC007F000
FFFFFFF000
7FFFFFF000
7FFFFFF000
3FFFFFF000
0FFFFFE000
03FFFFE000
ENDCHAR
STARTCHAR 018C
ENCODING 396
SWIDTH 620 0
DWIDTH 31 0
BBX 31 37 3 -1
BITMAP
000FFFFE
000FFFFE
000FFFFE
000FFFFE
001FFFFC
001FFFFC
000001FC
000001FC
000003F8
003FE3F8
00FFF3F8
01FFFBF8
03FFFFF8
07FFFFF0
0FFC7FF0
0FF01FF0
1FE01FF0
3FC00FE0
3F800FE0
7F800FE0
7F000FE0
7F000FE0
7F000FC0
FF001FC0
FF001FC0
FF001FC0
FF003FC0
FF003F80
FF007F80
FF00FF80
7F81FF80
7FFFFF00
7FFFFF00
3FFFFF00
1FFF7F00
0FFC7F00
03F00000
ENDCHAR
STARTCHAR 018D
ENCODING 397
SWIDTH 600 0
DWIDTH 30 0
BBX 32 36 -1 -8
BITMAP
0001FFE0
000FFFF8
003FFFFC
007FFFFE
00FFFFFE
01FFFFFF
03FF01FF
07FC00FF
07F800FF
0FF000FF
0FF000FF
0FE000FF
1FE000FE
1FC000FE
1FC000FE
1FC001FC
1FC001FC
3FC003F8
3FC007F8
1FE00FF0
1FF83FF0
1FFFFFE0
0FFFFFC0
0FFFFF00
07FFFE00
03FFF000
01FFC000
00FFE000
003FF800
001FFC00
000FFE00
3FFFFF00
7FFFFF00
7FFFFF00
7FFFFF00
FFFFFE00
ENDCHAR
STARTCHAR 018E
ENCODING 398
SWIDTH 660 0
DWIDTH 33 0
BBX 35 36 3 0
BITMAP
00FFFFFFE0
00FFFFFFC0
00FFFFFFC0
00FFFFFFC0
01FFFFFFC0
01FFFFFFC0
0000003F80
0000003F80
0000007F80
0000007F80
0000007F00
0000007F00
0000007F00
000000FF00
01FFFFFF00
03FFFFFE00
03FFFFFE00
03FFFFFE00
03FFFFFE00
03FFFFFC00
000001FC00
000001FC00
000003FC00
000003FC00
000003F800
000003F800
000007F800
000007F800
000007F800
000007F000
7FFFFFF000
7FFFFFF000
FFFFFFF000
FFFFFFE000
FFFFFFE000
FFFFFFE000
ENDCHAR
STARTCHAR 018F
ENCODING 399
SWIDTH 780 0
DWIDTH 39 0
BBX 36 37 3 0
BITMAP
0001FFF000
0007FFFC00
001FFFFE00
007FFFFF00
00FFFFFF80
01FFFFFFC0
03FF00FFC0
07FC003FE0
07F8001FE0
0FF0001FE0
1FE0001FE0
0000000FE0
0000000FF0
0000000FF0
0000000FF0
7FFFFFFFE0
7FFFFFFFE0
7FFFFFFFE0
FFFFFFFFE0
FFFFFFFFE0
FFFFFFFFC0
FF00001FC0
FF00003FC0
FF00003F80
FF00007F80
FF0000FF00
FF0000FF00
7F8001FE00
7FC003FC00
7FE00FFC00
3FF87FF800
3FFFFFF000
1FFFFFE000
0FFFFF8000
07FFFF0000
01FFFC0000
007FC00000
ENDCHAR
STARTCHAR 0190
ENCODING 400
SWIDTH 680 0
DWIDTH 34 0
BBX 34 37 1 0
BITMAP
0003FFF000
001FFFFC00
007FFFFE00
00FFFFFF00
01FFFFFF80
03FFFFFF80
03FE00FF80
07F8007F80
07F0003FC0
0FF0003F80
0FF0003F80
0FF0000000
0FF0000000
0FF8000000
0FFE000000
07FFFC0000
07FFF80000
03FFF80000
07FFF80000
1FFFF80000
3FFFF80000
3FF0000000
7FC0000000
7F80000000
FF00000000
FF0001FE00
FF0001FC00
FF0003FC00
FF0007FC00
FF800FF800
FFE0FFF000
7FFFFFE000
7FFFFFE000
3FFFFF8000
1FFFFF0000
07FFFC0000
00FFC00000
ENDCHAR
STARTCHAR 0191
ENCODING 401
SWIDTH 620 0
DWIDTH 31 0
BBX 38 47 -2 -11
BITMAP
000FFFFFFC
000FFFFFFC
000FFFFFF8
001FFFFFF8
001FFFFFF8
001FFFFFF8
001FC00000
001FC00000
003FC00000
003FC00000
003FC00000
003F800000
003F800000
007F800000
007F800000
007FFFFF00
007FFFFF00
00FFFFFF00
00FFFFFF00
00FFFFFF00
00FFFFFE00
00FE000000
01FE000000
01FE000000
01FE000000
01FC000000
01FC000000
03FC000000
03FC000000
03FC000000
03F8000000
03F8000000
07F8000000
07F8000000
07F0000000
07F0000000
0FF0000000
0FF0000000
0FF0000000
0FE0000000
1FE0000000
7FE0000000
FFE0000000
FFC0000000
FFC0000000
FF80000000
FE00000000
ENDCHAR
STARTCHAR 0192
ENCODING 402
SWIDTH 340 0
DWIDTH 17 0
BBX 24 47 -1 -11
BITMAP
00007F
0001FF
0003FF
0007FE
000FFE
000FF0
000FE0
000FE0
001FC0
001FC0
01FFFC
01FFFC
01FFFC
03FFF8
03FFF8
003F80
003F80
007F00
007F00
007F00
007F00
007F00
00FE00
00FE00
00FE00
00FE00
00FE00
01FC00
01FC00
01FC00
01FC00
03F800
03F800
03F800
03F800
03F800
07F000
07F000
07F000
07F000
0FF000
7FE000
7FE000
7FE000
FFC000
FF8000
FE0000
ENDCHAR
STARTCHAR 0193
ENCODING 403
SWIDTH 780 0
DWIDTH 39 0
BBX 40 38 3 -1
BITMAP
000000000F
0001FFF0FF
0007FFFDFF
001FFFFFFF
003FFFFFFE
007FFFFFFE
01FFFFFFF8
03FF007FF0
03FC003FF0
07F8001FE0
0FF0001FE0
0FE0000FE0
1FE0000000
1FC0000000
3FC0000000
3F80000000
7F80000000
7F00000000
7F001FFFC0
7F001FFF80
FF001FFF80
FF001FFF80
FF003FFF80
FF003FFF00
FF00003F00
FF00003F00
FF00007F00
FF0000FF00
FF8001FE00
7FC003FE00
7FE007FE00
3FF83FFE00
3FFFFFFC00
1FFFFF7C00
0FFFFE7C00
07FFFC7C00
03FFF07C00
007F800000
ENDCHAR
STARTCHAR 0194
ENCODING 404
SWIDTH 660 0
DWIDTH 33 0
BBX 31 37 9 -1
BITMAP
FF0003FE
FF0003FC
7F8007F8
7F800FF0
7F800FF0
3FC01FE0
3FC03FC0
3FC03FC0
1FC07F80
1FE0FF00
1FE0FE00
0FE1FE00
0FE3FC00
0FF3F800
0FF7F000
07FFF000
07FFE000
07FFC000
03FF8000
03FF8000
03FF0000
01FE0000
01FE0000
03FE0000
07FE0000
07FF0000
0FFF0000
1FFF0000
1FFF0000
3FBF0000
3F3F0000
7F7F0000
7FFF0000
7FFF0000
7FFE0000
3FFC0000
0FE00000
ENDCHAR
STARTCHAR 0195
ENCODING 405
SWIDTH 940 0
DWIDTH 47 0
BBX 46 37 3 -1
BITMAP
00FE00000000
00FE00000000
00FE00000000
01FC00000000
01FC00000000
01FC00000000
01FC00000000
03F800000000
03F800000000
03F87F8001FC
03F9FFE001FC
03FBFFF001FC
07F7FFF001FC
07FFFFF003F8
07FFFFF803F8
07FC0FF803F8
07F807F003F8
0FF007F003F0
0FE007F007F0
0FE007F007F0
0FE007F007F0
1FC00FF007F0
1FC00FE007E0
1FC00FE00FE0
1FC00FE00FE0
1FC01FE00FE0
3F801FE00FC0
3F801FE01FC0
3F801FE01FC0
3F801FE03F80
3F801FF0FF80
7F001FFFFF00
7F001FFFFF00
7F000FFFFE00
7F0007FFF800
FE0003FFF000
000000FF8000
ENDCHAR
STARTCHAR 0196
ENCODING 406
SWIDTH 280 0
DWIDTH 14 0
BBX 15 40 3 -2
BITMAP
00FE
00FC
01FC
01FC
01FC
01F8
03F8
03F8
03F8
03F8
03F0
07F0
07F0
07F0
07F0
0FE0
0FE0
0FE0
0FE0
0FC0
1FC0
1FC0
1FC0
1FC0
3F80
3F80
3F80
3F80
7F80
7F00
7F00
7F00
7F00
FF10
FFF0
FFE0
FFE0
FFE0
7FE0
1FC0
ENDCHAR
STARTCHAR 0197
ENCODING 407
SWIDTH 400 0
DWIDTH 20 0
BBX 21 36 3 0
BITMAP
003FC0
003FC0
003F80
003F80
003F80
007F80
007F80
007F00
007F00
00FF00
00FF00
00FE00
00FE00
00FE00
01FE00
7FFFF8
7FFFF0
7FFFF0
FFFFF0
FFFFF0
FFFFF0
03F800
03F800
07F800
07F800
07F000
07F000
07F000
0FF000
0FF000
0FE000
0FE000
1FE000
1FE000
1FE000
1FC000
ENDCHAR
STARTCHAR 0198
ENCODING 408
SWIDTH 780 0
DWIDTH 39 0
BBX 41 37 1 0
BITMAP
00000000F800
00FE0003FE00
00FE000FFF00
01FE001FFF80
01FE003FFF80
01FE007FFF80
01FC01FF3F80
01FC03FC1F80
03FC07F81F80
03FC0FF01F80
03F81FE03F00
03F83FC07F00
03F87F80FE00
07F8FE007E00
07F9FC003C00
07F3F8001800
07FFF8000000
0FFFF8000000
0FFFFC000000
0FFFFC000000
0FFFFE000000
0FFDFF000000
1FF8FF000000
1FF0FF800000
1FE07F800000
1FC07FC00000
1FC03FC00000
3FC03FE00000
3FC01FE00000
3F801FF00000
3F800FF00000
7F800FF80000
7F8007FC0000
7F0007FC0000
7F0003FE0000
7F0003FE0000
FF0001FF0000
ENDCHAR
STARTCHAR 0199
ENCODING 409
SWIDTH 560 0
DWIDTH 28 0
BBX 29 36 3 0
BITMAP
003FC000
007FC000
00FF8000
01FF8000
01FF8000
03FF8000
03F80000
03F80000
03F80000
03F807F8
07F00FF0
07F01FE0
07F03FC0
07F07F00
0FF0FE00
0FE1FC00
0FE3F800
0FE7F000
0FEFE000
1FFFC000
1FFFE000
1FFFE000
1FFFE000
1FFFF000
3FFFF000
3FE7F000
3FC7F800
3F87F800
3F83FC00
7F03FC00
7F03FC00
7F01FE00
7F01FE00
FE01FE00
FE00FF00
FE00FF00
ENDCHAR
STARTCHAR 019A
ENCODING 410
SWIDTH 340 0
DWIDTH 17 0
BBX 20 38 2 0
BITMAP
001FC0
001F80
003F80
003F80
003F80
003F80
003F00
007F00
007F00
007F00
007E00
00FE00
00FE00
00FE00
00FE00
00FC00
7FFFF0
7FFFF0
7FFFF0
7FFFF0
FFFFF0
FFFFE0
03F800
03F800
03F000
07F000
07F000
07F000
07F000
07E000
0FE000
0FE000
0FE000
0FC000
1FC000
1FC000
1FC000
1FC000
ENDCHAR
STARTCHAR 019B
ENCODING 411
SWIDTH 620 0
DWIDTH 31 0
BBX 29 36 1 1
BITMAP
003FC000
003FE008
003FF030
007FF0F0
007FFBF0
007FFFF0
0003FFC0
0001FF00
0001FC00
0007FC00
001FFC00
007FFC00
00FFFC00
03FFFC00
03E7FC00
038FFE00
020FFE00
041FFE00
003FFE00
003FFE00
007F7E00
007E7F00
00FE7F00
01FC7F00
01FC3F00
03F83F00
03F83F00
07F03F80
0FE03F80
0FE03F90
1FC03FF0
1FC01FF0
3F801FF0
7F801FF0
7F001FF0
FE000FE0
ENDCHAR
STARTCHAR 019C
ENCODING 412
SWIDTH 880 0
DWIDTH 44 0
BBX 45 36 3 0
BITMAP
03FC03FC03F8
03F803F803F8
03F803F803F8
07F803F807F8
07F807F807F8
07F807F807F0
07F007F007F0
07F007F007F0
0FF00FF00FF0
0FF00FF00FF0
0FE00FF00FE0
0FE00FE00FE0
0FE00FE01FE0
1FE01FE01FE0
1FE01FE01FC0
1FC01FC01FC0
1FC01FC01FC0
3FC01FC03FC0
3FC03FC03FC0
3FC03FC03F80
3F803F803F80
3F803F803F80
7F803F807F80
7F807F807F80
7F007F807F00
7F007F007F00
7F00FF00FF00
FF00FF00FF00
FF01FF01FE00
FF03FF83FE00
FFFFFFFFFE00
FFFFFFFFFE00
FFFFFFFFFE00
7FFEFFFDFC00
3FFC7FF9FC00
1FF03FE1FC00
ENDCHAR
STARTCHAR 019D
ENCODING 413
SWIDTH 720 0
DWIDTH 36 0
BBX 42 47 -2 -11
BITMAP
000FF0003FC0
000FF8003FC0
000FF8003FC0
000FFC003F80
000FFC003F80
001FFC007F80
001FFE007F80
001FFE007F00
001FFE007F00
003FFF007F00
003FFF00FF00
003FBF80FF00
003FBF80FE00
003F9F80FE00
007F9FC1FE00
007F9FC1FE00
007F0FC1FE00
007F0FE1FC00
007F0FE1FC00
00FF07F3FC00
00FF07F3FC00
00FE03F3F800
00FE03FBF800
00FE03FBF800
01FE01FFF800
01FE01FFF800
01FC01FFF000
01FC00FFF000
03FC00FFF000
03FC00FFF000
03F8007FF000
03F8007FE000
03F8003FE000
07F8003FE000
07F8003FE000
07F0001FC000
07F000000000
07F000000000
0FF000000000
0FF000000000
0FE000000000
7FE000000000
7FE000000000
FFC000000000
FFC000000000
FF8000000000
FE0000000000
ENDCHAR
STARTCHAR 019E
ENCODING 414
SWIDTH 620 0
DWIDTH 31 0
BBX 29 37 1 -9
BITMAP
03F87FC0
03F9FFE0
03FBFFF0
07F7FFF0
07FFFFF0
07FFFFF8
07FC0FF8
0FF807F0
0FF007F0
0FE007F0
0FE007F0
0FE007F0
1FC00FE0
1FC00FE0
1FC00FE0
1FC00FE0
1FC01FC0
3F801FC0
3F801FC0
3F801FC0
3F801FC0
7F003F80
7F003F80
7F003F80
7F003F80
7F003F80
FE007F00
00007F00
00007F00
00007F00
0000FF00
0000FE00
0000FE00
0000FE00
0000FE00
0001FC00
0001FC00
ENDCHAR
STARTCHAR 019F
ENCODING 415
SWIDTH 780 0
DWIDTH 39 0
BBX 37 37 1 0
BITMAP
0000FFF800
0007FFFE00
001FFFFF00
003FFFFF80
007FFFFFC0
00FFFFFFE0
01FF807FE0
03FE003FF0
07F8001FF0
0FF0000FF0
0FE0000FF0
1FE00007F0
1FC00007F8
3FC00007F8
3F800007F0
7FFFFFFFF0
7FFFFFFFF0
7FFFFFFFF0
FFFFFFFFF0
FFFFFFFFF0
FFFFFFFFE0
FF00001FE0
FF00001FE0
FF00003FC0
FF00003FC0
FF00007F80
FF0000FF80
7F8001FF00
7FC003FE00
7FE007FC00
3FF83FFC00
3FFFFFF000
1FFFFFE000
0FFFFFC000
07FFFF0000
01FFFC0000
003FE00000
ENDCHAR
STARTCHAR 01A0
ENCODING 416
SWIDTH 780 0
DWIDTH 39 0
BBX 44 39 5 -1
BITMAP
000000000FF0
000000000FE0
0000FFF80FE0
0007FFFE1FE0
001FFFFF1FC0
003FFFFF9F80
007FFFFFFF00
00FFFFFFFC00
01FF807FF000
03FE003FF000
07F8001FF000
0FF0000FF000
0FF0000FF000
1FE00007F000
1FC00007F800
3FC00007F800
3F800007F800
7F800007F000
7F800007F000
7F000007F000
7F000007F000
FF00000FF000
FF00000FE000
FF00000FE000
FF00001FE000
FF00001FC000
FF00003FC000
FF00007F8000
FF00007F8000
FF8000FF0000
7FC003FE0000
7FE007FE0000
3FF83FFC0000
3FFFFFF80000
1FFFFFE00000
0FFFFFC00000
07FFFF000000
01FFFC000000
003FE0000000
ENDCHAR
STARTCHAR 01A1
ENCODING 417
SWIDTH 660 0
DWIDTH 33 0
BBX 36 30 4 -1
BITMAP
0000000FF0
0000000FE0
001FFE0FE0
007FFF8FC0
01FFFFDFC0
03FFFFFF80
07FFFFFE00
0FFC3FFC00
0FF00FF000
1FE00FF000
3FC007F000
3FC007F800
7F8007F800
7F8007F000
7F0007F000
7F0007F000
FF0007F000
FF000FF000
FF000FE000
FF001FE000
FF001FC000
FF003FC000
FF807F8000
FFC0FF8000
7FFFFF0000
7FFFFE0000
3FFFFC0000
1FFFF00000
0FFFC00000
01FF000000
ENDCHAR
STARTCHAR 01A2
ENCODING 418
SWIDTH 980 0
DWIDTH 49 0
BBX 48 47 5 -10
BITMAP
000000000380
0000FFE01FF8
0007FFF87FFC
001FFFFCFFFE
003FFFFFFFFE
007FFFFFFFFE
00FFFFFFFFFF
01FF81FFF8FF
03FE007FF0FE
07F8003FF0FE
0FF0003FE0FE
0FF0001FE1FE
1FE0001FE1FE
1FC0001FE1FC
3FC0001FE1FC
3F80001FE1FC
7F80001FC3FC
7F00001FC3F8
7F00001FC3F8
7F00003FC3F8
FF00003FC3F8
FF00003F87F8
FF00003F87F0
FF00007F87F0
FF00007F07F0
FF0000FF07F0
FF0001FE0FE0
FF0001FE0FE0
FF8003FC0FE0
7F800FF80FE0
7FC01FF80FC0
7FF0FFF01FC0
3FFFFFE01FC0
1FFFFF801FC0
1FFFFF001F80
07FFFC001F80
03FFF0003F80
007F80003F80
000000003F80
000000003F00
000000003F00
000000007F00
000000007F00
000000007E00
000000007E00
000000007E00
00000000FE00
ENDCHAR
STARTCHAR 01A3
ENCODING 419
SWIDTH 740 0
DWIDTH 37 0
BBX 34 38 4 -10
BITMAP
0000001F00
000FC03F80
007FF87FC0
00FFFCFFC0
03FFFFFFC0
07FFFFFFC0
0FFFFFFFC0
1FE07F8FC0
1FC07F0FC0
3F803F0FC0
3F003F0FC0
7F003F0FC0
7E003F1FC0
7E003F1F80
FE003F1F80
FE007F1F80
FC007E1F80
FC007E3F00
FC00FE3F00
FE01FC3F00
FE03FC3F00
FF07F87E00
FFFFF07E00
7FFFE07E00
7FFFC07E00
3FFF80FE00
1FFE00FC00
03F800FC00
000000FC00
000000FC00
000001F800
000001F800
000001F800
000001F800
000003F000
000003F000
000003F000
000003F000
ENDCHAR
STARTCHAR 01A4
ENCODING 420
SWIDTH 760 0
DWIDTH 38 0
BBX 38 36 5 0
BITMAP
007FFFFF80
01FFFFFFE0
07FFFFFFF0
0FFFFFFFF8
1FFFFFFFF8
3FFFFFFFF8
3FFFE00FF8
7F8FE007FC
7E0FE003FC
7E1FC003F8
FC1FC003F8
FC1FC003F8
FC1FC003F8
FE3F8007F8
FF3F8007F0
FF3F800FF0
FF3F803FE0
7E7FFFFFC0
7E7FFFFFC0
1E7FFFFF80
007FFFFF00
007FFFFC00
00FFFFF000
00FE000000
00FE000000
00FC000000
01FC000000
01FC000000
01FC000000
01FC000000
03F8000000
03F8000000
03F8000000
03F8000000
07F0000000
07F0000000
ENDCHAR
STARTCHAR 01A5
ENCODING 421
SWIDTH 620 0
DWIDTH 31 0
BBX 37 39 -1 -11
BITMAP
00000003F8
00FE3FEFF8
01FCFFFFF8
01FDFFFFF0
01FFFFFFF0
01FFFFFFF0
01FF87FF80
03FF01FF00
03FE01FF00
03FC00FF00
03F800FF00
03F800FE00
07F800FE00
07F000FE00
07F000FE00
07F001FC00
07F001FC00
0FE001FC00
0FF003FC00
0FF003F800
0FF007F800
1FF00FF000
1FF81FE000
1FFFFFE000
1FFFFFC000
1FFFFF8000
3F9FFF0000
3F8FFC0000
3F87F00000
3F80000000
3F80000000
7F00000000
7F00000000
7F00000000
7F00000000
FF00000000
FE00000000
FE00000000
FE00000000
ENDCHAR
STARTCHAR 01A6
ENCODING 422
SWIDTH 640 0
DWIDTH 32 0
BBX 29 45 3 -9
BITMAP
00FE0000
01FE0000
01FE0000
01FE0000
01FC0000
01FC0000
03FC0000
03FC0000
03F80000
03FFFF00
03FFFFC0
07FFFFE0
07FFFFF0
07FFFFF0
07FFFFF0
0FF00FF8
0FF007F8
0FE007F0
0FE007F0
0FE00FF0
1FE01FE0
1FFFFFE0
1FFFFFC0
1FFFFF80
3FFFFF80
3FFFFFC0
3FFFFFC0
3F807FC0
3F803FE0
7F801FE0
7F801FE0
7F001FC0
7F001FC0
7F001FC0
FF003FC0
FF003FC0
00003F80
00003F80
00003F80
00007F80
00007F80
00007F80
00007F80
00007F80
00007F80
ENDCHAR
STARTCHAR 01A7
ENCODING 423
SWIDTH 660 0
DWIDTH 33 0
BBX 34 37 3 0
BITMAP
0001FFF000
000FFFFC00
003FFFFE00
007FFFFF00
00FFFFFF80
01FFFFFF80
01FF00FF80
03FE003FC0
03FC003FC0
07F8003F80
07F8003F80
0000007F80
000000FF80
000007FF00
00007FFF00
000FFFFE00
00FFFFF800
03FFFFF000
07FFFFC000
1FFFFE0000
1FFFC00000
3FF8000000
7FC0000000
7F80000000
7F00000000
FF00000000
FF0001FC00
FF0003FC00
FF0003F800
FF800FF800
FFE0FFF000
7FFFFFE000
7FFFFFC000
3FFFFF8000
1FFFFE0000
0FFFF80000
01FFC00000
ENDCHAR
STARTCHAR 01A8
ENCODING 424
SWIDTH 560 0
DWIDTH 28 0
BBX 28 28 2 0
BITMAP
000FFE00
007FFF80
00FFFFC0
03FFFFE0
03FFFFE0
07FC1FF0
0FF00FF0
0FE00FE0
00001FE0
00003FE0
0003FFC0
003FFFC0
01FFFF80
07FFFE00
0FFFF800
3FFFE000
3FFE0000
7FF00000
FF800000
FF001FC0
FF003FC0
FF00FF80
FFFFFF00
FFFFFE00
7FFFFC00
3FFFF800
1FFFE000
03FF0000
ENDCHAR
STARTCHAR 01A9
ENCODING 425
SWIDTH 680 0
DWIDTH 34 0
BBX 39 37 0 -1
BITMAP
001FFFFFFE
001FFFFFFE
003FFFFFFE
003FFFFFFC
003FFFFFFC
003FFFFFFC
003FF00000
001FF00000
000FF80000
000FF80000
0007FC0000
0007FC0000
0003FE0000
0003FF0000
0001FF0000
0000FF8000
0000FF8000
0000FF8000
0001FF0000
0003FE0000
0007FC0000
000FF80000
001FF00000
003FE00000
007FC00000
00FF800000
03FE000000
07FC000000
0FF8000000
1FF0000000
3FE0000000
7FFFFFFF00
7FFFFFFF00
7FFFFFFF00
7FFFFFFE00
FFFFFFFE00
FFFFFFFE00
ENDCHAR
STARTCHAR 01AA
ENCODING 426
SWIDTH 440 0
DWIDTH 22 0
BBX 15 47 8 -10
BITMAP
07F8
0FFC
3FFC
3FFE
7FFE
7E7E
FC7E
FC7C
FEFC
FFFC
FFFC
7FFC
3FF8
1FF8
01F8
01F8
03F8
03F8
03F0
03F0
03F0
07F0
07F0
07E0
07E0
0FE0
0FE0
0FE0
0FE0
0FC0
1FC0
1FC0
1FC0
1FC0
3F80
3F80
3F80
3F80
3F80
7F80
7F80
7FF0
7FE0
7FE0
3FE0
1FE0
07C0
ENDCHAR
STARTCHAR 01AB
ENCODING 427
SWIDTH 340 0
DWIDTH 17 0
BBX 17 45 3 -11
BITMAP
00FE00
00FE00
01FC00
01FC00
01FC00
01FC00
01FC00
1FFF80
1FFF80
1FFF80
1FFF80
3FFF00
07F000
07F000
07F000
07F000
0FE000
0FE000
0FE000
0FE000
0FE000
1FC000
1FC000
1FC000
1FC000
1FC000
3F8000
3F8000
3FC000
3FC000
3FF800
3FF800
3FF800
1FF000
0FF000
07F000
07F000
0FE000
0FE000
7FE000
FFE000
FFC000
FFC000
FF8000
FE0000
ENDCHAR
STARTCHAR 01AC
ENCODING 428
SWIDTH 600 0
DWIDTH 30 0
BBX 32 36 5 0
BITMAP
01FFFFFF
07FFFFFF
0FFFFFFF
1FFFFFFF
3FFFFFFE
7FFFFFFE
7F03F800
7E03F800
FC07F800
FC07F000
FC07F000
FE07F000
FF87F000
FF0FE000
7F0FE000
7F0FE000
3F0FE000
0E1FC000
001FC000
001FC000
001FC000
003FC000
003F8000
003F8000
003F8000
003F8000
007F0000
007F0000
007F0000
007F0000
00FE0000
00FE0000
00FE0000
00FE0000
01FC0000
01FC0000
ENDCHAR
STARTCHAR 01AD
ENCODING 429
SWIDTH 340 0
DWIDTH 17 0
BBX 17 37 5 -1
BITMAP
007F80
00FF80
01FF00
03FF00
03FF00
07FF00
07F000
07F000
07F000
7FFE00
7FFE00
7FFE00
7FFE00
FFFE00
1FC000
1FC000
1FC000
1FC000
1FC000
3F8000
3F8000
3F8000
3F8000
3F8000
7F0000
7F0000
7F0000
7F0000
FF0000
FE0000
FF0000
FF0000
FFE000
FFE000
FFC000
7FC000
1FC000
ENDCHAR
STARTCHAR 01AE
ENCODING 430
SWIDTH 620 0
DWIDTH 31 0
BBX 30 47 5 -11
BITMAP
7FFFFFFC
FFFFFFFC
FFFFFFF8
FFFFFFF8
FFFFFFF8
FFFFFFF8
003FC000
003FC000
003F8000
003F8000
003F8000
007F8000
007F8000
007F0000
007F0000
00FF0000
00FF0000
00FF0000
00FE0000
00FE0000
01FE0000
01FE0000
01FC0000
01FC0000
01FC0000
03FC0000
03FC0000
03F80000
03F80000
03F80000
07F80000
07F80000
07F00000
07F00000
0FF00000
0FF00000
0FE00000
0FE00000
0FE00000
1FE00000
1FE00000
1FF80000
1FF80000
1FF00000
1FF00000
0FF00000
07F00000
ENDCHAR
STARTCHAR 01AF
ENCODING 431
SWIDTH 760 0
DWIDTH 38 0
BBX 42 45 6 -1
BITMAP
000000001FC0
000000001FC0
000000003F80
000000003F80
000000003F00
000000007E00
00000000F800
00000003F000
07F8001FC000
07F8001FC000
07F8003FC000
07F0003FC000
07F0003F8000
0FF0003F8000
0FF0003F8000
0FE0007F8000
0FE0007F8000
0FE0007F0000
1FE0007F0000
1FE000FF0000
1FC000FF0000
1FC000FF0000
3FC000FE0000
3FC000FE0000
3FC001FE0000
3F8001FE0000
3F8001FC0000
7F8001FC0000
7F8001FC0000
7F0003FC0000
7F0003FC0000
7F0003F80000
FF0003F80000
FF0007F80000
FF0007F80000
FF000FF00000
FF000FF00000
FF803FE00000
FFE1FFE00000
7FFFFFC00000
7FFFFF800000
3FFFFF000000
1FFFFC000000
07FFF0000000
00FF80000000
ENDCHAR
STARTCHAR 01B0
ENCODING 432
SWIDTH 660 0
DWIDTH 33 0
BBX 36 36 4 -1
BITMAP
00000007F0
00000007F0
00000007E0
0000000FE0
0000000FC0
0000000F80
0000001F00
0000007C00
0FE003F800
0FE007F000
0FE007F000
0FE007F000
1FC007F000
1FC007F000
1FC00FE000
1FC00FE000
3FC00FE000
3F800FE000
3F800FE000
3F801FC000
3F801FC000
7F001FC000
7F001FC000
7F003FC000
7F003F8000
7F003F8000
FF003F8000
FF007F8000
FF00FF0000
FFC7FF0000
FFFFFF0000
FFFFFF0000
7FFF7F0000
7FFEFE0000
3FF8FE0000
0FE0000000
ENDCHAR
STARTCHAR 01B1
ENCODING 433
SWIDTH 780 0
DWIDTH 39 0
BBX 41 39 2 -2
BITMAP
03FFFC7FFF80
03FFF87FFF80
03FFF87FFF80
07FFF8FFFF00
07FFF8FFFF00
07FFF8FFFF00
07FFF0FFFF00
007FC03FC000
00FF001FE000
01FE001FE000
03FC000FF000
07F80007F000
0FF00007F800
0FE00007F800
1FC00007F800
3FC00007F800
3F800007F800
3F800007F800
7F800007F000
7F000007F000
7F000007F000
7F00000FF000
FF00000FE000
FF00001FE000
FF00001FC000
FF00003FC000
FF00003F8000
FF00007F8000
7F8000FF0000
7F8001FE0000
7FC003FE0000
3FF00FFC0000
3FFFFFF80000
1FFFFFF00000
1FFFFFC00000
0FFFFF800000
03FFFE000000
00FFF8000000
000200000000
ENDCHAR
STARTCHAR 01B2
ENCODING 434
SWIDTH 720 0
DWIDTH 36 0
BBX 33 36 5 0
BITMAP
03F807F800
03F807FC00
07F803FC00
07F803FE00
07F001FE00
07F001FE00
0FF001FF00
0FF000FF00
0FE000FF00
0FE000FF00
0FE0007F00
1FE0007F80
1FE0007F80
1FC0007F80
1FC0007F00
3FC0007F00
3FC0007F00
3FC0007F00
3F80007F00
7F8000FF00
7F8000FE00
7F8000FE00
7F0000FE00
7F0001FE00
FF0001FC00
FF0003FC00
FF0007F800
FF000FF800
FF001FF000
FF80FFE000
FFFFFFE000
7FFFFFC000
7FFFFF0000
3FFFFE0000
1FFFF80000
07FFE00000
ENDCHAR
STARTCHAR 01B3
ENCODING 435
SWIDTH 760 0
DWIDTH 38 0
BBX 39 36 5 0
BITMAP
FF80003F80
7F8000FFE0
7F8001FFF0
7F8007FFF8
3FC00FFFFC
3FC00FFFFC
3FC01FF3FC
1FE03FC1FE
1FE03F81FE
1FE07F01FC
0FE0FF03FC
0FF0FE03FC
0FF1FC03F8
07F3FC00F8
07F7F80030
07FFF00000
03FFE00000
03FFE00000
03FFC00000
03FF800000
01FF000000
01FF000000
01FE000000
01FE000000
01FC000000
01FC000000
01FC000000
03FC000000
03FC000000
03F8000000
03F8000000
03F8000000
07F8000000
07F8000000
07F0000000
07F0000000
ENDCHAR
STARTCHAR 01B4
ENCODING 436
SWIDTH 640 0
DWIDTH 32 0
BBX 38 47 2 -11
BITMAP
00000003FC
00000007FC
0000000FF8
0000001FF8
0000003FF8
0000003FC0
0000007F00
000000FF00
000000FE00
0FF001FC00
0FF001FC00
07F003F800
07F003F800
07F007F000
07F007F000
07F80FE000
07F80FC000
07F81FC000
07F81F8000
03F83F8000
03F83F0000
03F87F0000
03F87E0000
03F8FE0000
03F8FC0000
03F9F80000
01FDF80000
01FFF00000
01FFF00000
01FFE00000
01FFE00000
01FFC00000
01FF800000
00FF800000
00FF000000
00FF000000
00FE000000
00FE000000
00FC000000
01FC000000
03F8000000
7FF0000000
7FF0000000
7FE0000000
FFC0000000
FF80000000
FE00000000
ENDCHAR
STARTCHAR 01B5
ENCODING 437
SWIDTH 620 0
DWIDTH 31 0
BBX 35 36 2 0
BITMAP
01FFFFFFE0
01FFFFFFC0
01FFFFFFC0
03FFFFFFC0
03FFFFFFC0
03FFFFFF80
000000FF80
000001FF00
000003FE00
000007FC00
00000FF800
00001FF000
00003FE000
00007FC000
0000FF8000
0000FF0000
0001FE0000
03FFFFF000
03FFFFF000
03FFFFF000
001FE00000
003FC00000
00FF800000
01FF000000
03FE000000
07FC000000
0FF8000000
1FF0000000
3FE0000000
7FC0000000
7FFFFFF000
FFFFFFF000
FFFFFFF000
FFFFFFE000
FFFFFFE000
FFFFFFE000
ENDCHAR
STARTCHAR 01B6
ENCODING 438
SWIDTH 500 0
DWIDTH 25 0
BBX 28 27 1 0
BITMAP
01FFFFF0
03FFFFE0
03FFFFE0
03FFFFE0
03FFFFE0
03FFFFE0
00007FC0
0000FF80
0001FF00
0003FE00
0007FC00
000FF800
03FFFE00
03FFFE00
03FFFC00
00FF0000
01FE0000
03FC0000
0FF80000
1FF00000
3FE00000
7FFFFF00
7FFFFE00
7FFFFE00
7FFFFE00
FFFFFE00
FFFFFE00
ENDCHAR
STARTCHAR 01B7
ENCODING 439
SWIDTH 560 0
DWIDTH 28 0
BBX 27 37 2 -1
BITMAP
00FFFFE0
00FFFFE0
00FFFFE0
00FFFFE0
01FFFFC0
01FFFFC0
00003FC0
00003F80
00007F00
0000FE00
0000FE00
0001FC00
0003F800
0007F000
0007F000
000FE000
000FC000
001FF800
001FFC00
001FFE00
0001FF00
0000FF00
00007F00
00007F80
00007F80
FF007F00
FF007F00
FF00FF00
FF00FE00
FF01FE00
FFC7FC00
7FFFFC00
7FFFF800
3FFFF000
3FFFE000
0FFF8000
03FC0000
ENDCHAR
STARTCHAR 01B8
ENCODING 440
SWIDTH 560 0
DWIDTH 28 0
BBX 28 37 2 -1
BITMAP
00FFFFF0
00FFFFF0
00FFFFF0
00FFFFF0
00FFFFF0
01FFFFE0
01FE0000
00FE0000
00FE0000
00FF0000
007F0000
007F0000
007F8000
003F8000
003F8000
003FC000
003FC000
01FF8000
07FF8000
0FFF8000
1FF80000
3FC00000
3F800000
7F800000
7F000000
FF000000
FF003F80
FF003F80
FF007F00
FF80FF00
FFC3FE00
7FFFFC00
7FFFFC00
3FFFF800
1FFFE000
0FFFC000
01FE0000
ENDCHAR
STARTCHAR 01B9
ENCODING 441
SWIDTH 640 0
DWIDTH 32 0
BBX 32 33 2 -7
BITMAP
01FFFFFF
01FFFFFF
01FFFFFE
01FFFFFE
03FFFFFE
01FFFFFE
00FF0000
00FF8000
007FC000
003FE000
001FF000
001FF800
00FFF800
03FFF800
07FFF800
0FFFF800
1FFFF000
3FF00000
3FC00000
7F800000
7F0001FC
FF0003F8
FF0003F8
FF0003F8
FF0007F0
FF000FF0
FFC03FE0
7FFFFFE0
7FFFFFC0
3FFFFF80
1FFFFF00
0FFFFC00
01FFE000
ENDCHAR
STARTCHAR 01BA
ENCODING 442
SWIDTH 560 0
DWIDTH 28 0
BBX 29 41 1 -13
BITMAP
01FFFFF8
01FFFFF8
01FFFFF8
03FFFFF8
03FFFFF0
03FFFFF0
03FFFFE0
00003FC0
00007F80
0000FF00
0001FE00
0003FC00
0007F800
000FF800
000FFE00
001FFF80
001FFFC0
001FFFC0
001FFFC0
00003FE0
00001FE0
00000FE0
00000FE0
00000FC0
00001FC0
00003F80
1FF1FF80
3FFFFF00
7FFFFE00
FFFFFC00
FFFFF800
FDFFE000
FC3F0000
FE007800
FF0FF800
FFFFF800
FFFFF800
7FFFF800
7FFFF800
1FFFC000
07FC0000
ENDCHAR
STARTCHAR 01BB
ENCODING 443
SWIDTH 580 0
DWIDTH 29 0
BBX 33 36 1 1
BITMAP
0000FFE000
0007FFF800
000FFFFC00
001FFFFE00
003FFFFF00
007FFFFF00
00FF81FF00
00FF00FF80
01FE007F80
01FC007F00
01FC007F00
03F8007F00
03F800FF00
03F800FE00
000001FE00
003803FC00
007E0FFC00
007FBFF800
007FFFF000
007FFFE000
007FFF8000
003FFFC000
007FFFE000
00FFFFE000
03FFFFE000
07FF1FE000
0FFC07E000
0FF000C000
1FC0000000
3FC0000000
3FFFFFF000
7FFFFFE000
7FFFFFE000
7FFFFFE000
FFFFFFE000
FFFFFFC000
ENDCHAR
STARTCHAR 01BE
ENCODING 446
SWIDTH 540 0
DWIDTH 27 0
BBX 26 36 1 0
BITMAP
0001F800
0001F800
0001F800
0003F800
003FFF80
003FFF80
003FFF80
007FFF00
007FFF00
0007E000
0007E000
0007E000
0007E000
0007E000
0007F000
0007F800
0007FC00
0003FF00
0001FF00
0000FF80
00007FC0
00003FC0
00003FC0
00003FC0
7F003FC0
7F003FC0
FF003F80
FF007F80
FF007F00
7F80FF00
7FC3FE00
7FFFFC00
3FFFF800
3FFFF000
1FFFE000
07FF0000
ENDCHAR
STARTCHAR 01BF
ENCODING 447
SWIDTH 600 0
DWIDTH 30 0
BBX 34 38 1 -10
BITMAP
00FE0FFC00
00FE3FFF00
00FEFFFF00
01FDFFFF80
01FFFFFF80
01FFFFFF80
01FFE07FC0
03FF003FC0
03FC003F80
03F8003F80
03F8007F80
07F8007F80
07F000FF00
07F000FF00
07F001FE00
07F003FE00
0FE007FC00
0FE00FF800
0FE01FF000
0FE03FE000
1FC07FC000
1FC1FF8000
1FC3FE0000
1FC7FC0000
3FDFF00000
3FFFE00000
3FFF800000
3FFE000000
3FF8000000
7FE0000000
7F80000000
7F00000000
7F00000000
FE00000000
FE00000000
FE00000000
FE00000000
FE00000000
ENDCHAR
STARTCHAR 01C0
ENCODING 448
SWIDTH 260 0
DWIDTH 13 0
BBX 13 41 4 -1
BITMAP
0078
0078
0078
0078
00F0
00F0
00F0
00F0
01E0
01E0
01E0
01E0
03E0
03C0
03C0
03C0
03C0
0780
0780
0780
0780
0F00
0F00
0F00
0F00
0F00
1E00
1E00
1E00
1E00
3C00
3C00
3C00
3C00
7C00
7800
7800
7800
7800
F000
F000
ENDCHAR
STARTCHAR 01C1
ENCODING 449
SWIDTH 440 0
DWIDTH 22 0
BBX 22 41 4 -1
BITMAP
00783C
00783C
00783C
00783C
00F078
00F078
00F078
00F078
01E0F0
01E0F0
01E0F0
01E0F0
03E1F0
03C1E0
03C1E0
03C1E0
03C1E0
0783C0
0783C0
0783C0
0783C0
0F0780
0F0780
0F0780
0F0780
0F0780
1E0F00
1E0F00
1E0F00
1E0F00
3C1E00
3C1E00
3C1E00
3C1E00
7C3E00
783C00
783C00
783C00
783C00
F07800
F07800
ENDCHAR
STARTCHAR 01C2
ENCODING 450
SWIDTH 580 0
DWIDTH 29 0
BBX 28 41 4 -1
BITMAP
0000F000
0000F000
0000F000
0000E000
0000E000
0001E000
0001E000
0001C000
0001C000
0003C000
0003C000
0003C000
00038000
1FFFFFF0
1FFFFFF0
1FFFFFE0
3FFFFFE0
00070000
00070000
000F0000
000F0000
000E0000
7FFFFFC0
7FFFFFC0
7FFFFF80
FFFFFF80
001C0000
001C0000
003C0000
003C0000
00380000
00380000
00780000
00780000
00780000
00700000
00700000
00F00000
00F00000
00F00000
00E00000
ENDCHAR
STARTCHAR 01C3
ENCODING 451
SWIDTH 280 0
DWIDTH 14 0
BBX 15 36 6 1
BITMAP
00FE
01FE
01FE
01FC
01FC
03FC
03FC
03FC
03F8
03F8
07F8
07F0
07F0
07F0
07E0
07E0
07E0
07C0
07C0
07C0
0780
0780
0780
0F00
0F00
0F00
0000
0000
0000
7F80
7F80
7F00
7F00
7F00
FF00
FF00
ENDCHAR
STARTCHAR 01C4
ENCODING 452
SWIDTH 1340 0
DWIDTH 67 0
BBX 69 47 4 0
BITMAP
000000000000F81F00
000000000000783C00
0000000000007C7800
0000000000003CF000
0000000000003FE000
0000000000001FC000
0000000000001FC000
000000000000000000
000000000000000000
000000000000000000
000000000000000000
01FFFFE0007FFFFFF8
01FFFFF8007FFFFFF0
01FFFFFE007FFFFFF0
01FFFFFF007FFFFFF0
01FFFFFF80FFFFFFF0
03FFFFFF80FFFFFFF0
03FC03FFC000003FE0
03FC007FC000007FC0
03F8003FC00000FF80
03F8003FC00001FF00
07F8001FC00003FE00
07F8001FE00007FC00
07F0001FE0000FF800
07F0001FE0001FF000
0FF0001FC0003FE000
0FF0001FC0007FC000
0FF0001FC000FF8000
0FE0001FC001FF0000
0FE0003FC003FE0000
1FE0003FC007FC0000
1FE0003F800FF80000
1FC0007F801FF00000
1FC0007F803FE00000
1FC0007F007FC00000
3FC000FF00FF800000
3FC000FE01FF000000
3F8001FE03FE000000
3F8003FC07FC000000
7F800FFC0FF8000000
7F807FF81FF0000000
7FFFFFF01FFFFFFC00
7FFFFFE01FFFFFFC00
7FFFFFC03FFFFFFC00
FFFFFF003FFFFFFC00
FFFFFC003FFFFFF800
FFFFE0003FFFFFF800
ENDCHAR
STARTCHAR 01C5
ENCODING 453
SWIDTH 1220 0
DWIDTH 61 0
BBX 61 38 4 0
BITMAP
00000000000F81F0
00000000000783C0
01FFFFE00007C780
01FFFFF80003CF00
01FFFFFE0003FE00
01FFFFFF0001FC00
01FFFFFF8001FC00
03FFFFFF80000000
03FC03FFC0000000
03FC007FC0000000
03F8003FC0000000
03F8003FC0FFFFF8
07F8001FC1FFFFF8
07F8001FE1FFFFF0
07F0001FE1FFFFF0
07F0001FE1FFFFF0
0FF0001FC1FFFFF0
0FF0001FC0003FE0
0FF0001FC0007FC0
0FE0001FC000FF80
0FE0003FC001FF00
1FE0003FC003FE00
1FE0003F8007F800
1FC0007F800FF000
1FC0007F801FE000
1FC0007F003FC000
3FC000FF007F8000
3FC000FE01FF0000
3F8001FE03FE0000
3F8003FC07FC0000
7F800FFC0FF80000
7F807FF81FF00000
7FFFFFF03FFFFF80
7FFFFFE03FFFFF80
7FFFFFC03FFFFF00
FFFFFF003FFFFF00
FFFFFC007FFFFF00
FFFFE0007FFFFF00
ENDCHAR
STARTCHAR 01C6
ENCODING 454
SWIDTH 1120 0
DWIDTH 56 0
BBX 55 39 4 -1
BITMAP
0000000001E03C
0000000001F078
000000FE00F0F0
000000FE00F9E0
000001FC007FC0
000001FC007F80
000001FC003F00
000001FC000000
000001FC000000
000003F8000000
000003F8000000
003FE3F83FFFFE
00FFF3F83FFFFE
01FFFBF83FFFFE
03FFFFF07FFFFE
07FFFFF07FFFFC
0FFC7FF07FFFFC
1FF03FF00007F8
1FE01FE0000FF0
3FC00FE0003FE0
3F800FE0007FC0
7F800FE000FF80
7F000FE001FF00
7F000FC003FE00
FF000FC007FC00
FF001FC00FF800
FF001FC01FF000
FF001FC03FE000
FF003F807FC000
FF003F80FF8000
FF007F81FE0000
FF00FF83FC0000
FF81FF07FFFFE0
7FFFFF07FFFFE0
7FFFFF0FFFFFE0
3FFFFF0FFFFFE0
1FFF7F0FFFFFC0
0FFCFE0FFFFFC0
03F00000000000
ENDCHAR
STARTCHAR 01C7
ENCODING 455
SWIDTH 1160 0
DWIDTH 58 0
BBX 58 37 4 -1
BITMAP
00FE000000001FC0
01FE000000001FC0
01FE000000001FC0
01FE000000003FC0
01FC000000003FC0
01FC000000003F80
03FC000000003F80
03FC000000007F80
03F8000000007F80
03F8000000007F80
03F8000000007F00
07F8000000007F00
07F800000000FF00
07F000000000FF00
07F000000000FE00
0FF000000000FE00
0FF000000000FE00
0FE000000001FE00
0FE000000001FE00
0FE000000001FC00
1FE000000001FC00
1FE000000003FC00
1FC000000003FC00
1FC00003FC03FC00
3FC00003FC03F800
3FC00003FC03F800
3FC00003F807F800
3F800003F807F800
3F800003F807F000
7F800003FC0FF000
7FFFFFC3FE3FF000
7FFFFFC3FFFFE000
7FFFFFC3FFFFC000
7FFFFF81FFFF8000
FFFFFF80FFFF0000
FFFFFF807FFC0000
000000001FE00000
ENDCHAR
STARTCHAR 01C8
ENCODING 456
SWIDTH 880 0
DWIDTH 44 0
BBX 45 47 4 -11
BITMAP
00FE000003F8
01FE000007F0
01FE000007F0
01FE000007F0
01FC000007F0
01FC000007F0
03FC00000000
03FC00000000
03F800000000
03F800000FE0
03F800000FE0
07F800001FC0
07F800001FC0
07F000001FC0
07F000001FC0
0FF000003FC0
0FF000003F80
0FE000003F80
0FE000003F80
0FE000003F80
1FE000007F00
1FE000007F00
1FC000007F00
1FC000007F00
3FC000007F00
3FC00000FE00
3FC00000FE00
3F800000FE00
3F800000FE00
7F800000FE00
7FFFFFC1FC00
7FFFFFC1FC00
7FFFFFC1FC00
7FFFFF81FC00
FFFFFF83F800
FFFFFF83F800
00000003F800
00000003F800
00000003F800
00000007F000
00000007F000
0000003FF000
0000007FF000
0000007FE000
0000007FC000
0000007F8000
0000007E0000
ENDCHAR
STARTCHAR 01C9
ENCODING 457
SWIDTH 560 0
DWIDTH 28 0
BBX 29 47 3 -11
BITMAP
00FE03F8
01FC03F8
01FC03F8
01FC07F0
01FC07F0
01FC07F0
03F80000
03F80000
03F80000
03F80FE0
07F80FE0
07F00FE0
07F01FE0
07F01FC0
07F01FC0
0FE01FC0
0FE01FC0
0FE03F80
0FE03F80
0FE03F80
1FC03F80
1FC03F80
1FC07F00
1FC07F00
3F807F00
3F807F00
3F807F00
3F80FE00
3F80FE00
7F00FE00
7F00FE00
7F01FC00
7F01FC00
7F01FC00
FE01FC00
FE01FC00
0003F800
0003F800
0003F800
0003F800
0007F800
003FF000
003FF000
003FE000
007FE000
007FC000
007E0000
ENDCHAR
STARTCHAR 01CA
ENCODING 458
SWIDTH 1280 0
DWIDTH 64 0
BBX 64 37 4 -1
BITMAP
01FE0003F800007F
01FE0007F00000FF
01FF0007F00000FF
03FF0007F00000FE
03FF0007F00000FE
03FF8007F00001FE
03FF800FE00001FE
03FFC00FE00001FE
07FFC00FE00001FC
07FFC00FE00001FC
07FFE01FC00003FC
07F7E01FC00003FC
0FE7E01FC00003F8
0FE7F01FC00003F8
0FE3F01FC00003F8
0FE3F83F800007F8
0FE3F83F800007F8
1FC1F83F800007F0
1FC1FC3F800007F0
1FC0FC3F80000FF0
1FC0FC7F00000FF0
1FC0FE7F00000FF0
3F807E7F00000FE0
3F807F7F0FE00FE0
3F807FFF0FE01FE0
3F803FFE0FE01FE0
7F003FFE1FE01FC0
7F001FFE1FE01FC0
7F001FFE1FE03FC0
7F001FFC1FE07FC0
7F000FFC1FF0FF80
FE000FFC1FFFFF80
FE000FFC0FFFFF00
FE0007FC0FFFFE00
FE0007F807FFFC00
FE0007F803FFF000
00000000007F8000
ENDCHAR
STARTCHAR 01CB
ENCODING 459
SWIDTH 1000 0
DWIDTH 50 0
BBX 50 47 4 -11
BITMAP
01FE0003F81FC0
01FE0007F01FC0
01FF0007F01FC0
03FF0007F01FC0
03FF0007F03F80
03FF8007F03F80
03FF800FE00000
03FFC00FE00000
07FFC00FE00000
07FFC00FE07F00
07FFE01FC07F00
07F7E01FC07F00
0FE7E01FC07F00
0FE7F01FC0FE00
0FE3F01FC0FE00
0FE3F83F80FE00
0FE3F83F80FE00
1FC1F83F80FE00
1FC1FC3F81FC00
1FC0FC3F81FC00
1FC0FC7F01FC00
1FC0FE7F01FC00
3F807E7F01FC00
3F807F7F03F800
3F807FFF03F800
3F803FFE03F800
7F003FFE03F800
7F001FFE07F800
7F001FFE07F000
7F001FFC07F000
7F000FFC07F000
FE000FFC07F000
FE000FFC0FE000
FE0007FC0FE000
FE0007F80FE000
FE0007F80FE000
000000000FE000
000000001FC000
000000001FC000
000000001FC000
000000003FC000
00000001FF8000
00000001FF8000
00000001FF8000
00000003FF0000
00000003FE0000
00000003F00000
ENDCHAR
STARTCHAR 01CC
ENCODING 460
SWIDTH 880 0
DWIDTH 44 0
BBX 46 47 3 -11
BITMAP
0000000001FC
0000000003F8
0000000003F8
0000000003F8
0000000003F8
0000000003F8
000000000000
000000000000
000000000000
03F8FF8007F0
03F9FFE007F0
07F3FFF00FE0
07F7FFF00FE0
07FFFFF00FE0
07FF1FF80FE0
07F80FF81FE0
0FF007F01FC0
0FF007F01FC0
0FE007F01FC0
0FE007F01FC0
1FC007F03F80
1FC00FE03F80
1FC00FE03F80
1FC00FE03F80
1FC00FE03F80
3F800FE07F00
3F801FC07F00
3F801FC07F00
3F801FC07F00
3F801FC07F00
7F001FC0FE00
7F003F80FE00
7F003F80FE00
7F003F80FE00
FE003F81FC00
FE007F01FC00
00000001FC00
00000001FC00
00000001FC00
00000003F800
00000003F800
0000001FF800
0000003FF800
0000003FF000
0000003FE000
0000003FC000
0000003F0000
ENDCHAR
STARTCHAR 01CD
ENCODING 461
SWIDTH 720 0
DWIDTH 36 0
BBX 33 47 2 0
BITMAP
00003C0780
00001E0F00
00001E1E00
00000F3C00
00000FF800
000007F000
000007F000
0000000000
0000000000
0000000000
0000000000
00001FF000
00001FF000
00003FF800
00003FF800
00007FF800
00007FF800
0000FFF800
0001FFF800
0001FFF800
0003FBFC00
0003FBFC00
0007F3FC00
0007F3FC00
000FE3FC00
001FC1FC00
001FC1FC00
003F81FC00
003F81FE00
007F01FE00
007F01FE00
00FE01FE00
01FE00FE00
01FC00FE00
03FFFFFE00
03FFFFFF00
07FFFFFF00
07FFFFFF00
0FFFFFFF00
0FFFFFFF00
1FE0007F00
3FC0007F00
3FC0007F80
7F80007F80
7F00007F80
FF00007F80
FE00007F80
ENDCHAR
STARTCHAR 01CE
ENCODING 462
SWIDTH 560 0
DWIDTH 28 0
BBX 27 39 3 -1
BITMAP
001E07C0
001E0F00
000F1E00
000F3E00
0007FC00
0007F800
0007F000
00000000
00000000
00000000
00000000
003FFE00
00FFFF00
01FFFF80
03FFFFC0
07FFFFC0
07F87FE0
0FE01FC0
0FC01FC0
00001FC0
00003FC0
0001FF80
007FFF80
03FFFF80
0FFFFF80
1FFFBF00
3FF07F00
3F807F00
7F007F00
7F00FF00
FF00FE00
FF01FE00
FF03FE00
FFFFFE00
FFFFFE00
7FFFFE00
7FFDFE00
1FF1FF00
0FC00000
ENDCHAR
STARTCHAR 01CF
ENCODING 463
SWIDTH 280 0
DWIDTH 14 0
BBX 21 47 3 0
BITMAP
03C078
03C0F0
01E1E0
01E3C0
01F780
00FF00
00FE00
000000
000000
000000
000000
00FE00
01FE00
01FE00
01FE00
01FC00
01FC00
03FC00
03FC00
03F800
03F800
03F800
07F800
07F800
07F000
07F000
0FF000
0FF000
0FE000
0FE000
0FE000
1FE000
1FE000
1FC000
1FC000
3FC000
3FC000
3FC000
3F8000
3F8000
7F8000
7F8000
7F0000
7F0000
7F0000
FF0000
FF0000
ENDCHAR
STARTCHAR 01D0
ENCODING 464
SWIDTH 300 0
DWIDTH 15 0
BBX 19 38 4 0
BITMAP
0F01E0
0F03C0
078F80
07DF00
03FE00
03FC00
01F800
000000
000000
000000
000000
03F800
07F000
07F000
07F000
07F000
07F000
0FE000
0FE000
0FE000
0FE000
0FE000
1FC000
1FC000
1FC000
1FC000
3F8000
3F8000
3F8000
3F8000
3F8000
7F0000
7F0000
7F0000
7F0000
7F0000
FE0000
FE0000
ENDCHAR
STARTCHAR 01D1
ENCODING 465
SWIDTH 780 0
DWIDTH 39 0
BBX 37 48 5 -1
BITMAP
0000F01E00
0000F03C00
0000787800
00007CF000
00003DE000
00003FC000
00001F8000
0000000000
0000000000
0000000000
0000000000
0001FFF000
0007FFFC00
001FFFFF00
003FFFFF80
00FFFFFFC0
01FFFFFFC0
03FF807FE0
03FE003FF0
07F8001FF0
0FF0000FF0
0FE0000FF0
1FE00007F0
1FC00007F8
3FC00007F8
3F800007F8
7F800007F0
7F000007F0
7F000007F0
FF00000FF0
FF00000FF0
FF00000FF0
FF00000FE0
FF00001FE0
FF00001FC0
FF00003FC0
FF00003F80
FF00007F80
7F8000FF00
7FC001FE00
7FE007FE00
3FFC3FFC00
3FFFFFF800
1FFFFFF000
0FFFFFC000
07FFFF8000
01FFFE0000
003FE00000
ENDCHAR
STARTCHAR 01D2
ENCODING 466
SWIDTH 620 0
DWIDTH 31 0
BBX 29 39 4 -1
BITMAP
001E03C0
001F0780
000F0F00
000F9E00
0007BC00
0007F800
0003F000
00000000
00000000
00000000
00000000
001FFE00
007FFF80
01FFFFC0
03FFFFE0
07FFFFE0
0FFC3FF0
1FF01FF0
1FE00FF0
3FC007F0
3F8007F8
7F8007F8
7F0007F0
7F0007F0
FF0007F0
FF000FF0
FF000FF0
FF000FE0
FF001FE0
FF001FE0
FF003FC0
FF807F80
7FC0FF80
7FFFFF00
7FFFFE00
3FFFFC00
1FFFF000
07FFE000
01FF0000
ENDCHAR
STARTCHAR 01D3
ENCODING 467
SWIDTH 720 0
DWIDTH 36 0
BBX 34 48 6 -1
BITMAP
0003C07800
0003E0F000
0001E1E000
0001F3C000
0000F78000
0000FF0000
00007E0000
0000000000
0000000000
0000000000
0000000000
07F8001FC0
07F8001FC0
07F8003FC0
07F0003FC0
07F0003F80
0FF0003F80
0FF0003F80
0FE0007F80
0FE0007F80
0FE0007F00
1FE0007F00
1FE000FF00
1FC000FF00
1FC000FF00
3FC000FE00
3FC000FE00
3FC001FE00
3F8001FE00
3F8001FC00
7F8001FC00
7F8001FC00
7F0003FC00
7F0003FC00
7F0003F800
FF0003F800
FF0007F800
FF0007F800
FF0007F000
FF000FF000
FF801FE000
FFE0FFE000
7FFFFFC000
7FFFFF8000
3FFFFF0000
1FFFFC0000
07FFF00000
00FF800000
ENDCHAR
STARTCHAR 01D4
ENCODING 468
SWIDTH 620 0
DWIDTH 31 0
BBX 29 39 4 -1
BITMAP
001E03C0
000F0780
000F0F00
00079E00
0007FC00
0003F800
0003F000
00000000
00000000
00000000
00000000
0FE003F8
0FE007F0
0FE007F0
0FE007F0
1FC007F0
1FC007F0
1FC00FE0
1FC00FE0
3F800FE0
3F800FE0
3F800FE0
3F801FC0
3F801FC0
7F001FC0
7F001FC0
7F003FC0
7F003F80
7F003F80
FF007F80
FF007F80
FF00FF00
FF81FF00
FFFFFF00
FFFFFF00
7FFF7F00
7FFEFE00
3FF8FE00
0FE00000
ENDCHAR
STARTCHAR 01D5
ENCODING 469
SWIDTH 720 0
DWIDTH 36 0
BBX 34 50 6 -1
BITMAP
0001FFFC00
0001FFFC00
0001FFFC00
0003FFF800
0000000000
0003F0FC00
0003F0FC00
0003F0FC00
0003F0FC00
0007E1F800
0007E1F800
0007E1F800
0000000000
07F8001FC0
07F8001FC0
07F8003FC0
07F0003FC0
07F0003F80
0FF0003F80
0FF0003F80
0FE0007F80
0FE0007F80
0FE0007F00
1FE0007F00
1FE000FF00
1FC000FF00
1FC000FF00
3FC000FE00
3FC000FE00
3FC001FE00
3F8001FE00
3F8001FC00
7F8001FC00
7F8001FC00
7F0003FC00
7F0003FC00
7F0003F800
FF0003F800
FF0007F800
FF0007F800
FF0007F000
FF000FF000
FF801FE000
FFE0FFE000
7FFFFFC000
7FFFFF8000
3FFFFF0000
1FFFFC0000
07FFF00000
00FF800000
ENDCHAR
STARTCHAR 01D6
ENCODING 470
SWIDTH 620 0
DWIDTH 31 0
BBX 29 44 4 -1
BITMAP
000FFFE0
000FFFE0
000FFFE0
000FFFE0
00000000
00000000
00000000
001F87E0
001F87E0
001F87E0
003F8FE0
003F0FC0
003F0FC0
00000000
00000000
00000000
0FE003F8
0FE007F0
0FE007F0
0FE007F0
1FC007F0
1FC007F0
1FC00FE0
1FC00FE0
3F800FE0
3F800FE0
3F800FE0
3F801FC0
3F801FC0
7F001FC0
7F001FC0
7F003FC0
7F003F80
7F003F80
FF007F80
FF007F80
FF00FF00
FF81FF00
FFFFFF00
FFFFFF00
7FFF7F00
7FFEFE00
3FF8FE00
0FE00000
ENDCHAR
STARTCHAR 01D7
ENCODING 471
SWIDTH 720 0
DWIDTH 36 0
BBX 34 54 6 -1
BITMAP
000001F800
000003F000
000003E000
000007C000
00000F8000
00000F0000
00001E0000
0000000000
0000000000
0003F0FC00
0003F0FC00
0003F0FC00
0003F0FC00
0007E1F800
0007E1F800
0000000000
0000000000
07F8001FC0
07F8001FC0
07F8003FC0
07F0003FC0
07F0003F80
0FF0003F80
0FF0003F80
0FE0007F80
0FE0007F80
0FE0007F00
1FE0007F00
1FE000FF00
1FC000FF00
1FC000FF00
3FC000FE00
3FC000FE00
3FC001FE00
3F8001FE00
3F8001FC00
7F8001FC00
7F8001FC00
7F0003FC00
7F0003FC00
7F0003F800
FF0003F800
FF0007F800
FF0007F800
FF0007F000
FF000FF000
FF801FE000
FFE0FFE000
7FFFFFC000
7FFFFF8000
3FFFFF0000
1FFFFC0000
07FFF00000
00FF800000
ENDCHAR
STARTCHAR 01D8
ENCODING 472
SWIDTH 620 0
DWIDTH 31 0
BBX 29 48 4 -1
BITMAP
000007E0
00000FC0
00000F80
00001F00
00003E00
00003C00
00007800
00000000
00000000
00000000
00000000
001F87E0
001F87E0
001F87E0
003F8FE0
003F0FC0
003F0FC0
00000000
00000000
00000000
0FE003F8
0FE007F0
0FE007F0
0FE007F0
1FC007F0
1FC007F0
1FC00FE0
1FC00FE0
3F800FE0
3F800FE0
3F800FE0
3F801FC0
3F801FC0
7F001FC0
7F001FC0
7F003FC0
7F003F80
7F003F80
FF007F80
FF007F80
FF00FF00
FF81FF00
FFFFFF00
FFFFFF00
7FFF7F00
7FFEFE00
3FF8FE00
0FE00000
ENDCHAR
STARTCHAR 01D9
ENCODING 473
SWIDTH 720 0
DWIDTH 36 0
BBX 34 55 6 -1
BITMAP
0001E01E00
0000F03C00
0000F07800
000078F000
00007DE000
00003FC000
00003F8000
00001F0000
0000000000
0000000000
0003F0FC00
0003F0FC00
0003F0FC00
0003F0FC00
0007F1FC00
0007E1F800
0000000000
0000000000
07F8001FC0
07F8001FC0
07F8003FC0
07F0003FC0
07F0003F80
0FF0003F80
0FF0003F80
0FE0007F80
0FE0007F80
0FE0007F00
1FE0007F00
1FE000FF00
1FC000FF00
1FC000FF00
3FC000FE00
3FC000FE00
3FC001FE00
3F8001FE00
3F8001FC00
7F8001FC00
7F8001FC00
7F0003FC00
7F0003FC00
7F0003F800
FF0003F800
FF0007F800
FF0007F800
FF0007F000
FF000FF000
FF801FE000
FFE0FFE000
7FFFFFC000
7FFFFF8000
3FFFFF0000
1FFFFC0000
07FFF00000
00FF800000
ENDCHAR
STARTCHAR 01DA
ENCODING 474
SWIDTH 620 0
DWIDTH 31 0
BBX 29 49 4 -1
BITMAP
000F00F0
000781E0
0007C3C0
0003C780
0003EF00
0001FE00
0001FC00
00000000
00000000
00000000
00000000
00000000
001F87E0
001F87E0
001F87E0
003F8FE0
003F0FC0
003F0FC0
00000000
00000000
00000000
0FE003F8
0FE007F0
0FE007F0
0FE007F0
1FC007F0
1FC007F0
1FC00FE0
1FC00FE0
3F800FE0
3F800FE0
3F800FE0
3F801FC0
3F801FC0
7F001FC0
7F001FC0
7F003FC0
7F003F80
7F003F80
FF007F80
FF007F80
FF00FF00
FF81FF00
FFFFFF00
FFFFFF00
7FFF7F00
7FFEFE00
3FF8FE00
0FE00000
ENDCHAR
STARTCHAR 01DB
ENCODING 475
SWIDTH 720 0
DWIDTH 36 0
BBX 34 54 6 -1
BITMAP
00007C0000
00007C0000
00003E0000
00001E0000
00001E0000
00000E0000
00000F0000
0000070000
0000000000
0003F0FC00
0003F0FC00
0003F0FC00
0003F0FC00
0007F1FC00
0007E1F800
0000000000
0000000000
07F8001FC0
07F8001FC0
07F8003FC0
07F0003FC0
07F0003F80
0FF0003F80
0FF0003F80
0FE0007F80
0FE0007F80
0FE0007F00
1FE0007F00
1FE000FF00
1FC000FF00
1FC000FF00
3FC000FE00
3FC000FE00
3FC001FE00
3F8001FE00
3F8001FC00
7F8001FC00
7F8001FC00
7F0003FC00
7F0003FC00
7F0003F800
FF0003F800
FF0007F800
FF0007F800
FF0007F000
FF000FF000
FF801FE000
FFE0FFE000
7FFFFFC000
7FFFFF8000
3FFFFF0000
1FFFFC0000
07FFF00000
00FF800000
ENDCHAR
STARTCHAR 01DC
ENCODING 476
SWIDTH 620 0
DWIDTH 31 0
BBX 29 48 4 -1
BITMAP
0003E000
0001F000
0001F000
0000F000
00007800
00007800
00003800
00003800
00000000
00000000
00000000
001F87E0
001F87E0
001F87E0
003F8FE0
003F0FC0
003F0FC0
00000000
00000000
00000000
0FE003F8
0FE007F0
0FE007F0
0FE007F0
1FC007F0
1FC007F0
1FC00FE0
1FC00FE0
3F800FE0
3F800FE0
3F800FE0
3F801FC0
3F801FC0
7F001FC0
7F001FC0
7F003FC0
7F003F80
7F003F80
FF007F80
FF007F80
FF00FF00
FF81FF00
FFFFFF00
FFFFFF00
7FFF7F00
7FFEFE00
3FF8FE00
0FE00000
ENDCHAR
STARTCHAR 01DD
ENCODING 477
SWIDTH 560 0
DWIDTH 28 0
BBX 26 28 3 -1
BITMAP
001FF000
00FFFC00
01FFFE00
07FFFF00
0FFFFF80
0FF9FF80
1FE03FC0
3FC03FC0
00001FC0
00001FC0
00001FC0
00001FC0
7FFFFFC0
FFFFFFC0
FFFFFFC0
FFFFFF80
FE003F80
FE007F80
FE007F00
FF007F00
FF00FF00
FF01FE00
7FEFFC00
7FFFF800
3FFFF000
1FFFE000
0FFFC000
03FE0000
ENDCHAR
STARTCHAR 01DE
ENCODING 478
SWIDTH 720 0
DWIDTH 36 0
BBX 34 49 2 0
BITMAP
00001FFFC0
00001FFFC0
00001FFFC0
00001FFFC0
0000000000
00003F0FC0
00003F0FC0
00003F0FC0
00003F0FC0
00007E1F80
00007E1F80
0000000000
0000000000
00001FF000
00001FF000
00003FF800
00003FF800
00007FF800
00007FF800
0000FFF800
0001FFF800
0001FFF800
0003FBFC00
0003FBFC00
0007F3FC00
0007F3FC00
000FE3FC00
001FC1FC00
001FC1FC00
003F81FC00
003F81FE00
007F01FE00
007F01FE00
00FE01FE00
01FE00FE00
01FC00FE00
03FFFFFE00
03FFFFFF00
07FFFFFF00
07FFFFFF00
0FFFFFFF00
0FFFFFFF00
1FE0007F00
3FC0007F00
3FC0007F80
7F80007F80
7F00007F80
FF00007F80
FE00007F80
ENDCHAR
STARTCHAR 01DF
ENCODING 479
SWIDTH 560 0
DWIDTH 28 0
BBX 27 44 3 -1
BITMAP
000FFFE0
000FFFE0
001FFFC0
001FFFC0
00000000
00000000
00000000
001F87E0
001F87E0
003F8FE0
003F0FC0
003F0FC0
003F0FC0
00000000
00000000
00000000
003FFE00
00FFFF00
01FFFF80
03FFFFC0
07FFFFC0
07F87FE0
0FE01FC0
0FC01FC0
00001FC0
00003FC0
0001FF80
007FFF80
03FFFF80
0FFFFF80
1FFFBF00
3FF07F00
3F807F00
7F007F00
7F00FF00
FF00FE00
FF01FE00
FF03FE00
FFFFFE00
FFFFFE00
7FFFFE00
7FFDFE00
1FF1FF00
0FC00000
ENDCHAR
STARTCHAR 01E0
ENCODING 480
SWIDTH 720 0
DWIDTH 36 0
BBX 34 49 2 0
BITMAP
00001FFFC0
00001FFFC0
00003FFF80
00003FFF80
0000000000
000001F800
000001F800
000001F800
000001F800
000003F000
000003F000
0000000000
0000000000
00001FF000
00001FF000
00003FF800
00003FF800
00007FF800
00007FF800
0000FFF800
0001FFF800
0001FFF800
0003FBFC00
0003FBFC00
0007F3FC00
0007F3FC00
000FE3FC00
001FC1FC00
001FC1FC00
003F81FC00
003F81FE00
007F01FE00
007F01FE00
00FE01FE00
01FE00FE00
01FC00FE00
03FFFFFE00
03FFFFFF00
07FFFFFF00
07FFFFFF00
0FFFFFFF00
0FFFFFFF00
1FE0007F00
3FC0007F00
3FC0007F80
7F80007F80
7F00007F80
FF00007F80
FE00007F80
ENDCHAR
STARTCHAR 01E1
ENCODING 481
SWIDTH 560 0
DWIDTH 28 0
BBX 27 44 3 -1
BITMAP
000FFFE0
000FFFE0
001FFFC0
001FFFC0
00000000
00000000
00000000
0001FC00
0001F800
0001F800
0001F800
0001F800
0003F000
00000000
00000000
00000000
003FFE00
00FFFF00
01FFFF80
03FFFFC0
07FFFFC0
07F87FE0
0FE01FC0
0FC01FC0
00001FC0
00003FC0
0001FF80
007FFF80
03FFFF80
0FFFFF80
1FFFBF00
3FF07F00
3F807F00
7F007F00
7F00FF00
FF00FE00
FF01FE00
FF03FE00
FFFFFE00
FFFFFE00
7FFFFE00
7FFDFE00
1FF1FF00
0FC00000
ENDCHAR
STARTCHAR 01E2
ENCODING 482
SWIDTH 1000 0
DWIDTH 50 0
BBX 55 44 0 0
BITMAP
00000001FFFC00
00000001FFFC00
00000003FFF800
00000003FFF800
00000000000000
00000000000000
00000000000000
00000000000000
000007FFFFFFFE
00000FFFFFFFFE
00000FFFFFFFFE
00001FFFFFFFFC
00003FFFFFFFFC
00003FFFFFFFFC
00007F8FE00000
00007F0FE00000
0000FE0FE00000
0001FE1FE00000
0001FC1FE00000
0003FC1FC00000
0003F81FC00000
0007F83FC00000
0007F03FFFFFE0
000FE03FFFFFC0
001FE03FFFFFC0
001FC03FFFFFC0
003FC07FFFFFC0
003F807FFFFFC0
007F007F000000
00FF007F000000
00FFFFFF000000
01FFFFFF000000
01FFFFFF000000
03FFFFFE000000
03FFFFFE000000
07FFFFFE000000
0FF001FE000000
0FF001FC000000
1FE001FFFFFF80
1FC001FFFFFF80
3FC003FFFFFF80
7F8003FFFFFF80
7F8003FFFFFF80
FF0003FFFFFF00
ENDCHAR
STARTCHAR 01E3
ENCODING 483
SWIDTH 900 0
DWIDTH 45 0
BBX 44 36 3 -1
BITMAP
00001FFFC000
00001FFFC000
00003FFF8000
00003FFF8000
000000000000
000000000000
000000000000
000000000000
003FFE0FFC00
00FFFF3FFF00
01FFFFFFFF80
03FFFFFFFFC0
07FFFFFFFFC0
07F83FFC3FE0
0FE01FF01FE0
0FE01FE00FE0
00001FE00FE0
00001FC00FF0
00007FC00FF0
000FFFFFFFE0
01FFFFFFFFE0
07FFFFFFFFE0
1FFFFFFFFFE0
3FFC3FFFFFE0
3FC03F000000
7F807F000000
7F007F000000
FF00FF003F80
FF00FF807F80
FF03FFC0FF00
FFFFFFFFFE00
FFFFDFFFFC00
7FFF9FFFF800
7FFF0FFFF000
3FFE07FFC000
0FF000FE0000
ENDCHAR
STARTCHAR 01E4
ENCODING 484
SWIDTH 820 0
DWIDTH 41 0
BBX 37 37 5 0
BITMAP
0001FFF000
0007FFFC00
001FFFFE00
003FFFFF00
00FFFFFF80
01FFFFFFC0
03FF00FFC0
03FC003FC0
07F8001FC0
0FF0001FE0
0FE0000FE0
1FE0000000
3FC0000000
3FC0000000
3F80000000
7F80000000
7F00000000
7F000FFFE0
FF000FFFC0
FF001FFFC0
FF001FFFC0
FF001FFFC0
FF001FFF80
FF00001F80
FF00001F80
FF003FFFF8
FF003FFFF8
FF803FFFF8
7FC07FFFF0
7FE003FF00
3FFC3FFF00
3FFFFFFF00
1FFFFFBE00
0FFFFF3E00
07FFFC3E00
01FFF83E00
007FC00000
ENDCHAR
STARTCHAR 01E5
ENCODING 485
SWIDTH 640 0
DWIDTH 32 0
BBX 31 38 2 -10
BITMAP
0007F8FE
001FFCFE
007FFEFE
00FFFEFC
01FFFFFC
03FF1FFC
03FC0FFC
07F807F8
07F003F8
0FE003F8
0FE003F8
1FE003F8
1FC003F0
1FC003F0
3FC003F0
3FC007F0
3FC007F0
3FC00FE0
3FC00FE0
3FC01FE0
3FC03FE0
3FE07FC0
1FFFFFC0
1FFFFFC0
0FFFFFC0
0FFFDFC0
07FF1F80
00FC1F80
00003F80
0007FFF8
FE0FFFF8
FE0FFFF8
FF03FE00
FFFFFC00
FFFFF800
7FFFF000
1FFFC000
07FE0000
ENDCHAR
STARTCHAR 01E6
ENCODING 486
SWIDTH 780 0
DWIDTH 39 0
BBX 36 48 5 -1
BITMAP
0000F00F00
0000781E00
00007C3C00
00003C7800
00003EF000
00001FE000
00001FC000
00000F8000
0000000000
0000000000
0000000000
0000FFF000
0007FFFC00
001FFFFF00
003FFFFF80
00FFFFFFC0
01FFFFFFC0
03FF007FE0
03FC001FE0
07F8000FE0
0FF0000FF0
0FE00007F0
1FE0000000
1FC0000000
3FC0000000
3F80000000
7F80000000
7F00000000
7F000FFFE0
7F000FFFC0
FF001FFFC0
FF001FFFC0
FF001FFFC0
FF001FFFC0
FF00001F80
FF00003F80
FF00003F80
FF80007F80
FF8000FF00
7FC001FF00
7FE003FF00
3FFC1FFF00
3FFFFFFF00
1FFFFFBE00
0FFFFF3E00
07FFFE3E00
01FFF83E00
003FE00000
ENDCHAR
STARTCHAR 01E7
ENCODING 487
SWIDTH 620 0
DWIDTH 31 0
BBX 31 49 2 -11
BITMAP
001E03C0
000F0780
000F0F00
00079E00
0007FC00
0003F800
0003F000
00000000
00000000
00000000
00000000
000FF0FE
003FFCFC
007FFCFC
00FFFFFC
01FFFFFC
03FF1FFC
07FC0FF8
07F807F8
0FF003F8
0FE003F8
1FE003F8
1FE003F0
1FC003F0
1FC003F0
3FC003F0
3FC007E0
3FC007E0
3FC00FE0
3FC00FE0
3FC01FE0
3FC03FC0
3FE07FC0
1FFFFFC0
1FFFFFC0
0FFFFFC0
07FF9F80
03FF3F80
00FC3F80
00003F80
00003F00
FE007F00
FE00FE00
FF01FE00
FFFFFC00
FFFFF800
7FFFF000
3FFFC000
07FE0000
ENDCHAR
STARTCHAR 01E8
ENCODING 488
SWIDTH 720 0
DWIDTH 36 0
BBX 38 47 4 0
BITMAP
0000F00F00
0000781E00
0000783C00
00003C7800
00003FF000
00001FE000
00001FC000
00001F8000
0000000000
0000000000
0000000000
01FE0007FC
01FE000FF0
01FC003FE0
01FC007FC0
03FC00FF80
03FC01FF00
03FC03FE00
03F807FC00
03F80FF000
07F81FE000
07F87FC000
07F0FF8000
07F1FF0000
07F3FE0000
0FF7FC0000
0FFFF00000
0FFFF80000
0FFFF80000
1FFFFC0000
1FFFFC0000
1FFFFE0000
1FF9FE0000
1FF1FF0000
3FE0FF8000
3FC0FF8000
3F807FC000
3F803FC000
3F803FE000
7F801FE000
7F801FF000
7F000FF800
7F000FF800
FF0007FC00
FF0003FC00
FF0003FE00
FE0001FF00
ENDCHAR
STARTCHAR 01E9
ENCODING 489
SWIDTH 560 0
DWIDTH 28 0
BBX 29 45 3 0
BITMAP
00078070
0007C1E0
0003C3C0
0003E7C0
0001EF80
0001FF00
0000FE00
0000FC00
00000000
00FE0000
01FC0000
01FC0000
01FC0000
01FC0000
01FC0000
03F80000
03F80000
03F80000
03F807F8
07F00FF0
07F01FE0
07F03FC0
07F07F00
07F0FE00
0FE1FC00
0FE3F800
0FE7F000
0FEFE000
1FFFC000
1FFFC000
1FFFE000
1FFFE000
1FFFF000
3FFFF000
3FE7F000
3FC7F800
3F87F800
3F83FC00
7F03FC00
7F03FC00
7F01FE00
7F01FE00
FF01FE00
FE00FF00
FE00FF00
ENDCHAR
STARTCHAR 01EA
ENCODING 490
SWIDTH 780 0
DWIDTH 39 0
BBX 37 48 5 -11
BITMAP
0001FFF000
0007FFFC00
001FFFFF00
003FFFFF80
00FFFFFFC0
01FFFFFFC0
01FF807FE0
03FE003FF0
07F8001FF0
0FF0000FF0
0FE0000FF0
1FE00007F0
1FC00007F8
3FC00007F8
3F800007F8
7F800007F0
7F000007F0
7F000007F0
FF00000FF0
FF00000FF0
FF00000FE0
FF00000FE0
FF00001FE0
FF00001FC0
FF00003FC0
FF00003F80
FF00007F80
7F8000FF00
7FC001FE00
7FE007FE00
3FFC3FFC00
3FFFFFF800
1FFFFFF000
0FFFFFC000
07FFFF8000
01FFFE0000
007FF00000
0078000000
01E0000000
03C0000000
0780000000
0F00000000
1F00000000
1F00000000
1F00000000
1FFC000000
0FFC000000
03F8000000
ENDCHAR
STARTCHAR 01EB
ENCODING 491
SWIDTH 620 0
DWIDTH 31 0
BBX 29 39 4 -11
BITMAP
001FFE00
007FFF80
01FFFFC0
03FFFFE0
07FFFFE0
0FFC3FF0
1FF01FF0
1FE00FF0
3FC007F0
3F8007F8
7F8007F8
7F0007F0
7F0007F0
FF0007F0
FF000FF0
FF000FF0
FF000FE0
FF001FE0
FF001FE0
FF003FC0
FF807F80
7FC0FF80
7FFFFF00
3FFFFE00
3FFFFC00
0FFFF000
07FFC000
00FE0000
00780000
00F00000
03E00000
07C00000
07800000
0F800000
0F800000
0F800000
0FFE0000
07FE0000
01FC0000
ENDCHAR
STARTCHAR 01EC
ENCODING 492
SWIDTH 780 0
DWIDTH 39 0
BBX 37 56 5 -12
BITMAP
0000FFFE00
0000FFFE00
0001FFFC00
0001FFFC00
0000000000
0000000000
0000000000
0000000000
0001FFF000
0007FFFC00
001FFFFF00
003FFFFF80
00FFFFFFC0
01FFFFFFC0
01FF807FE0
03FE003FF0
07F8001FF0
0FF0000FF0
0FE0000FF0
1FE00007F0
1FC00007F8
3FC00007F8
3F800007F8
7F800007F0
7F000007F0
7F000007F0
FF00000FF0
FF00000FF0
FF00000FE0
FF00000FE0
FF00001FE0
FF00001FC0
FF00003FC0
FF00003F80
FF00007F80
7F8000FF00
7FC001FE00
7FE007FE00
3FFC3FFC00
3FFFFFF800
1FFFFFF000
0FFFFFC000
07FFFF8000
01FFFE0000
007FF00000
0078000000
01E0000000
03C0000000
0780000000
0F00000000
1F00000000
1F00000000
1F00000000
1FFC000000
0FFC000000
03F8000000
ENDCHAR
STARTCHAR 01ED
ENCODING 493
SWIDTH 620 0
DWIDTH 31 0
BBX 29 47 4 -12
BITMAP
001FFFC0
001FFFC0
003FFF80
003FFF80
00000000
00000000
00000000
00000000
001FFE00
007FFF80
01FFFFC0
03FFFFE0
07FFFFE0
0FFC3FF0
1FF01FF0
1FE00FF0
3FC007F0
3F8007F8
7F8007F8
7F0007F0
7F0007F0
FF0007F0
FF000FF0
FF000FF0
FF000FE0
FF001FE0
FF001FE0
FF003FC0
FF807F80
7FC0FF80
7FFFFF00
3FFFFE00
3FFFFC00
0FFFF000
07FFC000
00FE0000
00780000
00F00000
03E00000
07C00000
07800000
0F800000
0F800000
0F800000
0FFE0000
07FE0000
01FC0000
ENDCHAR
STARTCHAR 01EE
ENCODING 494
SWIDTH 560 0
DWIDTH 28 0
BBX 27 48 2 -1
BITMAP
003C0780
001E0F00
001F1E00
000F3C00
000FF800
0007F000
0007E000
00000000
00000000
00000000
00000000
00FFFFE0
00FFFFE0
00FFFFE0
00FFFFE0
01FFFFC0
01FFFFC0
00003FC0
00003F80
00007F00
0000FE00
0000FE00
0001FC00
0003F800
0007F000
0007F000
000FE000
000FC000
001FF800
001FFC00
001FFE00
0001FF00
0000FF00
00007F00
00007F80
00007F80
FF007F00
FF007F00
FF00FF00
FF00FE00
FF01FE00
FFC7FC00
7FFFFC00
7FFFF800
3FFFF000
3FFFE000
0FFF8000
03FC0000
ENDCHAR
STARTCHAR 01EF
ENCODING 495
SWIDTH 560 0
DWIDTH 28 0
BBX 28 45 3 -7
BITMAP
003C0780
001E0F00
001F1E00
000F3C00
000FF800
0007F000
0007E000
00000000
00000000
00000000
00000000
00FFFFF0
00FFFFF0
00FFFFF0
00FFFFE0
01FFFFE0
01FFFFE0
00003FC0
00007F80
0000FF00
0001FE00
0003FC00
0007F800
000FF000
000FE000
001FF800
001FFE00
001FFE00
0001FF00
0000FF00
00007F00
00007F80
00007F00
FF007F00
FF007F00
FF00FF00
FF00FE00
FF01FE00
FF83FC00
FFFFFC00
7FFFF800
7FFFF000
3FFFE000
1FFF8000
07FE0000
ENDCHAR
STARTCHAR 01F0
ENCODING 496
SWIDTH 280 0
DWIDTH 14 0
BBX 24 49 -2 -11
BITMAP
00780F
00781E
003C3C
003E78
001EF0
001FF0
000FE0
000FC0
000000
000000
000000
001FC0
001FC0
001FC0
003FC0
003F80
003F80
003F80
003F80
007F00
007F00
007F00
007F00
007F00
00FE00
00FE00
00FE00
00FE00
00FE00
01FC00
01FC00
01FC00
01FC00
03F800
03F800
03F800
03F800
03F800
07F000
07F000
07F000
07F000
0FF000
7FE000
7FE000
7FC000
FFC000
FF8000
FC0000
ENDCHAR
STARTCHAR 01F1
ENCODING 497
SWIDTH 1340 0
DWIDTH 67 0
BBX 69 36 4 0
BITMAP
01FFFFE0007FFFFFF8
01FFFFF8007FFFFFF0
01FFFFFE007FFFFFF0
01FFFFFF007FFFFFF0
01FFFFFF80FFFFFFF0
03FFFFFF80FFFFFFF0
03FC03FFC000003FE0
03FC007FC000007FC0
03F8003FC00000FF80
03F8003FC00001FF00
07F8001FC00003FE00
07F8001FE00007FC00
07F0001FE0000FF800
07F0001FE0001FF000
0FF0001FC0003FE000
0FF0001FC0007FC000
0FF0001FC000FF8000
0FE0001FC001FF0000
0FE0003FC003FE0000
1FE0003FC007FC0000
1FE0003F800FF80000
1FC0007F801FF00000
1FC0007F803FE00000
1FC0007F007FC00000
3FC000FF00FF800000
3FC000FE01FF000000
3F8001FE03FE000000
3F8003FC07FC000000
7F800FFC0FF8000000
7F807FF81FF0000000
7FFFFFF01FFFFFFC00
7FFFFFE01FFFFFFC00
7FFFFFC03FFFFFFC00
FFFFFF003FFFFFFC00
FFFFFC003FFFFFF800
FFFFE0003FFFFFF800
ENDCHAR
STARTCHAR 01F2
ENCODING 498
SWIDTH 1220 0
DWIDTH 61 0
BBX 61 36 4 0
BITMAP
01FFFFE000000000
01FFFFF800000000
01FFFFFE00000000
01FFFFFF00000000
01FFFFFF80000000
03FFFFFF80000000
03FC03FFC0000000
03FC007FC0000000
03F8003FC0000000
03F8003FC0FFFFF8
07F8001FC1FFFFF8
07F8001FE1FFFFF0
07F0001FE1FFFFF0
07F0001FE1FFFFF0
0FF0001FC1FFFFF0
0FF0001FC0003FE0
0FF0001FC0007FC0
0FE0001FC000FF80
0FE0003FC001FF00
1FE0003FC003FE00
1FE0003F8007F800
1FC0007F800FF000
1FC0007F801FE000
1FC0007F003FC000
3FC000FF007F8000
3FC000FE01FF0000
3F8001FE03FE0000
3F8003FC07FC0000
7F800FFC0FF80000
7F807FF81FF00000
7FFFFFF03FFFFF80
7FFFFFE03FFFFF80
7FFFFFC03FFFFF00
FFFFFF003FFFFF00
FFFFFC007FFFFF00
FFFFE0007FFFFF00
ENDCHAR
STARTCHAR 01F3
ENCODING 499
SWIDTH 1120 0
DWIDTH 56 0
BBX 55 37 4 -1
BITMAP
000000FE000000
000000FE000000
000001FC000000
000001FC000000
000001FC000000
000001FC000000
000001FC000000
000003F8000000
000003F8000000
003FE3F83FFFFE
00FFF3F83FFFFE
01FFFBF83FFFFE
03FFFFF07FFFFE
07FFFFF07FFFFC
0FFC7FF07FFFFC
1FF03FF00007F8
1FE01FE0000FF0
3FC00FE0003FE0
3F800FE0007FC0
7F800FE000FF80
7F000FE001FF00
7F000FC003FE00
FF000FC007FC00
FF001FC00FF800
FF001FC01FF000
FF001FC03FE000
FF003F807FC000
FF003F80FF8000
FF007F81FE0000
FF00FF83FC0000
FF81FF07FFFFE0
7FFFFF07FFFFE0
7FFFFF0FFFFFE0
3FFFFF0FFFFFE0
1FFF7F0FFFFFC0
0FFCFE0FFFFFC0
03F00000000000
ENDCHAR
STARTCHAR 01F4
ENCODING 500
SWIDTH 780 0
DWIDTH 39 0
BBX 36 48 5 -1
BITMAP
000000FC00
000001F800
000001F000
000003E000
000007C000
0000078000
00000F0000
00001E0000
0000000000
0000000000
0000000000
0000FFF000
0007FFFC00
001FFFFF00
003FFFFF80
00FFFFFFC0
01FFFFFFC0
03FF007FE0
03FC001FE0
07F8000FE0
0FF0000FF0
0FE00007F0
1FE0000000
1FC0000000
3FC0000000
3F80000000
7F80000000
7F00000000
7F000FFFE0
7F000FFFC0
FF001FFFC0
FF001FFFC0
FF001FFFC0
FF001FFFC0
FF00001F80
FF00003F80
FF00003F80
FF80007F80
FF8000FF00
7FC001FF00
7FE003FF00
3FFC1FFF00
3FFFFFFF00
1FFFFFBE00
0FFFFF3E00
07FFFE3E00
01FFF83E00
003FE00000
ENDCHAR
STARTCHAR 01F5
ENCODING 501
SWIDTH 620 0
DWIDTH 31 0
BBX 31 49 2 -11
BITMAP
000007E0
00000FC0
00001F80
00003F00
00003E00
00007C00
0000F800
0000E000
00000000
00000000
00000000
000FF0FE
003FFCFC
007FFCFC
00FFFFFC
01FFFFFC
03FF1FFC
07FC0FF8
07F807F8
0FF003F8
0FE003F8
1FE003F8
1FE003F0
1FC003F0
1FC003F0
3FC003F0
3FC007E0
3FC007E0
3FC00FE0
3FC00FE0
3FC01FE0
3FC03FC0
3FE07FC0
1FFFFFC0
1FFFFFC0
0FFFFFC0
07FF9F80
03FF3F80
00FC3F80
00003F80
00003F00
FE007F00
FE00FE00
FF01FE00
FFFFFC00
FFFFF800
7FFFF000
3FFFC000
07FE0000
ENDCHAR
STARTCHAR 01F7
ENCODING 503
SWIDTH 620 0
DWIDTH 31 0
BBX 34 36 3 0
BITMAP
00FE1FFC00
00FEFFFE00
01FFFFFF00
01FFFFFF80
01FFFFFF80
01FFFFFF80
01FFF07FC0
03FF803FC0
03FE003F80
03FC003F80
03F8007F80
03F8007F80
07F800FF00
07F001FF00
07F003FE00
07F007FC00
0FF00FFC00
0FE01FF800
0FE03FF000
0FE0FFE000
0FE1FFC000
1FE7FF8000
1FCFFE0000
1FFFFC0000
1FFFF80000
1FFFE00000
3FFFC00000
3FFF000000
3FFC000000
3FF0000000
7FC0000000
7F00000000
7F00000000
7F00000000
7F00000000
FF00000000
ENDCHAR
STARTCHAR 01F8
ENCODING 504
SWIDTH 720 0
DWIDTH 36 0
BBX 37 46 4 0
BITMAP
00003E0000
00001F0000
00001F0000
00000F0000
00000F8000
0000078000
0000038000
0000038000
0000000000
0000000000
01FE0003F8
01FE0007F0
01FF0007F0
03FF0007F0
03FF0007F0
03FF8007F0
03FF800FE0
03FFC00FE0
07FFC00FE0
07FFC00FE0
07FFE01FC0
07F7E01FC0
0FE7E01FC0
0FE7F01FC0
0FE3F01FC0
0FE3F83F80
0FE3F83F80
1FC1F83F80
1FC1FC3F80
1FC0FC3F80
1FC0FC7F00
1FC0FE7F00
3F807E7F00
3F807F7F00
3F807FFF00
3F803FFE00
7F003FFE00
7F001FFE00
7F001FFE00
7F001FFC00
7F000FFC00
FE000FFC00
FE000FFC00
FE0007FC00
FE0007F800
FE0007F800
ENDCHAR
STARTCHAR 01F9
ENCODING 505
SWIDTH 620 0
DWIDTH 31 0
BBX 29 38 3 0
BITMAP
0007C000
0003E000
0003E000
0001E000
0001F000
0000F000
00007000
00007000
00000000
00000000
00000000
03F8FF80
03F9FFE0
07F3FFF0
07F7FFF0
07FFFFF0
07FF1FF8
07F80FF8
0FF007F0
0FF007F0
0FE007F0
0FE007F0
1FC007F0
1FC00FE0
1FC00FE0
1FC00FE0
1FC00FE0
3F800FE0
3F801FC0
3F801FC0
3F801FC0
3F801FC0
7F001FC0
7F003F80
7F003F80
7F003F80
FE003F80
FE007F00
ENDCHAR
ENDFONT
